<?xml version="1.0" encoding="UTF-8" standalone="no"?>
<!-- Created with Inkscape (http://www.inkscape.org/) -->
<svg
   xmlns:dc="http://purl.org/dc/elements/1.1/"
   xmlns:cc="http://web.resource.org/cc/"
   xmlns:rdf="http://www.w3.org/1999/02/22-rdf-syntax-ns#"
   xmlns:svg="http://www.w3.org/2000/svg"
   xmlns="http://www.w3.org/2000/svg"
   xmlns:xlink="http://www.w3.org/1999/xlink"
   xmlns:sodipodi="http://sodipodi.sourceforge.net/DTD/sodipodi-0.dtd"
   xmlns:inkscape="http://www.inkscape.org/namespaces/inkscape"
   width="431.51587"
   height="286.46341"
   id="svg2347"
   sodipodi:version="0.32"
   inkscape:version="0.45.1"
   sodipodi:docbase="/Users/thomasmoenicke/kdab/Thomas/kleopatra"
   sodipodi:docname="kleopatra_icon.svg"
   inkscape:output_extension="org.inkscape.output.svg.inkscape"
   inkscape:export-filename="/Users/thomasmoenicke/kdab/Thomas/kleopatra/pyramide_kleo_2.png"
   inkscape:export-xdpi="90"
   inkscape:export-ydpi="90"
   version="1.0">
  <defs
     id="defs2349">
    <linearGradient
       id="linearGradient3966">
      <stop
         id="stop3968"
         offset="0"
         style="stop-color:#ffffff;stop-opacity:1;" />
      <stop
         id="stop3970"
         offset="1"
         style="stop-color:#ffffff;stop-opacity:0.5714286;" />
    </linearGradient>
    <linearGradient
       id="linearGradient3914">
      <stop
         id="stop3916"
         offset="0"
         style="stop-color:#ffffff;stop-opacity:1;" />
      <stop
         id="stop3918"
         offset="1"
         style="stop-color:#ebebeb;stop-opacity:1;" />
    </linearGradient>
    <linearGradient
       id="linearGradient3331">
      <stop
         id="stop3333"
         offset="0"
         style="stop-color:#760000;stop-opacity:1;" />
      <stop
         id="stop3335"
         offset="1"
         style="stop-color:#b90505;stop-opacity:1;" />
    </linearGradient>
    <filter
       inkscape:collect="always"
       id="filter3581">
      <feGaussianBlur
         inkscape:collect="always"
         stdDeviation="6.2940002"
         id="feGaussianBlur3583" />
    </filter>
    <linearGradient
       id="linearGradient3345">
      <stop
         style="stop-color:#e2e2e2;stop-opacity:0.82462686;"
         offset="0"
         id="stop3347" />
      <stop
         style="stop-color:#e2e2e2;stop-opacity:0.18283582;"
         offset="1"
         id="stop3349" />
    </linearGradient>
    <linearGradient
       id="linearGradient3248">
      <stop
         id="stop3250"
         offset="0"
         style="stop-color:#ffffff;stop-opacity:1;" />
      <stop
         id="stop3252"
         offset="1"
         style="stop-color:#000db1;stop-opacity:0;" />
    </linearGradient>
    <linearGradient
       id="linearGradient3419">
      <stop
         style="stop-color:#c8bfff;stop-opacity:1;"
         offset="0"
         id="stop3421" />
      <stop
         style="stop-color:#bababa;stop-opacity:0;"
         offset="1"
         id="stop3423" />
    </linearGradient>
    <linearGradient
       id="linearGradient3456">
      <stop
         style="stop-color:#9ba7e9;stop-opacity:1;"
         offset="0"
         id="stop3458" />
      <stop
         style="stop-color:#ffffff;stop-opacity:1;"
         offset="1"
         id="stop3460" />
    </linearGradient>
    <linearGradient
       id="linearGradient3450">
      <stop
         id="stop3452"
         offset="0"
         style="stop-color:#7676c4;stop-opacity:1;" />
      <stop
         id="stop3454"
         offset="1"
         style="stop-color:#ffffff;stop-opacity:1;" />
    </linearGradient>
    <linearGradient
       id="linearGradient3351"
       gradientTransform="matrix(1.2965262,0,0,0.7712918,-104.49033,87.927002)"
       x1="139.22264"
       y1="535.672"
       x2="348.73407"
       y2="535.672"
       gradientUnits="userSpaceOnUse">
      <stop
         style="stop-color:#ffffff;stop-opacity:1;"
         offset="0"
         id="stop3353" />
      <stop
         style="stop-color:#e3e3e3;stop-opacity:0;"
         offset="1"
         id="stop3355" />
    </linearGradient>
    <linearGradient
       inkscape:collect="always"
       xlink:href="#linearGradient3456"
       id="linearGradient3357"
       x1="11.701612"
       y1="327.79111"
       x2="107.70275"
       y2="530.94836"
       gradientUnits="userSpaceOnUse"
       gradientTransform="translate(204.78102,57.001083)" />
    <filter
       inkscape:collect="always"
       id="filter3436">
      <feGaussianBlur
         inkscape:collect="always"
         stdDeviation="3.6915"
         id="feGaussianBlur3438" />
    </filter>
    <linearGradient
       inkscape:collect="always"
       xlink:href="#linearGradient3450"
       id="linearGradient3448"
       x1="507.91718"
       y1="562.54816"
       x2="376.94458"
       y2="432.23849"
       gradientUnits="userSpaceOnUse" />
    <linearGradient
       inkscape:collect="always"
       xlink:href="#linearGradient3331"
       id="linearGradient3550"
       gradientUnits="userSpaceOnUse"
       gradientTransform="translate(-104.49033,87.927002)"
       x1="188.9812"
       y1="369.99817"
       x2="265.72412"
       y2="447.36133" />
    <linearGradient
       inkscape:collect="always"
       xlink:href="#linearGradient3351"
       id="linearGradient3552"
       gradientUnits="userSpaceOnUse"
       gradientTransform="matrix(1.2965262,0,0,0.7712918,-104.49033,87.927002)"
       x1="139.22264"
       y1="535.672"
       x2="348.73407"
       y2="535.672" />
    <linearGradient
       inkscape:collect="always"
       xlink:href="#linearGradient3248"
       id="linearGradient3554"
       gradientUnits="userSpaceOnUse"
       gradientTransform="matrix(0.9663185,-0.2573489,0.1524628,0.5724822,-134.20077,328.13946)"
       x1="213.29019"
       y1="395.40402"
       x2="357.13394"
       y2="395.40402" />
    <linearGradient
       inkscape:collect="always"
       xlink:href="#linearGradient3248"
       id="linearGradient3556"
       gradientUnits="userSpaceOnUse"
       gradientTransform="matrix(1.16249,-0.3095931,0.2228451,0.8367603,-230.73689,237.24204)"
       x1="213.29019"
       y1="395.40402"
       x2="357.13394"
       y2="395.40402" />
    <linearGradient
       inkscape:collect="always"
       xlink:href="#linearGradient3419"
       id="linearGradient3558"
       gradientUnits="userSpaceOnUse"
       gradientTransform="translate(-104.49033,87.927002)"
       x1="375.38034"
       y1="517.2124"
       x2="224.40013"
       y2="473.27078" />
    <linearGradient
       inkscape:collect="always"
       xlink:href="#linearGradient3450"
       id="linearGradient3576"
       gradientUnits="userSpaceOnUse"
       x1="507.91718"
       y1="562.54816"
       x2="376.94458"
       y2="432.23849" />
    <linearGradient
       inkscape:collect="always"
       xlink:href="#linearGradient3456"
       id="linearGradient3578"
       gradientUnits="userSpaceOnUse"
       gradientTransform="translate(204.78102,57.001083)"
       x1="11.701612"
       y1="364.15659"
       x2="119.54982"
       y2="519.44879" />
    <linearGradient
       y2="443.07645"
       x2="89.999992"
       y1="443.07645"
       x1="599.28564"
       gradientTransform="matrix(0.3211781,0,0,10.899515,65.022534,-4228.3848)"
       gradientUnits="userSpaceOnUse"
       id="linearGradient3374"
       xlink:href="#linearGradient3376"
       inkscape:collect="always" />
    <linearGradient
       id="linearGradient3159">
      <stop
         id="stop3161"
         offset="0"
         style="stop-color:#484848;stop-opacity:1;" />
      <stop
         style="stop-color:#b3b3b3;stop-opacity:1;"
         offset="0.01"
         id="stop3171" />
      <stop
         style="stop-color:#eee9e9;stop-opacity:1;"
         offset="0.95999998"
         id="stop3167" />
      <stop
         id="stop3163"
         offset="1"
         style="stop-color:#ffffff;stop-opacity:1;" />
    </linearGradient>
    <linearGradient
       id="linearGradient3376">
      <stop
         id="stop3382"
         offset="0"
         style="stop-color:#ffffff;stop-opacity:0.75510204;" />
      <stop
         style="stop-color:#ffffff;stop-opacity:0.45918366;"
         offset="0.5151515"
         id="stop3395" />
      <stop
         style="stop-color:#ffffff;stop-opacity:0;"
         offset="1"
         id="stop3384" />
    </linearGradient>
    <filter
       inkscape:collect="always"
       x="-0.1625842"
       width="1.3251684"
       y="-0.57529795"
       height="2.1505959"
       id="filter3626">
      <feGaussianBlur
         inkscape:collect="always"
         stdDeviation="17.806841"
         id="feGaussianBlur3628" />
    </filter>
    <filter
       inkscape:collect="always"
       x="-0.036311872"
       width="1.0726237"
       y="-0.50317872"
       height="2.0063574"
       id="filter3696">
      <feGaussianBlur
         inkscape:collect="always"
         stdDeviation="33.416642"
         id="feGaussianBlur3698" />
    </filter>
    <linearGradient
       inkscape:collect="always"
       xlink:href="#linearGradient3159"
       id="linearGradient3557"
       gradientUnits="userSpaceOnUse"
       gradientTransform="matrix(0.5732306,5.388979e-2,0,20.176602,14.067287,-7556.7028)"
       x1="599.28564"
       y1="443.07645"
       x2="89.999992"
       y2="443.07645" />
    <linearGradient
       inkscape:collect="always"
       xlink:href="#linearGradient3966"
       id="linearGradient3559"
       gradientUnits="userSpaceOnUse"
       gradientTransform="matrix(1.0078075,0,0,1.0463677,-0.2114546,-63.607227)"
       x1="201.52544"
       y1="998.23566"
       x2="201.52545"
       y2="940.63928" />
    <linearGradient
       inkscape:collect="always"
       xlink:href="#linearGradient3159"
       id="linearGradient3561"
       gradientUnits="userSpaceOnUse"
       gradientTransform="matrix(0.5732306,5.3889799e-2,0,20.176602,14.503737,-8472.5398)"
       x1="599.28564"
       y1="443.07645"
       x2="89.999992"
       y2="443.07645" />
    <linearGradient
       inkscape:collect="always"
       xlink:href="#linearGradient3376"
       id="linearGradient3563"
       gradientUnits="userSpaceOnUse"
       gradientTransform="matrix(1.7847748,0.1677879,0,1.8511468,-103.37509,-654.88147)"
       x1="100.65211"
       y1="410.45676"
       x2="284.03625"
       y2="614.11694" />
  </defs>
  <sodipodi:namedview
     id="base"
     pagecolor="#ffffff"
     bordercolor="#666666"
     borderopacity="1.0"
     gridtolerance="10000"
     guidetolerance="10"
     objecttolerance="10"
     inkscape:pageopacity="0.0"
     inkscape:pageshadow="2"
     inkscape:zoom="0.70710678"
     inkscape:cx="488.12183"
     inkscape:cy="238.09246"
     inkscape:document-units="px"
     inkscape:current-layer="layer1"
     showguides="true"
     inkscape:guide-bbox="true"
     inkscape:window-width="1280"
     inkscape:window-height="680"
     inkscape:window-x="0"
     inkscape:window-y="0" />
  <metadata
     id="metadata2352">
    <rdf:RDF>
      <cc:Work
         rdf:about="">
        <dc:format>image/svg+xml</dc:format>
        <dc:type
           rdf:resource="http://purl.org/dc/dcmitype/StillImage" />
      </cc:Work>
    </rdf:RDF>
  </metadata>
  <g
     inkscape:label="Layer 1"
     inkscape:groupmode="layer"
     id="layer1"
     transform="translate(-185.85384,-703.0532)">
    <rect
       style="opacity:0.16901407;fill:#000000;fill-opacity:1;stroke:none;stroke-opacity:1;filter:url(#filter3696)"
       id="rect3700"
       width="400"
       height="159.3866"
       x="2401.1514"
       y="3259.7598"
       ry="0"
       transform="matrix(0.4839276,0.1647233,-0.3018213,0.4087537,245.68019,-875.37898)" />
    <g
       id="g3560"
       style="opacity:0.80281695"
       transform="matrix(0.9213381,0,0,0.9213381,90.79845,352.57264)">
      <path
         id="path3359"
         d="M 371.54724,403.96234 L 177.26599,619.68109 L 453.67224,660.39984 L 453.32849,659.30609 L 562.82849,582.55609 L 371.57849,403.96234 L 374.67224,413.71234 L 371.54724,403.96234 z "
         style="fill:#8f8f8f;fill-opacity:1;filter:url(#filter3436)" />
      <path
         sodipodi:nodetypes="cccc"
         id="path2358"
         d="M 371.54657,400.65408 L 560.79236,577.35416 L 451.78098,653.73147 L 371.54657,400.65408 z "
         style="fill:url(#linearGradient3448);fill-opacity:1" />
      <path
         sodipodi:nodetypes="cccc"
         id="rect2355"
         d="M 371.51123,400.65407 L 452.79325,654.39541 L 179.26153,614.10778 L 371.51123,400.65407 z "
         style="fill:#ffffff;fill-opacity:1" />
      <path
         sodipodi:nodetypes="cczcc"
         id="path3349"
         d="M 371.56674,400.43469 L 419.41599,549.72304 C 419.41599,549.72304 377.63816,533.82755 317.9953,550.07755 C 258.35245,566.32755 177.28103,616.14898 177.28103,616.14898 L 371.56674,400.43469 z "
         style="fill:url(#linearGradient3357);fill-opacity:1" />
    </g>
    <g
       id="g3566"
       transform="matrix(0.8067761,0,0,0.8067761,42.839874,432.80862)"
       style="opacity:0.84506998">
      <path
         id="path3568"
         d="M 371.54724,403.96234 L 177.26599,619.68109 L 453.67224,660.39984 L 453.32849,659.30609 L 562.82849,582.55609 L 371.57849,403.96234 L 374.67224,413.71234 L 371.54724,403.96234 z "
         style="fill:#8f8f8f;fill-opacity:1;filter:url(#filter3436)" />
      <path
         sodipodi:nodetypes="cccc"
         id="path3570"
         d="M 371.54657,400.65408 L 560.79236,577.35416 L 451.78098,653.73147 L 371.54657,400.65408 z "
         style="fill:url(#linearGradient3576);fill-opacity:1" />
      <path
         sodipodi:nodetypes="cccc"
         id="path3572"
         d="M 371.51123,400.65407 L 452.79325,654.39541 L 179.26153,614.10778 L 371.51123,400.65407 z "
         style="fill:#ffffff;fill-opacity:1" />
      <path
         sodipodi:nodetypes="cczcc"
         id="path3574"
         d="M 371.56674,400.43469 L 419.41599,549.72304 C 419.41599,549.72304 377.63816,533.82755 317.9953,550.07755 C 258.35245,566.32755 177.28103,616.14898 177.28103,616.14898 L 371.56674,400.43469 z "
         style="fill:url(#linearGradient3578);fill-opacity:1" />
    </g>
    <g
       id="g3540"
       transform="matrix(1.0172756,0,0,1.0172756,214.37648,295.70994)">
      <path
         sodipodi:nodetypes="cccscccccscccscc"
         id="path3163"
         d="M 211.54092,400.427 C 200.51554,400.37551 188.85896,401.81595 176.75967,405.33325 C 163.63404,409.13656 153.9707,413.33549 147.60342,416.927 C 115.24176,433.9014 87.505139,471.52709 80.384669,504.45825 C 67.521979,563.94636 86.759679,621.20826 86.759669,621.20825 L 87.853419,620.8645 L 129.07217,633.8645 C 129.07217,633.8645 105.92155,610.38808 102.97842,551.14575 C 104.14562,537.70012 106.11431,524.81474 108.97842,512.802 C 125.77147,515.6552 151.75786,519.39801 178.32217,520.64575 C 223.06437,522.74731 269.22842,517.70825 269.22842,517.70825 C 286.7623,586.39582 240.38467,642.3645 240.38467,642.3645 L 321.60609,624.4207 C 321.60609,624.42071 367.30865,573.92831 339.13467,486.64575 C 324.35002,440.84312 277.17981,410.66417 246.25967,405.427 C 235.71344,402.46928 224.03951,400.48537 211.54092,400.427 z "
         style="fill:url(#linearGradient3550);fill-opacity:1;fill-rule:nonzero;stroke:none;stroke-width:1;stroke-linejoin:miter;stroke-miterlimit:4;stroke-opacity:1" />
      <path
         id="path3539"
         d="M 111.26194,516.55406 C 108.39783,528.5668 106.42914,541.45217 105.26194,554.89781 C 108.20507,614.14021 131.35569,637.61661 131.35569,637.61661 L 119.54319,633.89781 C 136.47836,660.39717 162.67856,681.82347 198.48069,682.02277 C 227.30992,682.18607 251.9094,669.32877 269.35569,646.11661 L 242.66819,646.11661 C 242.66819,646.11661 289.04587,590.14787 271.51194,521.46031 C 271.51194,521.46031 225.34788,526.49936 180.60569,524.39781 C 154.04136,523.15007 128.05499,519.40725 111.26194,516.55406 z "
         style="fill:#9e9e9e;fill-opacity:1;fill-rule:nonzero;stroke:none;stroke-width:1;stroke-linejoin:miter;stroke-miterlimit:4;stroke-opacity:1;filter:url(#filter3581)" />
      <path
         sodipodi:nodetypes="czczcczc"
         id="rect3337"
         d="M 76.512399,536.87747 C 76.512399,536.87747 88.723959,481.00346 201.93825,492.43203 C 313.73847,503.71786 286.22396,420.28917 286.22396,420.28917 C 286.22396,420.28917 313.72396,436.89632 329.08111,462.78918 C 344.43825,488.68203 347.65253,523.8606 347.65253,523.8606 L 77.818409,581.88362 C 77.818409,581.88362 76.637159,573.60646 76.162679,552.53356 C 75.688239,531.46213 76.512399,536.87747 76.512399,536.87747 z "
         style="opacity:0.725;fill:url(#linearGradient3552);fill-opacity:1;fill-rule:nonzero;stroke:none;stroke-width:10;stroke-linejoin:miter;stroke-miterlimit:4;stroke-opacity:1" />
      <path
         id="path3447"
         d="M 190.35519,447.6517 C 229.96585,437.10264 267.01235,446.91101 273.03646,469.53092 C 275.80589,479.92984 271.52936,491.23106 262.26417,501.43902 C 263.98811,496.2087 264.2987,490.94686 262.9585,485.91454 C 256.93439,463.29463 219.89286,453.5049 180.2822,464.05397 C 158.89435,469.74996 141.10844,480.21895 130.21794,492.20661 C 136.26262,473.93976 159.57801,455.84825 190.35519,447.6517 z "
         style="opacity:0.74500002;fill:url(#linearGradient3554);fill-opacity:1;fill-rule:nonzero;stroke:none;stroke-width:10;stroke-linejoin:miter;stroke-miterlimit:4;stroke-dasharray:none;stroke-opacity:1" />
      <path
         id="path3460"
         d="M 172.95252,430.75229 C 220.6045,418.06166 266.43716,434.61258 275.24222,467.67465 C 279.29011,482.87408 274.799,498.92372 264.15072,513.0733 C 265.91777,505.62894 265.95832,498.04815 263.99943,490.69274 C 255.19438,457.63067 209.36898,441.107 161.71699,453.79763 C 135.98722,460.64995 114.95928,474.62856 102.44236,491.2444 C 108.64286,465.24658 135.92727,440.61281 172.95252,430.75229 z "
         style="opacity:0.74500002;fill:url(#linearGradient3556);fill-opacity:1;fill-rule:nonzero;stroke:none;stroke-width:10;stroke-linejoin:miter;stroke-miterlimit:4;stroke-dasharray:none;stroke-opacity:1" />
      <path
         id="path3340"
         d="M 109.09945,512.84475 C 106.23534,524.85749 104.26665,537.74286 103.09945,551.1885 C 106.04258,610.4309 129.1932,633.9073 129.1932,633.9073 L 117.3807,630.1885 C 134.31587,656.68786 160.51607,678.11416 196.3182,678.31346 C 225.14743,678.47676 249.74691,665.61946 267.1932,642.4073 L 240.5057,642.4073 C 240.5057,642.4073 286.88338,586.43856 269.34945,517.751 C 269.34945,517.751 223.18539,522.79005 178.4432,520.6885 C 151.87887,519.44076 125.8925,515.69794 109.09945,512.84475 z "
         style="fill:#ffffff;fill-opacity:1;fill-rule:nonzero;stroke:none;stroke-width:1;stroke-linejoin:miter;stroke-miterlimit:4;stroke-opacity:1" />
      <path
         sodipodi:nodetypes="czczczczc"
         id="rect3416"
         d="M 104.05263,539.15647 C 104.05263,539.15647 164.03217,561.71775 211.17503,561.71775 C 258.31789,561.71775 273.17863,560.87476 273.17863,560.87476 C 273.17863,560.87476 268.50668,588.56293 263.58219,601.09882 C 258.57164,613.85378 241.8639,641.57544 241.8639,641.57544 C 241.8639,641.57544 249.70732,594.57489 202.56446,594.57489 C 155.4216,594.57489 110.87116,598.8965 110.87116,598.8965 C 110.87116,598.8965 107.27929,587.03374 104.55771,570.28917 C 101.84292,553.5864 104.05263,539.15647 104.05263,539.15647 z "
         style="opacity:0.725;fill:url(#linearGradient3558);fill-opacity:1;fill-rule:nonzero;stroke:none;stroke-width:10;stroke-linejoin:miter;stroke-miterlimit:4;stroke-opacity:1" />
      <path
         sodipodi:nodetypes="csssc"
         id="path3428"
         d="M 234.33175,562.69368 C 234.33175,585.55545 200.58645,606.25279 176.60947,606.25279 C 152.63249,606.25279 131.74435,556.26974 131.74435,533.40797 C 131.74435,510.54619 152.63249,503.42028 176.60947,503.42028 C 200.58645,503.42028 234.33175,539.8319 234.33175,562.69368 z "
         style="opacity:0.45;fill:#ffffff;fill-opacity:1;fill-rule:nonzero;stroke:none;stroke-width:10;stroke-linejoin:miter;stroke-miterlimit:4;stroke-opacity:1" />
    </g>
  </g>
</svg>
