/* XPM */
static char * cancel_xpm[] = {
"26 26 102 2",
"  	c None",
". 	c #303030",
"+ 	c #DFDDDD",
"@ 	c #DBD9D9",
"# 	c #D8D6D6",
"$ 	c #D4D2D2",
"% 	c #D1CFCF",
"& 	c #000000",
"* 	c #E2E0E0",
"= 	c #DEDCDC",
"- 	c #D7D5D5",
"; 	c #D0CECE",
"> 	c #CDCBCB",
", 	c #C9C7C7",
"' 	c #C6C4C4",
") 	c #E5E2E2",
"! 	c #E1DFDF",
"~ 	c #DAD8D8",
"{ 	c #D3D1D1",
"] 	c #CCCACA",
"^ 	c #C5C3C3",
"/ 	c #C2C0C0",
"( 	c #BEBCBC",
"_ 	c #BBB9B9",
": 	c #E4E2E2",
"< 	c #E0DEDE",
"[ 	c #DDDBDB",
"} 	c #D9D7D7",
"| 	c #D6D4D4",
"1 	c #D2D0D0",
"2 	c #CFCDCD",
"3 	c #CBC9C9",
"4 	c #C8C6C6",
"5 	c #C4C2C2",
"6 	c #C1BFBF",
"7 	c #BDBBBB",
"8 	c #BAB8B8",
"9 	c #B6B4B4",
"0 	c #B3B1B1",
"a 	c #DCDADA",
"b 	c #D5D3D3",
"c 	c #CECCCC",
"d 	c #C7C5C5",
"e 	c #C0BEBE",
"f 	c #B9B7B7",
"g 	c #B2B0B0",
"h 	c #AFADAD",
"i 	c #CAC8C8",
"j 	c #C3C1C1",
"k 	c #BCBABA",
"l 	c #B5B3B3",
"m 	c #AEACAC",
"n 	c #ABA9A9",
"o 	c #A7A5A5",
"p 	c #BFBDBD",
"q 	c #AAA8A8",
"r 	c #A3A1A1",
"s 	c #ADABAB",
"t 	c #A6A4A4",
"u 	c #9F9D9D",
"v 	c #9C9A9A",
"w 	c #A9A7A7",
"x 	c #A2A0A0",
"y 	c #9B9999",
"z 	c #989696",
"A 	c #ACAAAA",
"B 	c #A5A3A3",
"C 	c #9E9C9C",
"D 	c #979595",
"E 	c #949292",
"F 	c #A4A2A2",
"G 	c #A19F9F",
"H 	c #9D9B9B",
"I 	c #9A9898",
"J 	c #969494",
"K 	c #939191",
"L 	c #8F8D8D",
"M 	c #999797",
"N 	c #929090",
"O 	c #8B8989",
"P 	c #B8B6B6",
"Q 	c #959393",
"R 	c #8E8C8C",
"S 	c #B4B2B2",
"T 	c #B1AFAF",
"U 	c #918F8F",
"V 	c #8A8888",
"W 	c #878585",
"X 	c #B7B5B5",
"Y 	c #B0AEAE",
"Z 	c #8D8B8B",
"` 	c #868484",
" .	c #908E8E",
"..	c #898787",
"+.	c #828080",
"@.	c #A8A6A6",
"#.	c #8C8A8A",
"$.	c #888686",
"%.	c #858383",
"&.	c #817F7F",
"*.	c #A09E9E",
"=.	c #848282",
"                                                    ",
"                                                    ",
"                      . . . . .                     ",
"                  . . + @ # $ % . .                 ",
"              & & * = @ - $ ; > , ' & &             ",
"            & ) ! = ~ - { ; ] , ^ / ( _ &           ",
"          & : < [ } | 1 2 3 4 5 6 7 8 9 0 &         ",
"          & < a } b 1 c 3 d 5 e 7 f 9 g h &         ",
"        & + a # b % c i d j e k f l g m n o &       ",
"        . @ # $ % & & & j p k & & & m q o r &       ",
"      . @ - $ ; > , & & & _ & & & s q t r u v .     ",
"      . - { ; ] , ^ / & & & & & s w t x u y z .     ",
"      . 1 2 3 4 5 6 7 8 & & & A w B x C y D E .     ",
"      . c 3 d 5 e 7 f & & & & & F G H I J K L .     ",
"      . i d j e k f & & & n & & & H M J N L O .     ",
"        . j p k P & & & q o r & & & Q N R O &       ",
"        & p _ P S T s q t r u v z Q U R V W &       ",
"          & X S Y s w t x u y z E U Z V ` &         ",
"          & 0 Y A w B x C y D E  .Z ..` +.&         ",
"            & n @.F G H I J K L #.$.%.&.&           ",
"              & & *.H M J N L O $.=.& &             ",
"                  . . Q N R O W . .                 ",
"                      . . . . .                     ",
"                                                    ",
"                                                    ",
"                                                    "};
