/* XPM */
static char * delete_xpm[] = {
"26 26 99 2",
"  	c None",
". 	c #B40800",
"+ 	c #D50400",
"@ 	c #C50018",
"# 	c #EE7541",
"$ 	c #FF5918",
"% 	c #D51800",
"& 	c #941410",
"* 	c #B4B2B4",
"= 	c #5A2420",
"- 	c #EE0000",
"; 	c #DE9520",
"> 	c #EE7510",
", 	c #F60000",
"' 	c #730008",
") 	c #A4A5A4",
"! 	c #ACAEAC",
"~ 	c #BDBABD",
"{ 	c #BDBEBD",
"] 	c #B40008",
"^ 	c #830018",
"/ 	c #C5C2C5",
"( 	c #B4B6B4",
"_ 	c #CD0000",
": 	c #B40C00",
"< 	c #F6854A",
"[ 	c #942018",
"} 	c #9C9D9C",
"| 	c #9C0C18",
"1 	c #ACAAAC",
"2 	c #949594",
"3 	c #C50808",
"4 	c #DE2C18",
"5 	c #622400",
"6 	c #9C999C",
"7 	c #A40C08",
"8 	c #831020",
"9 	c #8B898B",
"0 	c #737573",
"a 	c #CD1010",
"b 	c #FF0000",
"c 	c #621418",
"d 	c #9C0800",
"e 	c #A4A1A4",
"f 	c #7B7D7B",
"g 	c #E60018",
"h 	c #FF0C20",
"i 	c #830800",
"j 	c #CD0018",
"k 	c #9C0818",
"l 	c #C50400",
"m 	c #FF0800",
"n 	c #830C00",
"o 	c #FF0020",
"p 	c #9C1000",
"q 	c #DE0000",
"r 	c #9C0418",
"s 	c #949194",
"t 	c #C50810",
"u 	c #EE0010",
"v 	c #6A1000",
"w 	c #838583",
"x 	c #940000",
"y 	c #838183",
"z 	c #8B8D8B",
"A 	c #FF0808",
"B 	c #FF0008",
"C 	c #940808",
"D 	c #BD0408",
"E 	c #FF5939",
"F 	c #AC0000",
"G 	c #7B797B",
"H 	c #FF0018",
"I 	c #A42429",
"J 	c #E60800",
"K 	c #F68939",
"L 	c #B40400",
"M 	c #7B1418",
"N 	c #FF0010",
"O 	c #BD3431",
"P 	c #DE8120",
"Q 	c #FF2800",
"R 	c #A40800",
"S 	c #E61000",
"T 	c #A43831",
"U 	c #CD8D41",
"V 	c #FF7531",
"W 	c #7B1018",
"X 	c #BD0429",
"Y 	c #BD4818",
"Z 	c #E60000",
"` 	c #940818",
" .	c #C5384A",
"..	c #E60008",
"+.	c #8B0800",
"@.	c #737173",
"#.	c #EE0441",
"$.	c #A40008",
"%.	c #6A6D6A",
"                                                    ",
"                                                    ",
"  . + +                                             ",
"  @ # $ % & *                     =                 ",
"    - ; > , ' ) ! ~ {         ] ^ / { { {           ",
"    ( _ : < , [ } ! ~ {     @ | { { ( ( ( ~         ",
"    ( 1 2 3 4 - 5 6 ! ~ { 7 8 { ~ * 1 1 ! (         ",
"    ~ ! } 9 0 a b c 6 ! + d { ~ ! ) } e ! (         ",
"      ~ ! } 9 f g h i j k ~ ~ ! e 6 6 ) * ~         ",
"      { ~ * ) 2 9 l m n 6 ) 1 e 2 2 e ! ~ {         ",
"          { ( ! _ o p q r s 2 2 2 e ! ~ { /         ",
"              t u v 2 w o x y z } ! ~ {             ",
"            . A x * } w 0 B C z e * { /             ",
"          D E F ~ 1 2 w G G H I } ! ~ {             ",
"        J K L M ! } 9 w 9 s 2 N d e ! ~ {           ",
"      O P Q R ! 6 9 y 9 6 ) 1 e S 2 e ! ~ {         ",
"    T U V F W 6 w f y 2 1     ! e X 6 ) * { /       ",
"    Y $ Z ` 6 w 0 G 9 e (     ~ ! e 6 } 1 ( {       ",
"     ...+.} w 0 @.f 2 !         ~ ! #.e 1 ( {       ",
"      $.) z G %.0 9 ) (         { ~ * 1 1 * ~ {     ",
"      ( e 9 0 0 w } *             { ~ ( * * ( ~     ",
"      ( ) s w 9 6 !                 { ~ ( ( ( ~     ",
"      ~ * e } e !                       ~ ~ ~       ",
"        ~ * ! *                                     ",
"                                                    ",
"                                                    "};
