/* XPM */
static char * dlall_xpm[] = {
"27 27 23 1",
" 	c None",
".	c #000000",
"+	c #B7B7B7",
"@	c #BFBFBF",
"#	c #D1D1D1",
"$	c #C8C8C8",
"%	c #605F5F",
"&	c #DBDBDB",
"*	c #EDEDED",
"=	c #E4E4E4",
"-	c #F6F6F6",
";	c #241E04",
">	c #FFAD32",
",	c #FFCC33",
"'	c #FFD449",
")	c #FF8B32",
"!	c #FF9532",
"~	c #FFDC32",
"{	c #FF7332",
"]	c #040204",
"^	c #0C0A04",
"/	c #040604",
"(	c #141604",
"                           ",
"       ..    ..    ..      ",
"      .+..  .+..  .+..     ",
"     .@@+...@@+...@@+..    ",
"    .#$%%+.#$%%+.#$%%+..   ",
"   .&&%$%.&&%$%.&&%$%%+..  ",
"  .*=&&%.*=&&%.*=&&%$@@+.  ",
" .-**%&.-**%&.-**%&&%$@.   ",
" ..-**=..-**=..-**=&&#.    ",
"  ..-**=..-**=..-**=&.     ",
"   ..-**...-**...-**.      ",
"    ..-.  ..-.  ..-.       ",
"      ;    ..    ..        ",
"      ;;;;       ;;;;      ",
"     ;>,');     ;>,');     ",
"     ;>',);     ;>',);     ",
"     ;>,'!;     ;>,'!;     ",
"     ;>',!;     ;>',!;     ",
"     ;>,');     ;>,');     ",
"     ;>',!;     ;>',!;     ",
"   ;;;~,,{;;; ;;;~,,{;;;   ",
"  ;~~~,',,{{{;~~~,',,{{{;  ",
"   ;~,,,'',{] ;~,,,'',{]   ",
"    ^~,',,{]   ^~,',,{]    ",
"     />,,>(     />,,>(     ",
"      ^>>;       ^>>;      ",
"       ;;         ;;       "};
