/* XPM */
static char * filter_xpm[] = {
"22 22 106 2",
"  	c None",
". 	c #000000",
"+ 	c #B7B7B7",
"@ 	c #BFBFBF",
"# 	c #605F5F",
"$ 	c #C8C8C8",
"% 	c #D1D1D1",
"& 	c #DBDBDB",
"* 	c #E4E4E4",
"= 	c #0A0A0A",
"- 	c #2E2CB3",
"; 	c #2F33B6",
"> 	c #303BBA",
", 	c #3142BD",
"' 	c #324AC1",
") 	c #3252C5",
"! 	c #3359C8",
"~ 	c #3460CC",
"{ 	c #3567D0",
"] 	c #366FD4",
"^ 	c #3777D7",
"/ 	c #377EDB",
"( 	c #3886DF",
"_ 	c #398DE2",
": 	c #3994E6",
"< 	c #3A9CEA",
"[ 	c #2F31B4",
"} 	c #3039B8",
"| 	c #313FBC",
"1 	c #3247C0",
"2 	c #324EC3",
"3 	c #3356C8",
"4 	c #345ECB",
"5 	c #3465CE",
"6 	c #356DD2",
"7 	c #3673D6",
"8 	c #377BDA",
"9 	c #3883DD",
"0 	c #398AE1",
"a 	c #3992E5",
"b 	c #3A99E8",
"c 	c #3A9FEB",
"d 	c #2F2EB4",
"e 	c #3035B7",
"f 	c #313DBB",
"g 	c #3145BE",
"h 	c #324CC2",
"i 	c #3253C6",
"j 	c #335AC9",
"k 	c #3462CE",
"l 	c #356AD1",
"m 	c #3671D5",
"n 	c #3779D8",
"o 	c #3880DC",
"p 	c #3987E0",
"q 	c #398FE3",
"r 	c #3996E7",
"s 	c #3A9EEB",
"t 	c #303ABA",
"u 	c #3249C1",
"v 	c #3251C4",
"w 	c #3358C8",
"x 	c #3567CF",
"y 	c #366ED4",
"z 	c #3676D7",
"A 	c #377DDB",
"B 	c #3885DE",
"C 	c #3A9BE9",
"D 	c #3246C0",
"E 	c #3355C7",
"F 	c #335DCA",
"G 	c #3464CE",
"H 	c #356CD2",
"I 	c #3673D5",
"J 	c #377ADA",
"K 	c #3882DD",
"L 	c #3989E1",
"M 	c #3991E4",
"N 	c #3461CD",
"O 	c #3569D0",
"P 	c #3778D8",
"Q 	c #3880DB",
"R 	c #398EE3",
"S 	c #3A9DEA",
"T 	c #345FCC",
"U 	c #3566CF",
"V 	c #356DD3",
"W 	c #3675D6",
"X 	c #3884DE",
"Y 	c #398CE2",
"Z 	c #3993E6",
"` 	c #3A9AE9",
" .	c #356BD2",
"..	c #377AD9",
"+.	c #3881DC",
"@.	c #3990E4",
"#.	c #3A98E8",
"$.	c #3777D8",
"%.	c #387FDB",
"&.	c #3887DF",
"*.	c #3995E7",
"=.	c #3883DE",
"-.	c #398BE2",
";.	c #3993E5",
">.	c #3988E0",
",.	c #3A97E8",
"          . . . . . . . .                   ",
"          . + + + + + + .                   ",
"          . @ # # # . . . . . . . .         ",
"          . $ $ $ $ . + + + + + + .         ",
"          . % # # % . @ # # # @ @ .         ",
"          . & & & & . $ $ $ $ $ $ .         ",
"          . * # # * . % # # % # % .         ",
"    . . . . . . . . . . . . . = = = = = .   ",
"    . - - ; > , ' ) ! ~ { ] ^ / ( _ : < .   ",
"    . - [ } | 1 2 3 4 5 6 7 8 9 0 a b c .   ",
"    . d e f g h i j k l m n o p q r s c .   ",
"      . t , u v w ~ x y z A B _ : C c .     ",
"        . D 2 E F G H I J K L M b c .       ",
"          . i j N O m P Q p R r S .         ",
"            . T U V W A X Y Z ` .           ",
"              .  .I ..+.L @.#..             ",
"                . $.%.&._ *..               ",
"                  . =.-.;..                 ",
"                  . >.@.,..                 ",
"                  . _ : < .                 ",
"                  . a b c .                 ",
"                    . . .                   "};
