/* XPM */
static char * grpdlg_xpm[] = {
"26 26 24 1",
" 	c None",
".	c #101517",
"+	c #221714",
"@	c #EAC196",
"#	c #EAC23C",
"$	c #6BCAEF",
"%	c #6BABEF",
"&	c #EAA338",
"*	c #7289DC",
"=	c #A8732A",
"-	c #4B5C8E",
";	c #1C1C1C",
">	c #B8B8B8",
",	c #D1D1D1",
"'	c #CACACA",
")	c #A9A9A9",
"!	c #A4A4A4",
"~	c #101415",
"{	c #D3D3D3",
"]	c #959595",
"^	c #020202",
"/	c #090909",
"(	c #050505",
"_	c #131313",
"                          ",
"              ....        ",
"      ++++   .@@##.       ",
"     +$$%%+ .@@@#&&.      ",
"    +$$$%**+.@####&.      ",
"    +$%%%%*+.@#&&&&.      ",
"    +$%****+#.&&&&.       ",
"   +%+****+###....&.      ",
"  +%%%*****+@#####&..     ",
"  +$$%%%%%*++@@####&&.    ",
"  +%%$$%%%%**+#@@@&&&.    ",
"  +%%%%$$$***+####&&&.    ",
"  +%%%%%%%***+####&&&.    ",
"   +%%%%%%***+####&&=.    ",
"   +%%%%%%**-+#;;;;=..    ",
"   +%%%%%-*-++;>,');.     ",
"   +%%%%*--*+#;>',!;.     ",
"   +%%%%****+#;>,');~     ",
"   ++%%%***+;;;{''];;;    ",
"     ++**++;{{{','']]];   ",
"       ++   ;{''',,']^    ",
"             /{','']^     ",
"              (>''>_      ",
"               />>;       ",
"                ;;        ",
"                          "};
