/* XPM */
static char * newmsg_xpm[] = {
"26 26 27 1",
" 	c None",
".	c #000000",
"+	c #B7B7B7",
"@	c #BEBEBE",
"#	c #605F5F",
"$	c #C4C4C4",
"%	c #CBCBCB",
"&	c #D1D1D1",
"*	c #0F0D10",
"=	c #D8D8D8",
"-	c #070709",
";	c #3D4EA5",
">	c #010004",
",	c #DEDEDE",
"'	c #350000",
")	c #5677CA",
"!	c #6FA0EF",
"~	c #170801",
"{	c #E5E5E5",
"]	c #EBEBEB",
"^	c #F2F2F2",
"/	c #F8F8F8",
"(	c #170906",
"_	c #210000",
":	c #280003",
"<	c #150103",
"[	c #100202",
"                          ",
"                          ",
"                          ",
"   ........               ",
"  .++++++++.              ",
"  .@###@#@@.              ",
"  .$$$$$$$$.              ",
"  .%###%##%.              ",
"  .&&&&&&&&.          *   ",
"  .=#=##=#=.         -;>  ",
"  .,,,,,,,,.        ';)!~ ",
"  .{##{{{{{.       ~;)!~  ",
"  .]]]]]]]].     ~~;)!~   ",
"  .^#^^^^^^.    ~;;)!~    ",
"  .////////.   ~;;)!~     ",
"   ........   ~;;)!!.     ",
"             ~;;)!!.      ",
"            ~;;)!!.       ",
"           ~;;)!!.        ",
"           ~;)!!.         ",
"          ~;)!!.          ",
"         (;)!~.           ",
"         __!~             ",
"        :)<~              ",
"        [<                ",
"                          "};
