/* XPM */
static char * nextthr_xpm[] = {
"26 26 15 1",
" 	c None",
".	c #303030",
"+	c #FF0000",
"@	c #000000",
"#	c #FFFFFF",
"$	c #C40026",
"%	c #550000",
"&	c #F7F7F7",
"*	c #EFEFEF",
"=	c #E7E7E7",
"-	c #E0E0E0",
";	c #D8D8D8",
">	c #9E9C9C",
",	c #D0D0D0",
"'	c #C8C8C8",
"                          ",
"                          ",
"           .....          ",
"         ..+++++..        ",
"       @@++#++++++@@      ",
"      @@@+###@@+++$+@     ",
"     @+@#@+#+@#@+++$+@    ",
"     @+@##@++@##@+$+$@    ",
"    @++@###%+@###@$$+$@   ",
"   @@@@@&&&&@@&&&&@$+$@   ",
"  @****************@$$$.  ",
"  @=================@$$.  ",
"  @-----------------@$$.  ",
"  @;;;;;;;;;;;;;;;;>@$$.  ",
"  @>>>>>,,,,>>,,,,>@$$$.  ",
"   @@@@@>''>@@>''>@$$$@   ",
"    @++@>'>@$@>'>@$$$$@   ",
"     @+@>>@$$@>>@$$$$@    ",
"     @+@>@$+$@>@$$$$$@    ",
"      @@@$+$$@@$$$$$@     ",
"       @@$$$$$$$$$@@      ",
"         ..$$$$$..        ",
"           .....          ",
"                          ",
"                          ",
"                          "};
