/* XPM */
static char * refresh_xpm[] = {
"26 26 7 1",
" 	c None",
".	c #000000",
"+	c #FF7332",
"@	c #FFCC33",
"#	c #FFAD32",
"$	c #FFD449",
"%	c #FFDC32",
"                          ",
"                          ",
"                          ",
"               .......... ",
"               .+++++++.  ",
"               .+@#@#@.   ",
"       ..      .+#@#@#@.  ",
"      .##.     .#@#@#@#.  ",
"     .#@##.    .@#@#@#@.  ",
"    .#@#@@#.   .#@#@#@#@. ",
"    .@#@##.    .@.@#@#@$. ",
"    .#@#@.     .. .@#$$$. ",
"   .#@@@#.     .  .#$$@@. ",
"   .@@@@@.        .@@@@@. ",
"   .@@@@@.        .$@@@@. ",
"    .@@@@@.      .$@@@@.  ",
"    .@@@@@.      .$$@@$.  ",
"     .@@@%@.    .$$$%$.   ",
"     .@@%@%@....$$@%@$.   ",
"     .@%@%@%%%%@%@%@%$.   ",
"      .@%@%@%@%%@%@%$.    ",
"       .@%@%@%@@%$%$.     ",
"        ...%%%%%%...      ",
"           ......         ",
"                          ",
"                          "};
