/* XPM */
static char * remail_xpm[] = {
"28 28 27 1",
" 	c None",
".	c #000000",
"+	c #605F5F",
"@	c #BEBEBE",
"#	c #C5C5C5",
"$	c #CCCCCC",
"%	c #D3D3D3",
"&	c #DBDBDB",
"*	c #E2E2E2",
"=	c #E9E9E9",
"-	c #F0F0F0",
";	c #F7F7F7",
">	c #B7B7B7",
",	c #FFFFFF",
"'	c #241E04",
")	c #FFAD32",
"!	c #FFCC33",
"~	c #FFD449",
"{	c #FFA332",
"]	c #FFDC32",
"^	c #0C0A04",
"/	c #040604",
"(	c #FF7332",
"_	c #FF9532",
":	c #FF8B32",
"<	c #141604",
"[	c #040204",
"                            ",
"                            ",
"                            ",
"                            ",
" .............              ",
" .+@#$%&*=-;+.              ",
" .>++$%&*=++,.              ",
" .>@#++&++-;,.  ..'''       ",
" .>@#$%+*=-;,. .)))))''     ",
" .>@#++&++-;,. .!~!~!))'    ",
" .>++$%&*=++,. .~!~!~!))'   ",
" .+@#$%&*=-;+. .)~)~!~!))'  ",
" .............  ..')~!~!).  ",
"                   ')~!~)'  ",
"                    ')~!)'  ",
"          '         ')!~{'  ",
"         ']'        ')~!)'  ",
"        ^]]'       ')~!~{'  ",
"       /]!]'''''''')~!~){'  ",
"      ^)!!!])))))))~!~!{{'  ",
"     ')!~!~!~!~!~!~!~!))'   ",
"     ')!!~!!!~!~!~!~!{)'    ",
"      ')!~!(_:__::{_{''     ",
"       <(!(''''''''''       ",
"        [(('                ",
"         [('                ",
"          '                 ",
"                            "};
