/* XPM */
static char * reply_xpm[] = {
"28 28 24 1",
" 	c None",
".	c #000000",
"+	c #B7B7B7",
"@	c #BFBFBF",
"#	c #605F5F",
"$	c #C8C8C8",
"%	c #241E04",
"&	c #D1D1D1",
"*	c #FFAD32",
"=	c #DBDBDB",
"-	c #FFCC33",
";	c #FFD449",
">	c #E4E4E4",
",	c #EDEDED",
"'	c #F6F6F6",
")	c #FFA332",
"!	c #FFDC32",
"~	c #0C0A04",
"{	c #040604",
"]	c #FF7332",
"^	c #FF9532",
"/	c #FF8B32",
"(	c #141604",
"_	c #040204",
"                            ",
"                            ",
"                            ",
"                            ",
"    ........                ",
"    .++++++.                ",
"    .@###@@.                ",
"    .$$$$$$.    ..%%%       ",
"    .&##&#&.   .*****%%     ",
"    .======.   .-;-;-**%    ",
"    .>##>>>.   .;-;-;-**%   ",
"    .,,,,,,.   .*;*;-;-**%  ",
"    .''''''.    ..%*;-;-*.  ",
"    ........       %*;-;*%  ",
"                    %*;-*%  ",
"          %         %*-;)%  ",
"         %!%        %*;-*%  ",
"        ~!!%       %*;-;)%  ",
"       {!-!%%%%%%%%*;-;*)%  ",
"      ~*---!*******;-;-))%  ",
"     %*-;-;-;-;-;-;-;-**%   ",
"     %*--;---;-;-;-;-)*%    ",
"      %*-;-]^/^^//)^)%%     ",
"       (]-]%%%%%%%%%%       ",
"        _]]%                ",
"         _]%                ",
"          %                 ",
"                            "};
