/* XPM */
static char * save_xpm[] = {
"26 26 111 2",
"  	c None",
". 	c #3D3D3D",
"+ 	c #252525",
"@ 	c #4459AF",
"# 	c #0D0D0D",
"$ 	c #000000",
"% 	c #4861B6",
"& 	c #465DB3",
"* 	c #240A0A",
"= 	c #FFFFFF",
"- 	c #4D68BD",
"; 	c #4B65BA",
"> 	c #1F1F1F",
", 	c #333333",
"' 	c #516FC3",
") 	c #4F6CC0",
"! 	c #090909",
"~ 	c #272727",
"{ 	c #5677CA",
"] 	c #5473C7",
"^ 	c #5A7ED1",
"/ 	c #587BCE",
"( 	c #303030",
"_ 	c #3D4EA5",
": 	c #5F85D7",
"< 	c #5D82D4",
"[ 	c #5B7FD1",
"} 	c #597BCE",
"| 	c #4053AA",
"1 	c #3E50A7",
"2 	c #080808",
"3 	c #2F2F2F",
"4 	c #638DDE",
"5 	c #6189DB",
"6 	c #5F86D8",
"7 	c #5D83D5",
"8 	c #5B7FD2",
"9 	c #597CCF",
"0 	c #5779CC",
"a 	c #455BB1",
"b 	c #4357AE",
"c 	c #4154AB",
"d 	c #3F51A8",
"e 	c #282828",
"f 	c #040404",
"g 	c #6894E5",
"h 	c #6691E2",
"i 	c #648DDF",
"j 	c #628ADC",
"k 	c #5C80D3",
"l 	c #5A7DD0",
"m 	c #5879CD",
"n 	c #5676CA",
"o 	c #4962B7",
"p 	c #475FB4",
"q 	c #4358AE",
"r 	c #292929",
"s 	c #121212",
"t 	c #6C9BEB",
"u 	c #6A98E8",
"v 	c #6895E5",
"w 	c #1D1D1D",
"x 	c #C4C4C4",
"y 	c #BFBFBF",
"z 	c #587ACD",
"A 	c #4E69BE",
"B 	c #4C66BB",
"C 	c #4A63B8",
"D 	c #485FB5",
"E 	c #6F9FEF",
"F 	c #6D9CEC",
"G 	c #6B99E9",
"H 	c #393939",
"I 	c #CDCCCC",
"J 	c #919191",
"K 	c #5677CB",
"L 	c #5474C8",
"M 	c #5271C5",
"N 	c #506DC2",
"O 	c #4E6ABF",
"P 	c #4C67BC",
"Q 	c #262626",
"R 	c #131313",
"S 	c #191919",
"T 	c #D6D4D4",
"U 	c #6793E4",
"V 	c #5778CB",
"W 	c #5575C8",
"X 	c #5371C5",
"Y 	c #516EC2",
"Z 	c #212121",
"` 	c #DAD8D8",
" .	c #6C9AEA",
"..	c #C8C8C8",
"+.	c #5575C9",
"@.	c #D1D0D0",
"#.	c #5E83D6",
"$.	c #181818",
"%.	c #628BDC",
"&.	c #6087D9",
"*.	c #5E84D6",
"=.	c #6792E3",
"-.	c #658FE0",
";.	c #638BDD",
">.	c #323233",
",.	c #6B99EA",
"'.	c #6996E7",
").	c #1C1C1C",
"!.	c #6E9DED",
"~.	c #19191A",
"{.	c #111111",
"                                                    ",
"                                                    ",
"                        . .                         ",
"                      + @ # $ .                     ",
"                    . % & * = = . .                 ",
"                  . - ; > = = = = = . .             ",
"                , ' ) ! = = = = = = = = . .         ",
"              ~ { ] > = = = = = = = = = = = . .     ",
"            + ^ / ( = = = = = = = = = = = . _ _ . . ",
"          ~ : < [ } . . = = = = = = = = . | 1 _ _ 2 ",
"        3 4 5 6 7 8 9 0 . . = = = = = . a b c d e f ",
"      . g h i j $ $ k l m n . . = = . o p a q r s   ",
"    . t u v h w x y $ $ l z { ] . . A B C D e s     ",
"  . E E F G H I J x y y $ $ / K L M N O P Q R       ",
"  . E E E S T J U J x y y y $ $ V W X Y Z R         ",
"  $ $ E w ` J  .J I ..x y y y $ 9 0 +.Z R           ",
"    $ . . J E J T @.I ..x y . #.k l Q $.            ",
"        . . J ` ` T @.I ..w %.&.*.e R               ",
"            . . ` ` T @.w =.-.;.r s                 ",
"                . . ` >.,.'.U ).!                   ",
"                    . . !. .~.{.                    ",
"                      . . . .                       ",
"                        . .                         ",
"                                                    ",
"                                                    ",
"                                                    "};
