/* XPM */
static char * send_xpm[] = {
"26 26 97 2",
"  	c None",
". 	c #3F3F3F",
"+ 	c #3FBE3F",
"@ 	c #3FCC3F",
"# 	c #3FD83F",
"$ 	c #3FED3F",
"% 	c #3FA0CC",
"& 	c #3F6D3F",
"* 	c #3FF53F",
"= 	c #3FFF3F",
"- 	c #6DEDED",
"; 	c #909090",
"> 	c #6DFFFF",
", 	c #3FCC6D",
"' 	c #5D5D5D",
") 	c #3F3FA0",
"! 	c #6DA0A0",
"~ 	c #6D6D6D",
"{ 	c #7E7E7E",
"] 	c #3FA0FF",
"^ 	c #080806",
"/ 	c #000000",
"( 	c #010000",
"_ 	c #080705",
": 	c #030200",
"< 	c #FCFAE7",
"[ 	c #FDFBEF",
"} 	c #FEFDF8",
"| 	c #5F5D5E",
"1 	c #14130F",
"2 	c #060606",
"3 	c #090909",
"4 	c #F8F1B9",
"5 	c #F8F2C2",
"6 	c #F9F4CA",
"7 	c #FAF6D3",
"8 	c #FBF8DC",
"9 	c #FCF9E4",
"0 	c #FDFBED",
"a 	c #FEFDF6",
"b 	c #F4E994",
"c 	c #F5EB9D",
"d 	c #F6EDA5",
"e 	c #F7EFAE",
"f 	c #F7F0B7",
"g 	c #F8F2BF",
"h 	c #F9F4C8",
"i 	c #FAF5D1",
"j 	c #FBF7DA",
"k 	c #FCF9E2",
"l 	c #FDFBEB",
"m 	c #FBFAF4",
"n 	c #FFFFFF",
"o 	c #6DEDFF",
"p 	c #040404",
"q 	c #F4E88F",
"r 	c #F5ECA3",
"s 	c #F6EEAC",
"t 	c #F7F0B5",
"u 	c #F8F2BD",
"v 	c #F9F3C6",
"w 	c #FAF5CF",
"x 	c #FBF7D7",
"y 	c #FBF8E0",
"z 	c #FCFAE9",
"A 	c #FEFEFA",
"B 	c #040300",
"C 	c #6DEDCC",
"D 	c #F4EA98",
"E 	c #F7EFB2",
"F 	c #F8F1BB",
"G 	c #F9F3C4",
"H 	c #FAF5CC",
"I 	c #FAF6D5",
"J 	c #FBF8DE",
"K 	c #FAF7E6",
"L 	c #080702",
"M 	c #F4EA96",
"N 	c #F5EC9F",
"O 	c #F6EDA7",
"P 	c #FEFEFC",
"Q 	c #F4E992",
"R 	c #F5EB9A",
"S 	c #636260",
"T 	c #FDFCF1",
"U 	c #010101",
"V 	c #F5ECA1",
"W 	c #F6EEAA",
"X 	c #070604",
"Y 	c #F7EFB0",
"Z 	c #100F0D",
"` 	c #13130B",
" .	c #535152",
"..	c #050500",
"+.	c #020200",
"@.	c #0E0D09",
"#.	c #020001",
"                                                    ",
"              . . . . . .                           ",
"          . . + @ + + + @ . .                       ",
"        . + # # @ # # @ @ + . .                     ",
"      . + # # $ # # $ @ # # . % &                   ",
"    . + # # * = * # # # . . . - % &                 ",
"    . ; # $ * * * $ @ # . > > - , .                 ",
"  . + ; ; ; ; ; $ @ . . ' > > - , ) .               ",
"  . ; > > ! > ~ # { . ' ' - - - . + .               ",
"  . , , > . * . @ ' ' @ @ ' , ] & ^ / / ^           ",
"  . , > > > > . . ' # @ ( ( _ ( : < [ } | 1         ",
"  . , > > > > 2 3 / / ( 4 5 6 7 8 9 0 a | (         ",
"  . , , > > / | b c d e f g h i j k l | m n (       ",
"    . , o > p q | | r s t u v w x y z | A n B       ",
"    . , ] C / q q D | | E F G H I J | K } n L       ",
"      . , ] / q q M N O | | | 6 7 | | | a n n (     ",
"        . , ] / q b c d e | g | | j k l | P n _     ",
"          . . / q Q R r s S u v w x y z T | n (     ",
"              . U q D V W | F G H I J < [ } | n X   ",
"                / q M N | Y 4 5 6 7 8 9 0 a n ( Z   ",
"                / q b c | e f g h i j / ` ( /       ",
"                  / Q  .r s t u / ..+.              ",
"                  / | D V / ( @.                    ",
"                  / / / #.                          ",
"                                                    ",
"                                                    "};
