/* XPM */
static char * settings_xpm[] = {
"26 26 116 2",
"  	c None",
". 	c #000102",
"+ 	c #040204",
"@ 	c #06000A",
"# 	c #E3E3E3",
"$ 	c #030A03",
"% 	c #E9E9E9",
"& 	c #1C111F",
"* 	c #0C000A",
"= 	c #0A0008",
"- 	c #11000B",
"; 	c #150417",
"> 	c #0B010C",
", 	c #150013",
"' 	c #060007",
") 	c #E8E8E8",
"! 	c #04060C",
"~ 	c #000704",
"{ 	c #080E0E",
"] 	c #000A06",
"^ 	c #010100",
"/ 	c #210002",
"( 	c #D7D7D7",
"_ 	c #DDDDDD",
": 	c #140300",
"< 	c #DDC6C0",
"[ 	c #B6233D",
"} 	c #96031D",
"| 	c #D65D66",
"1 	c #D8D8D8",
"2 	c #DEDEDE",
"3 	c #E4E4E4",
"4 	c #130101",
"5 	c #6F5852",
"6 	c #EB5A77",
"7 	c #880013",
"8 	c #BC404B",
"9 	c #A1222D",
"0 	c #D9D8D8",
"a 	c #4F1312",
"b 	c #BE001C",
"c 	c #F73456",
"d 	c #FE7484",
"e 	c #B60307",
"f 	c #5B0002",
"g 	c #A56969",
"h 	c #FE3B59",
"i 	c #C2011C",
"j 	c #FA364A",
"k 	c #B40004",
"l 	c #7F230E",
"m 	c #C1614B",
"n 	c #9F9C9C",
"o 	c #8D141D",
"p 	c #840717",
"q 	c #AA030A",
"r 	c #EC4650",
"s 	c #FF7676",
"t 	c #B00204",
"u 	c #D06168",
"v 	c #888686",
"w 	c #8D8A8A",
"x 	c #939191",
"y 	c #999797",
"z 	c #9F9D9D",
"A 	c #520002",
"B 	c #AB0511",
"C 	c #A50004",
"D 	c #F44446",
"E 	c #FF666B",
"F 	c #6B0304",
"G 	c #C6595E",
"H 	c #8E8B8B",
"I 	c #949191",
"J 	c #9A9797",
"K 	c #A09E9E",
"L 	c #090400",
"M 	c #C3695E",
"N 	c #741B0B",
"O 	c #B80000",
"P 	c #FF3A49",
"Q 	c #FF768D",
"R 	c #BB1227",
"S 	c #C45359",
"T 	c #8F8C8C",
"U 	c #959292",
"V 	c #B95B4F",
"W 	c #D00314",
"X 	c #BE0201",
"Y 	c #ED4151",
"Z 	c #FF6B79",
"` 	c #7E0F18",
" .	c #C25157",
"..	c #898686",
"+.	c #A56D76",
"@.	c #632D3A",
"#.	c #B90005",
"$.	c #FA3443",
"%.	c #FC737D",
"&.	c #A90B1A",
"*.	c #B25158",
"=.	c #8A8787",
"-.	c #96616B",
";.	c #BD0004",
">.	c #AD0002",
",.	c #E54551",
"'.	c #FF7884",
").	c #7F1F2A",
"!.	c #D15354",
"~.	c #A5232B",
"{.	c #740D11",
"].	c #AF4B4D",
"^.	c #C78C8E",
"/.	c #DE5B60",
"(.	c #7A171A",
"_.	c #72090E",
"                                                    ",
"                                                    ",
"        .                       + + + +             ",
"      @ # $                   + % % % +             ",
"    & # # # *               + % % % +               ",
"      = # # -               + % % +                 ",
"        ; > # @             + % % +         + +     ",
"            , # '           + ) % +       ! % +     ",
"              ~ # {         + # % % + + + % % +     ",
"                ] # ^ / ; ; ( _ # % % % % % % +     ",
"                  : < [ } | ; 1 2 3 % % % % +       ",
"                  4 5 6 7 8 9 ; 0 + + + + +         ",
"                  ; a b c d e f ;                   ",
"                  ; g h i j k l m ;                 ",
"        + + + + + n ; o p q r s t u ;               ",
"      + v v v w x y z ; A B C D E F G ;             ",
"    + v v v v v H I J K L M N O P Q R S ;           ",
"    + v v + + + v T U +   ; V W X Y Z `  .;         ",
"    + v !       + ..T +     ; +.@.#.$.%.&.*.;       ",
"    + + +       + v =.+       ; -.;.>.,.'.).;       ",
"                + v v +         ; !.~.{.].^.;       ",
"            + + v v v +           ; /.(._.;         ",
"            + v v v +               ; ; ;           ",
"            + + + +                                 ",
"                                                    ",
"                                                    "};
