/* XPM */
static char*signature[]={
"26 26 66 2",
".p c #f4f4f4",
".U c #d9d9d9",
".k c #5677ca",
".F c #e1e1e1",
".S c #c6c6c6",
".I c #e9e9e9",
".5 c #cecece",
".o c #f1f1f1",
".M c #d6d6d6",
".H c #bbbbbb",
".Q c #dedede",
".e c #4962b7",
".n c #e6e6e6",
".9 c #cbcbcb",
".r c #eeeeee",
".N c #d3d3d3",
".a c #070709",
".l c #628bdc",
".m c #dbdbdb",
".j c #170801",
".c c #e3e3e3",
".1 c #c8c8c8",
".C c #ebebeb",
".T c #d0d0d0",
"#. c #b5b5b5",
".q c #f3f3f3",
".y c #d8d8d8",
".J c #e0e0e0",
".3 c #c5c5c5",
".D c #e8e8e8",
".P c #cdcdcd",
".# c #000000",
".A c #f0f0f0",
".R c #d5d5d5",
".6 c #150103",
".4 c #bababa",
"Qt c None",
".i c #dddddd",
".2 c #210000",
".7 c #c2c2c2",
".K c #e5e5e5",
".w c #cacaca",
".d c #350000",
".z c #ededed",
".W c #d2d2d2",
"## c #b7b7b7",
".V c #170906",
".E c #6f9fef",
".G c #dadada",
".0 c #bfbfbf",
".L c #e2e2e2",
".Y c #c7c7c7",
".g c #eaeaea",
".X c #cfcfcf",
".h c #f2f2f2",
".s c #d7d7d7",
".f c #dfdfdf",
".v c #e7e7e7",
".u c #efefef",
".8 c #b9b9b9",
".b c #dcdcdc",
".Z c #c1c1c1",
".t c #e4e4e4",
".B c #ececec",
".x c #3d4ea5",
".O c #d1d1d1",
"QtQtQtQtQtQtQtQtQtQtQtQtQtQtQtQtQtQtQtQtQtQtQtQtQtQt",
"QtQtQtQtQtQtQtQtQtQtQtQtQtQtQtQtQtQtQtQtQtQtQtQtQtQt",
"QtQtQtQtQtQtQtQtQtQtQtQtQtQtQtQtQtQtQtQtQtQtQtQtQtQt",
"QtQtQtQtQtQtQtQtQtQtQtQtQtQtQtQtQtQtQtQtQtQtQtQtQtQt",
"QtQtQtQtQtQtQtQtQt.#.#.#QtQtQtQtQtQtQtQtQtQtQt.aQtQt",
"QtQtQtQtQtQtQtQt.#.b.c.b.#.#QtQtQtQtQtQtQtQt.d.e.#Qt",
"QtQtQtQtQtQtQt.#.f.g.h.h.g.i.#.#QtQtQtQtQt.j.e.k.l.j",
"QtQtQtQtQtQt.#.m.n.o.p.q.h.r.c.s.#.#Qt.j.j.e.k.l.jQt",
"QtQtQtQtQt.#.s.t.u.#.h.o.h.u.g.v.i.w.j.x.e.k.l.jQtQt",
"QtQtQtQt.#.y.c.z.#.u.A.#.r.z.h.g.v.j.x.e.k.l.jQtQtQt",
"QtQtQt.#.m.c.z.u.u.r.#.B.C.g.g.D.j.x.e.k.l.E.#.#QtQt",
"QtQt.#.F.t.z.#.z.B.B.g.g.#.D.v.j.x.e.k.l.E.#.b.G.#Qt",
"Qt.#.H.D.z.#.C.C.g.h.I.#.v.n.j.x.e.k.l.E.#.F.J.b.y.#",
".#.I.g.C.g.I.v.#.K.t.c.c.L.j.x.e.k.l.E.#.m.G.M.N.#Qt",
".#.n.K.D.n.K.#.t.c.#.J.J.#.j.e.k.l.E.#.s.s.O.P.#QtQt",
".#.H.H.G.m.f.J.f.#.Q.i.#.j.e.k.l.E.#.R.N.P.S.#QtQtQt",
"Qt.#.#.H.H.w.T.s.y.U.U.V.e.k.l.j.#.W.X.Y.Z.#QtQtQtQt",
"QtQtQt.#.#.H.H.0.1.T.R.2.2.l.j.N.W.P.3.H.#QtQtQtQtQt",
"QtQtQtQtQt.#.#.H.H.4.5.#.6.j.O.T.5.7.8.#QtQtQtQtQtQt",
"QtQtQtQtQtQtQt.#.#.H.H.Z.w.P.5.5.9.8.#QtQtQtQtQtQtQt",
"QtQtQtQtQtQtQtQtQt.#.#.H.H#..H.H.4.#QtQtQtQtQtQtQtQt",
"QtQtQtQtQtQtQtQtQtQtQt.#.#.H.H##.#QtQtQtQtQtQtQtQtQt",
"QtQtQtQtQtQtQtQtQtQtQtQtQt.#.#.#QtQtQtQtQtQtQtQtQtQt",
"QtQtQtQtQtQtQtQtQtQtQtQtQtQtQtQtQtQtQtQtQtQtQtQtQtQt",
"QtQtQtQtQtQtQtQtQtQtQtQtQtQtQtQtQtQtQtQtQtQtQtQtQtQt",
"QtQtQtQtQtQtQtQtQtQtQtQtQtQtQtQtQtQtQtQtQtQtQtQtQtQt"};
