/* XPM */
static char * search_xpm[] = {
"28 28 24 1",
" 	c None",
".	c #000000",
"+	c #605F5F",
"@	c #BEBEBE",
"#	c #C5C5C5",
"$	c #CCCCCC",
"%	c #D3D3D3",
"&	c #DBDBDB",
"*	c #E2E2E2",
"=	c #E9E9E9",
"-	c #F0F0F0",
";	c #F7F7F7",
">	c #FFFFFF",
",	c #808080",
"'	c #B7B7B7",
")	c #C8C8C8",
"!	c #BFBFBF",
"~	c #D1D1D1",
"{	c #E4E4E4",
"]	c #030305",
"^	c #EDEDED",
"/	c #2D6196",
"(	c #F6F6F6",
"_	c #639BD3",
"                            ",
"                            ",
"              ............. ",
"              .+@#$%&*=-;+. ",
"           .......$%&*=++>. ",
"          ..,,,,,,..&++-;>. ",
"         ..,  .'@#,..*=-;>. ",
"        ..)  >>>>#+,.++-;>. ",
"        .)  >>>>++$%,.=++>. ",
"        .) >>>.+@...,...... ",
"        .) >> ....'',.'''.. ",
"        .) >>    .!+,.++!.  ",
"        .) >     .)),.))).  ",
"        .)       .~+,.~+~.  ",
"         .)      .&,.&&&&.  ",
"         ..)     .)..++{{.  ",
"        ....))))))].^^^^^.  ",
"      ,./.  ......(+(((((.  ",
"     ,./.        .>>>>>>>.  ",
"    ,./_.        .........  ",
"   ,./_.                    ",
"  ,./_.                     ",
" ,./_.                      ",
",./_.                       ",
"./_.                        ",
" ..                         ",
"                            ",
"                            "};
