/* XPM */
static char*arrow_left[]={
"22 22 22 1",
"q c #4a79af",
"f c #5c89b9",
"m c #b3daee",
"s c #3a2c26",
"o c #c5eaf8",
"d c #2e2e1c",
"b c #6d99c4",
"g c #7fa9ce",
"t c #161616",
"h c #87b2d4",
"j c #99c2de",
"# c #000000",
"p c #5381b4",
". c None",
"l c #aad2e9",
"n c #bce2f3",
"c c #6491bf",
"a c #76a1c9",
"i c #90bad9",
"k c #a2cae3",
"e c #080805",
"r c #4270a9",
"......................",
"......................",
"......................",
"......................",
".........#............",
"........#a#...........",
".......#ba#...........",
"......#cbadddddddde...",
".....#fcbaghijklmno#..",
"....#pfcbaghijklmno#..",
"...#qpfcbaghijklmno#..",
"..#rqpfcbaghijklmno#..",
"...#qpfcbaghijklmno#..",
"....#pfcbaghijklmno#..",
".....sfcbaghijklmno#..",
"......#cba#########...",
".......#ba#...........",
"........#a#...........",
".........t............",
"......................",
"......................",
"......................"};
