/* XPM */
static char * arrow_right_xpm[] = {
"22 22 22 1",
" 	c None",
".	c #161616",
"+	c #000000",
"@	c #76A1C9",
"#	c #6D99C4",
"$	c #6491BF",
"%	c #C5EAF8",
"&	c #BCE2F3",
"*	c #B3DAEE",
"=	c #AAD2E9",
"-	c #A2CAE3",
";	c #99C2DE",
">	c #90BAD9",
",	c #87B2D4",
"'	c #7FA9CE",
")	c #5C89B9",
"!	c #3A2C26",
"~	c #5381B4",
"{	c #4A79AF",
"]	c #4270A9",
"^	c #080805",
"/	c #2E2E1C",
"                      ",
"                      ",
"                      ",
"                      ",
"            .         ",
"           +@+        ",
"           +@#+       ",
"   +++++++++@#$+      ",
"  +%&*=-;>,'@#$)!     ",
"  +%&*=-;>,'@#$)~+    ",
"  +%&*=-;>,'@#$)~{+   ",
"  +%&*=-;>,'@#$)~{]+  ",
"  +%&*=-;>,'@#$)~{+   ",
"  +%&*=-;>,'@#$)~+    ",
"  +%&*=-;>,'@#$)+     ",
"   ^////////@#$+      ",
"           +@#+       ",
"           +@+        ",
"            +         ",
"                      ",
"                      ",
"                      "};
