/* XPM */
static char * ctlart_xpm[] = {
"11 11 12 1",
" 	c None",
".	c #841E1E",
"+	c #B7B7B7",
"@	c #BFBFBF",
"#	c #EF1C1C",
"$	c #C8C8C8",
"%	c #D1D1D1",
"&	c #DBDBDB",
"*	c #E4E4E4",
"=	c #EDEDED",
"-	c #F6F6F6",
";	c #FFFFFF",
" ......... ",
" .+++++++. ",
" .@##@##@. ",
" .$$$$$$$. ",
" .%###%#%. ",
" .&&&&&&&. ",
" .*####**. ",
" .=======. ",
" .-#-----. ",
" .;;;;;;;. ",
" ......... "};
