/* XPM */
static char * fltrblue_xpm[] = {
"11 11 36 1",
" 	c None",
".	c #000000",
"+	c #5554C1",
"@	c #565BC4",
"#	c #5761C7",
"$	c #5868CA",
"%	c #596ECE",
"&	c #5975D1",
"*	c #5A7BD4",
"=	c #5A82D7",
"-	c #5B89DB",
";	c #565AC4",
">	c #5867CA",
",	c #5974D1",
"'	c #597BD4",
")	c #5A81D7",
"!	c #5B88DB",
"~	c #5C8FDE",
"{	c #5866CA",
"]	c #596DCD",
"^	c #5973D0",
"/	c #597AD3",
"(	c #5A80D7",
"_	c #5B87DA",
":	c #5C8EDD",
"<	c #5972D0",
"[	c #5979D3",
"}	c #5A7FD7",
"|	c #5C8DDD",
"1	c #5A7FD6",
"2	c #5B86D9",
"3	c #5C8CDC",
"4	c #5C8BDC",
"5	c #5C91DF",
"6	c #5D97E2",
"7	c #5D9CE4",
"...........",
".+@#$%&*=-.",
".;#>%,')!~.",
" .{]^/(_:. ",
"  .<[}_|.  ",
"   .123.   ",
"    .4.    ",
"    .5.    ",
"    .6.    ",
"    .7.    ",
"    ...    "};
