/* XPM */
static char * fltrgrey_xpm[] = {
"11 11 24 1",
" 	c None",
".	c #2E2E2E",
"+	c #7D7D7D",
"@	c #818181",
"#	c #848484",
"$	c #878787",
"%	c #8B8B8B",
"&	c #8F8F8F",
"*	c #929292",
"=	c #969696",
"-	c #9A9A9A",
";	c #808080",
">	c #959595",
",	c #999999",
"'	c #9D9D9D",
")	c #8E8E8E",
"!	c #919191",
"~	c #8D8D8D",
"{	c #949494",
"]	c #9C9C9C",
"^	c #9B9B9B",
"/	c #9E9E9E",
"(	c #A2A2A2",
"_	c #A5A5A5",
"...........",
".+@#$%&*=-.",
".;#$%&*>,'.",
" .$%)!>,'. ",
"  .~!{,'.  ",
"   .{,].   ",
"    .^.    ",
"    ./.    ",
"    .(.    ",
"    ._.    ",
"    ...    "};
