/* XPM */
static char*folder[]={
"22 22 72 2",
".4 c #737374",
"#b c #97979a",
".T c #bebebe",
".d c #6babef",
".m c #e1e1e1",
".o c #acacae",
".Z c #b4b4b6",
"#e c #686869",
".9 c #8c8c8f",
".3 c #a2a2a6",
".V c #afafb2",
".v c #bbbbbb",
"#d c #2c2c2c",
".y c #b6b6b7",
".t c #c3c3c3",
".0 c #5d5d5e",
".l c #e6e6e6",
".S c #8d8d8d",
".D c #b1b1b3",
".M c #bebebf",
".Y c #969698",
".a c #212121",
".W c #2b2121",
".O c #a7a7ab",
".R c #302121",
".7 c #292929",
".q c #e3e3e3",
".n c #c3c3c4",
".X c #5d5d5f",
".K c #8e8e91",
".e c #b5b5b5",
".c c #7289dc",
".I c #a4a4a8",
".5 c #969699",
"#. c #0b0b0b",
".B c #c5c5c5",
"#a c #5f5f60",
".k c #e8e8e8",
".J c #a6a6a9",
".C c #b3b3b5",
".6 c #000000",
".s c #dddddd",
".E c #b0b0b2",
".U c #bdbdbe",
".F c #88888b",
"#c c #9e9ea2",
"## c #282828",
".h c #bfbfbf",
".H c #a4a4a4",
".N c #bababb",
".# c #302920",
".b c #151515",
".1 c #929294",
".j c #eaeaea",
"#f c #4e4e4f",
".z c #bcbcbc",
".u c #878789",
".r c #dfdfdf",
"Qt c None",
".8 c #5e5e5f",
".L c #a9a9a9",
".P c #a5a5a8",
".f c #585858",
".G c #312a24",
".w c #efefef",
".Q c #a0a0a4",
".x c #d4d4d4",
".i c #ffffff",
".p c #e4e4e4",
".2 c #afafb1",
".A c #c9c9c9",
".g c #6bcaef",
"QtQtQtQtQtQtQtQtQtQtQtQtQtQtQtQtQtQtQtQtQtQt",
"QtQtQtQt.#.a.aQtQtQtQtQtQtQtQtQtQtQtQtQtQtQt",
"QtQt.a.b.c.d.d.a.aQtQtQtQtQtQtQtQtQtQtQtQtQt",
"QtQt.a.e.f.f.c.g.d.a.a.#.a.a.#QtQtQtQtQtQtQt",
"QtQt.a.h.i.j.f.f.c.d.g.g.g.g.g.aQtQtQtQtQtQt",
"QtQt.a.h.i.i.i.k.f.f.c.g.d.g.g.c.aQtQtQtQtQt",
"QtQt.a.h.i.i.l.m.n.o.f.c.d.d.d.g.c.aQtQtQtQt",
"QtQt.a.h.i.p.q.r.s.t.u.f.c.c.d.d.d.c.aQtQtQt",
"QtQt.a.v.w.q.r.x.t.t.t.y.f.f.f.f.d.c.aQtQtQt",
"QtQt.a.z.r.m.A.B.t.t.t.C.C.D.E.F.G.c.aQtQtQt",
"QtQt.a.H.r.A.A.t.t.t.C.C.D.I.J.K.a.c.aQtQtQt",
"QtQt.a.L.x.B.t.t.M.N.C.D.O.P.Q.K.R.c.aQtQtQt",
"QtQt.a.S.T.t.t.h.U.E.E.V.Q.Q.Q.K.W.c.aQtQtQt",
"QtQt.a.X.Y.Z.t.N.E.E.o.Q.Q.Q.Q.K.a.c.aQtQtQt",
"QtQtQt.a.a.0.1.E.2.J.3.Q.Q.Q.Q.K.a.c.aQtQtQt",
"QtQtQtQtQt.a.a.4.5.J.Q.Q.Q.Q.Q.K.a.c.aQtQtQt",
"QtQtQtQtQtQtQt.6.7.8.9.Q.Q.Q.Q.K.a.c.aQtQtQt",
"QtQtQtQtQtQtQtQtQt#.###a#b#c.Q.K.a.c.aQtQtQt",
"QtQtQtQtQtQtQtQtQtQtQt.a#d#e.K.K.a.c.aQtQtQt",
"QtQtQtQtQtQtQtQtQtQtQtQtQt.a.a#f.a.c.aQtQtQt",
"QtQtQtQtQtQtQtQtQtQtQtQtQtQtQt.a.a.a.aQtQtQt",
"QtQtQtQtQtQtQtQtQtQtQtQtQtQtQtQtQtQtQtQtQtQt"};
