/* XPM */
static char * greyballchk_xpm[] = {
"11 11 7 1",
" 	c None",
".	c #303030",
"+	c #F4F4F4",
"@	c #DCDCDC",
"#	c #A0A0A0",
"$	c #808080",
"%	c #C3C3C3",
"   ..... + ",
"  .@@##$.++",
" .@@%##$++ ",
".@%+%##$++.",
".%%++##++$.",
".%%#++$++$.",
".####+++$$.",
".###$$+$$$.",
" .$$$$$$$. ",
"  .$$$$$.  ",
"   .....   "};
