/* XPM */
static char*greyball[]={
"11 11 6 1",
"c c #808080",
"b c #a0a0a0",
"d c #c3c3c3",
"# c #303030",
". c None",
"a c #dcdcdc",
"...#####...",
"..#aabbc#..",
".#aadbbcc#.",
"#adddbbccc#",
"#dddbbbccc#",
"#ddbbbcccc#",
"#bbbbccccc#",
"#bbbcccccc#",
".#ccccccc#.",
"..#ccccc#..",
"...#####..."};
