/* XPM */
static char*groupkat[]={
"22 22 186 2",
"aY c #34360c",
"ac c #aca6ac",
"#P c #7c6e2c",
"#C c #3c360c",
".u c #e4d68c",
"aN c #fcf684",
"ab c #fcfad4",
"#k c #946e2c",
"#c c #443e14",
"#r c #6caaec",
"a. c #948e84",
"#K c #fcf6e4",
"aK c #645e0c",
".C c #ecc254",
".I c #040204",
".0 c #544e24",
"#T c #645a1c",
"#p c #948e4c",
"a0 c #a49a44",
"#n c #a49e94",
"at c #fcf6ac",
"#7 c #949204",
".L c #dcce74",
"ae c #9ca604",
"#L c #b4b294",
"#m c #948a5c",
"an c #a4a604",
"#D c #2c2a04",
".b c #141214",
"#3 c #b4a24c",
".R c #6c562c",
"ad c #acba04",
".p c #947e64",
"aP c #fcf674",
"ar c #fcfac4",
"#E c #443e04",
"#0 c #948e74",
"a2 c #44460c",
"#a c #a49a6c",
"## c #ece68c",
"#W c #545204",
"#J c #342e1c",
".e c #64624c",
"#q c #6cbaec",
".O c #6ca6ec",
"#g c #c4a664",
".k c #6c6a54",
"#N c #746a54",
"aH c #fcf69c",
".N c #446a7c",
"aB c #746e0c",
"#Z c #aca68c",
"#8 c #8c8e04",
".a c #3c3a3c",
"#6 c #948e04",
".j c #8c865c",
"ay c #fcfab4",
"#Y c #e4e2c4",
".F c #f4eebc",
"ap c #a4a204",
".n c #5c5a34",
"#b c #6c662c",
"#4 c #7c7224",
".7 c #7c5e24",
".q c #ac9254",
".x c #64badc",
".H c #8c8a74",
".l c #5c5644",
"#1 c #b4b2ac",
"#A c #9c966c",
".T c #e4a23c",
".s c #1c1e24",
".G c #f4f2d4",
".d c #dcd694",
"ak c #44420c",
"#d c #547ea4",
".P c #6c9ae4",
"#v c #7c763c",
".o c #4c465c",
".S c #dcb24c",
".y c #6cb6ec",
"aM c #fcf68c",
"aa c #fcfadc",
".w c #646654",
".M c #c4b664",
"aR c #5c560c",
".g c #8c8e8c",
".Y c #d4c25c",
"#Q c #847e44",
".r c #9c8234",
"av c #747604",
"aL c #ece6a4",
"#U c #746a0c",
".J c #d4be6c",
"aZ c #0c0e04",
"aD c #fcfaa4",
"#H c #b4ae84",
"au c #7c7e0c",
"Qt c None",
"ai c #8c8a04",
"#t c #5c5e74",
"#V c #847e0c",
".W c #eceabc",
"ax c #fcf6b4",
".Z c #ac9a4c",
".h c #747274",
".8 c #745a24",
"aW c #fcfa6c",
".i c #2c2a0c",
"#i c #d4b23c",
"#j c #dcb23c",
".X c #746a34",
"#e c #6c8edc",
".Q c #3c425c",
"aQ c #fcf67c",
"al c #fcfacc",
"#9 c #4c4a04",
".D c #ecb23c",
"#. c #d4cea4",
".5 c #746644",
"#h c #dcb654",
"#w c #847a44",
"aJ c #64660c",
"#s c #5c76b4",
"aX c #747204",
"#5 c #6c660c",
".# c #3c362c",
"az c #fcee9c",
".t c #7c7654",
"aj c #848604",
"a1 c #e4da64",
"aG c #fcf6a4",
"aO c #7c7a0c",
".1 c #446a84",
"aq c #8c8604",
"#R c #fceaac",
".z c #6486c4",
".6 c #c4a634",
".f c #44463c",
"ag c #9c9a04",
".K c #e4d674",
".2 c #648ecc",
".E c #745624",
".B c #ecc274",
"as c #fcfabc",
"aF c #343204",
"#z c #4c4e44",
".v c #dcd284",
"#y c #ece2cc",
"#F c #6c6634",
".9 c #645a3c",
"aw c #3c3a0c",
"#M c #fcf6cc",
".3 c #748adc",
"#I c #746e3c",
"#G c #aca26c",
"#u c #c4a65c",
"#f c #7492e4",
".c c #9c9e7c",
"#o c #fcee8c",
"aU c #8c823c",
"aI c #fcf694",
"a# c #fcfae4",
"aE c #64620c",
".U c #f4ea9c",
".m c #747254",
"aS c #040604",
"#2 c #bcae2c",
".4 c #647abc",
"aA c #7c760c",
"af c #8c9604",
"#O c #746e64",
"aC c #fcfaac",
"#X c #fcfefc",
"#x c #b4ae8c",
"#l c #9c924c",
"aT c #1c1a04",
"#S c #c4ba84",
".A c #5c5a2c",
"ah c #9c9604",
"a3 c #141614",
"am c #eceac4",
"aV c #fcf26c",
"#B c #ccc28c",
".V c #fcf6bc",
"ao c #acaa04",
"QtQtQtQtQtQtQtQt.#QtQtQtQt.aQtQtQtQtQtQtQtQt",
"QtQtQtQtQtQt.b.c.d.eQtQt.f.g.h.bQtQtQtQtQtQt",
"QtQtQtQt.i.j.d.k.l.m.n.o.p.q.r.c.g.sQtQtQtQt",
"QtQt.b.t.u.v.w.x.y.z.A.l.B.C.D.E.F.G.H.IQtQt",
"Qt.n.J.K.L.M.N.y.O.P.Q.R.S.T.T.R.u.U.V.W.wQt",
"QtQt.X.Y.Z.0.1.2.3.4.5.6.7.E.8.9#..F##.jQtQt",
"Qt.I#a#b#c#d.O#e#f#e.o#g#h#i#j#k#l#a#m#n.IQt",
"QtQt.I.M#o#p#q#q#r.O#s#t#u.B#v#w#x#y.c.sQtQt",
"QtQtQt#z#A#B.v#p#C#D#E#b#b#F#G#.#H#I#JQtQtQt",
"QtQtQt.g#K#L.H#.#M#N#O#P#Q#R#S#T#U#V#WQtQtQt",
"QtQtQt.g#X#K#Y#Z.c#0#1#2#3#4#5#6#7#8#9QtQtQt",
"QtQtQta.a#aaaaab.W#xacadaeafagahaiajakQtQtQt",
"QtQtQt.gaaababal.V.Vamanaoapah#8aq#VakQtQtQt",
"QtQtQta.abalarasasat.VapapahafaqauavawQtQtQt",
"QtQtQt.Harasasaxayazatahag#8aqauaAaBaw.IQtQt",
"QtQtQt#0.VasaxaCaCaDat#7#7aq#VavaBaEaF.I.IQt",
"QtQtQt.jaxayaGaHaI#oaIaiaiauaAaBaJaKaF.I.I.I",
"QtQtQt.maLaGaHaIaIaMaNau#VaOaBaJaK#9#D.IQtQt",
"QtQtQtQt.I#m##aMaNaPaQaAaOaBaJaRaFaSQtQtQtQt",
"QtQtQtQtQtQtaTaU#oaVaWaXaXaEaYaZQtQtQtQtQtQt",
"QtQtQtQtQtQtQtQtaSa0a1aEa2aSQtQtQtQtQtQtQtQt",
"QtQtQtQtQtQtQtQtQtQt#Ca3QtQtQtQtQtQtQtQtQtQt"};
