/* XPM */
static char * group_xpm[] = {
"22 22 11 1",
" 	c None",
".	c #101517",
"+	c #221714",
"@	c #EAC196",
"#	c #EAC23C",
"$	c #6BCAEF",
"%	c #6BABEF",
"&	c #EAA338",
"*	c #7289DC",
"=	c #A8732A",
"-	c #4B5C8E",
"                      ",
"             ....     ",
"     ++++   .@@##.    ",
"    +$$%%+ .@@@#&&.   ",
"   +$$$%**+.@####&.   ",
"   +$%%%%*+.@#&&&&.   ",
"   +$%****+#.&&&&.    ",
"  +%+****+###....&.   ",
" +%%%*****+@#####&..  ",
" +$$%%%%%*++@@####&&. ",
" +%%$$%%%%**+#@@@&&&. ",
" +%%%%$$$***+####&&&. ",
" +%%%%%%%***+####&&&. ",
"  +%%%%%%***+####&&=. ",
"  +%%%%%%**-+###=&=.. ",
"  +%%%%%-*-++##&==&.  ",
"  +%%%%*--*+###&&&&.  ",
"  +%%%%****+###&&&..  ",
"  ++%%%***++..&&..    ",
"    ++**++    ..      ",
"      ++              ",
"                      "};
