/* XPM */
static char * mail_xpm[] = {
"13 9 14 1",
" 	c None",
".	c #000000",
"+	c #605F5F",
"@	c #BEBEBE",
"#	c #C5C5C5",
"$	c #CCCCCC",
"%	c #D3D3D3",
"&	c #DBDBDB",
"*	c #E2E2E2",
"=	c #E9E9E9",
"-	c #F0F0F0",
";	c #F7F7F7",
">	c #B7B7B7",
",	c #FFFFFF",
".............",
".+@#$%&*=-;+.",
".>++$%&*=++,.",
".>@#++&++-;,.",
".>@#$%+*=-;,.",
".>@#++&++-;,.",
".>++$%&*=++,.",
".+@#$%&*=-;+.",
"............."};
