/* XPM */
static char * newsubs_xpm[] = {
"11 11 5 1",
" 	c None",
".	c #020202",
"+	c #F4AD1F",
"@	c #EFBE5B",
"#	c #FCBB3A",
"   .....   ",
"   .++@.   ",
"   .+@@.   ",
"   .+@@.   ",
"   .+@@.   ",
"   .+#@.   ",
" ..+##@@.. ",
"  .+@@@@.  ",
"   .+#@.   ",
"    .@.    ",
"     .     "};
