/* XPM */
static char * pen_xpm[] = {
"16 16 13 1",
" 	c None",
".	c #070709",
"+	c #350000",
"@	c #4962B7",
"#	c #000000",
"$	c #170801",
"%	c #5677CA",
"&	c #628BDC",
"*	c #3D4EA5",
"=	c #6F9FEF",
"-	c #170906",
";	c #210000",
">	c #150103",
"             .  ",
"            +@# ",
"           $@%&$",
"         $$@%&$ ",
"        $*@%&$  ",
"       $*@%&$   ",
"      $*@%&=#   ",
"     $*@%&=#    ",
"    $*@%&=#     ",
"   $*@%&=#      ",
"   $@%&=#       ",
"  $@%&=#        ",
" -@%&$#         ",
" ;;&$           ",
" #>$            ",
"                "};
