/* XPM */
static char * redballchk_xpm[] = {
"11 11 7 1",
" 	c None",
".	c #303030",
"+	c #FFFFFF",
"@	c #FF8B77",
"#	c #FF0000",
"$	c #C00000",
"%	c #9D0000",
"   ..... + ",
"  .@#$$%.++",
" .@@#$$%++ ",
".@#+#$$%++.",
".##++$$++%.",
".##$++%++%.",
".$$$$+++%%.",
".$$$%%+%%%.",
" .%%%%%%%. ",
"  .%%%%%.  ",
"   .....   "};
