/* XPM */
static char*redball[]={
"11 11 6 1",
". c None",
"a c #ff8b77",
"# c #303030",
"d c #9d0000",
"c c #c00000",
"b c #ff0000",
"...#####...",
"..#abccd#..",
".#aabccdd#.",
"#abbbccddd#",
"#bbbcccddd#",
"#bbcccdddd#",
"#ccccddddd#",
"#cccdddddd#",
".#ddddddd#.",
"..#ddddd#..",
"...#####..."};
