/* XPM */
static char * server_xpm[] = {
"22 22 10 1",
" 	c None",
".	c #000000",
"+	c #E6E6E6",
"@	c #7A7A7A",
"#	c #AAAAAA",
"$	c #FFFFFF",
"%	c #4A4A4A",
"&	c #2525FF",
"*	c #B90000",
"=	c #565656",
"                      ",
"          ...         ",
"         .+++..       ",
"        .++++++..     ",
"       .+++++++++.    ",
"      .+++++++++@.    ",
"     .#$$++++++@@.    ",
"    .$$##$$$$+@@@.    ",
"    .#@$$####%@@@.    ",
"    .#@+#$$$@%@@@.    ",
"    .#@+##@@@%@@@.    ",
"    .#@+##@@@%@@@.    ",
"    .#@+&#@@@%@@@.    ",
"    .#@+#*@@@%@@@.=   ",
"    .#@+##@@@%@@@.=   ",
"    .#@+##@@@%@@.==   ",
"    .#@+##@@@%@.==    ",
"    .#@+##@@@%.==     ",
"     ..+##@@@.==      ",
"       ..#@@.==       ",
"         ...=         ",
"                      "};
