/* XPM */
static char*snderr[]={
"13 13 5 1",
". c None",
"b c #f3f3f3",
"# c #800000",
"a c #c00000",
"c c #ff0000",
".............",
"....#####....",
"...#aaaaa#...",
"..#bbaaabbc..",
".##bbbabbbcc.",
".##abbbbbccc.",
".##aabbbcccc.",
".##abbbbbccc.",
".##bbbabbbcc.",
"..#bbaaabbc..",
"...#aaaaa#...",
"....#####....",
"............."};
