/* XPM */
static char * stat_edit_xpm[] = {
"11 11 24 1",
" 	c None",
".	c #111627",
"+	c #35325A",
"@	c #4966AD",
"#	c #1D1E2B",
"$	c #1A1522",
"%	c #333B67",
"&	c #5373C3",
"*	c #39466B",
"=	c #1C192E",
"-	c #4053A2",
";	c #5576C9",
">	c #3E4D77",
",	c #1E1B31",
"'	c #4256A6",
")	c #5E86D0",
"!	c #182030",
"~	c #6088D4",
"{	c #1F2C43",
"]	c #202D45",
"^	c #2A2D50",
"/	c #5372C2",
"(	c #190000",
"_	c #353F5F",
"         . ",
"        +@#",
"      $%&* ",
"     =-;>  ",
"    ,';)!  ",
"   =';~{   ",
"  $-;~]    ",
"  %;){     ",
" ^/>!      ",
" (_        ",
"           "};
