/* XPM */
static char*stat_saved[]={
"11 11 22 1",
"a c None",
"h c #7caccb",
"f c #76a7c7",
"o c #a0a0a0",
"n c #88b6d4",
"k c #82b1d0",
"s c #9bc5e1",
"r c #95c0dd",
"g c #4a83a8",
"q c #eaeff2",
"p c #8ebbd9",
"e c #447ea4",
"l c #5d92b5",
"t c #a1cae6",
". c #000000",
"j c #568db1",
"i c #5088ad",
"# c #767b7f",
"c c #699cbe",
"m c #6397ba",
"d c #6fa1c3",
"b c #3d789f",
"..######..a",
".b###a##cd.",
".e###a##df.",
".g###a##fh.",
".ij####fhk.",
".jlmcdfhkn.",
".looooooop.",
".moqqqqqor.",
".coqqqqqos.",
".doqqqqqot.",
"..........."};
