/* XPM */
static char * checked_green_xpm[] = {
"11 11 4 1",
" 	c None",
".	c #43703C",
"+	c #58994E",
"@	c #6ABC5E",
"       .+@ ",
"       .+@ ",
"      .+@  ",
"      .+@  ",
"     .+@   ",
"@+.  .+@   ",
"@+. .+@    ",
" @+..+@    ",
" @+.+@     ",
"  @++@     ",
"  @@@      "};
