/* XPM */
static char * stat_cncl_xpm[] = {
"11 11 3 1",
" 	c None",
".	c #EF2323",
"+	c #A52121",
" .         ",
"++..     . ",
"  ++.. ..++",
"    ++.++  ",
"     .+.   ",
"    .+ +.  ",
"   .+  +.  ",
"  .+    +. ",
" .+     +. ",
".+       +.",
" +       + "};
