/* XPM */
static char *kmailcvt[] = {
/* width height num_colors chars_per_pixel */
"    32    32      167            2",
/* colors */
".. c #001010",
".# c #008078",
".a c #780c08",
".b c #807c10",
".c c #004c48",
".d c #884408",
".e c #88b440",
".f c #00bcb0",
".g c #484020",
".h c #e04810",
".i c #b88c10",
".j c #580008",
".k c #006860",
".l c #c09810",
".m c #b82410",
".n c #588c40",
".o c #284c28",
".p c #40d4a0",
".q c #d8b810",
".r c #301810",
".s c #e02c10",
".t c #08e4d8",
".u c #d89810",
".v c #d8c410",
".w c #906410",
".x c #00a498",
".y c #482410",
".z c #e87c10",
".A c #d8a810",
".B c #002828",
".C c #308458",
".D c #e85410",
".E c #48a890",
".F c #e86010",
".G c #d89010",
".H c #009088",
".I c #b83810",
".J c #d8bc10",
".K c #e83810",
".L c #28e8c0",
".M c #483820",
".N c #e87010",
".O c #783008",
".P c #105448",
".Q c #38c088",
".R c #386038",
".S c #202810",
".T c #e8d010",
".U c #b09c10",
".V c #005450",
".W c #e84c10",
".X c #307048",
".Y c #305030",
".Z c #70cc80",
".0 c #e89810",
".1 c #003028",
".2 c #382c18",
".3 c #108478",
".4 c #601c10",
".5 c #c8a410",
".6 c #e8b010",
".7 c #e83410",
".8 c #20ecd0",
".9 c #e8c410",
"#. c #b86410",
"## c #106050",
"#a c #e88410",
"#b c #285c50",
"#c c #e8a410",
"#d c #e86810",
"#e c #e88c10",
"#f c #c83810",
"#g c #683c28",
"#h c #983810",
"#i c #283010",
"#j c #181c10",
"#k c #908810",
"#l c #084c48",
"#m c #00c8b8",
"#n c #684028",
"#o c #e84410",
"#p c #c82810",
"#q c #489080",
"#r c #40e8a8",
"#s c #e82c10",
"#t c #08f0e0",
"#u c #30b488",
"#v c #702010",
"#w c #102c18",
"#x c #e85c10",
"#y c #189478",
"#z c #e8bc10",
"#A c #e84010",
"#B c #38e0b0",
"#C c #503c28",
"#D c #e87810",
"#E c #407858",
"#F c #287860",
"#G c #e8a010",
"#H c #60b078",
"#I c #e8b810",
"#J c #e8cc10",
"#K c #a87010",
"#L c #e8ac10",
"#M c #e89410",
"#N c #283020",
"#O c #081c18",
"#P c #008c80",
"#Q c #881008",
"#R c #884808",
"#S c #80dc70",
"#T c #08bca8",
"#U c #484420",
"#V c #680808",
"#W c #086858",
"#X c #d0a010",
"#Y c #b82c10",
"#Z c #304820",
"#0 c #40dca8",
"#1 c #809048",
"#2 c #00b8b0",
"#3 c #884008",
"#4 c #58b078",
"#5 c #904030",
"#6 c #009c90",
"#7 c #489c88",
"#8 c #68d488",
"#9 c #c0ac10",
"a. c #188068",
"a# c #006058",
"aa c #d8a010",
"ab c #b84010",
"ac c #386838",
"ad c #b0a410",
"ae c #60b090",
"af c #681808",
"ag c #d03410",
"ah c #30e8b8",
"ai c #085448",
"aj c #307868",
"ak c #186050",
"al c #003430",
"am c #e88010",
"an c #002c28",
"ao c #b84810",
"ap c #e85810",
"aq c #e86410",
"ar c #e83c10",
"as c #e87410",
"at c #e8d410",
"au c #e85010",
"av c #e89c10",
"aw c #e8b410",
"ax c #e8c810",
"ay c #e88810",
"az c #e8a810",
"aA c #e86c10",
"aB c #283410",
"aC c #e84810",
"aD c #e83010",
"aE c #e8c010",
"aF c #a87410",
"aG c #305830",
"aH c #985c10",
"aI c #08d4c8",
"aJ c #984810",
"aK c #305438",
/* pixels */
"as.z.z#DasaAaq#x.D.h#Aar.7.7aDaD.s.s#s#s#s#s.saD#saD#saDaDaD.Kar",
".w#jak##aK.Y#U.g.g.M.M#C#n#g#g#5#v#saDaDaDaDaD#s#saD#saD.7.K#A.W",
"#X.S.C.1.H#T.f.f.f.f.f.x.Ha#.Vaj#v#saD#s#s#saD#saD#saD.7ar#oau#x",
"ax#i#S#2..#y.p#B#0#4aI#E#Oal#P#7#vaD#saDaD#saD#saD#s.7.KaC.D#d#D",
".TaB#t#t.n.Bai#T.#.B.k.V#lae#t#q.r#s#saD#saD#saD#saD.K#o.DaA#a#M",
".TaB#t#m..#ua.#Wai.caI.3an.E#t#b.4aD#s#saD#saD#saD.K#o.D.N#aav.6",
".TaB#6.c.Q#t.8#t#t.Lah.ZaK.P#6#b#vaDaDaD#saD#saD.7ar.DaA#a#Gaw.9",
".T#i#w.x#r#t#t#t#t#t#t#8#4#Fal#bagaD#s#saD#saDaDarau#day#Gawax#J",
".T.b.X.t.f.t#t#t#t#t#t#t#t#taI#N#faDaD#saD#saD.K.Waqamavawax#J.T",
".T#k#Z.eaG.oaGac#HaGaGaK.R#1.2.yar.7aD#saD.7.K#o.F.z.0aw.9#J.T.T",
"at.T.T.T.vadad#9.vad.U.U.l.G#..I.m#p.7aDaD.7#Aapas#M.6.9#J.T.Tat",
"at.Tat.T.T.Tat.Tatat.T#J.AaJ#habaC#p#QaD.7ar.W#d#eazaE#J.Tat.T.T",
".Tat.T.Tat.T.T.T.T.T.5.O#3.uay#d.War.aaD.7#o#xam#G#Iax.T.T.T.Tat",
".Tat.T.T.T.Tat.TataH.j#K.vaw.0#D#x.m#V.7arauaA#e.6.9.T.T.Tat.T.T",
".T.T.T.T.T.T.T.T#R.j.i.T#J#zazayao.j#Y#AaCaqam#G#Iax.T.Tat.T.Tat",
".T.Tat.Tat.T.Jaf.j.i.T.T#J.9aaaJ.jaoapau.Fas#M#LaE.T.T.T.Tat.Tat",
"#J.T.T.T.T.T#R.j.i.T.Tat.T#K.j.j#..z.NaA#D#e#c#zax.T.Tat.T.T.Tat",
"ax#J.T.T.T#R.jaH.Tat.T.T.T.O#K#z#L.0#e#e#M#c#Iax#J.T.T.T.T.Tat.T",
"ax#J.T.TaF.jafat.T.T.Tat.Tat.Tax#z.6azaz.6#z.9#J.T.Tat.T#zaF#Xat",
"ax#J.T.J.j.j.5.T.Tat.T.T.T.T.T#JaxaE#z#z.9ax#J.Tat.T.T.T#R.j.5.T",
"#J#J.TaH.jaf.T.Tat.T.Tat.Tat.T.T.T#Jaxax#J#J.T.T.T.Tat.T.jaf.Tat",
"#J.T.T.j.jaHat.T.Tat.T.T.T.T.T.T.T.T#J.T.T.Tat.Tat.T.T.i.jaH.T.T",
".T.T.T.j.j.Jat.T.T.T.Tatat.Tat.T.T.T.T.T.T.T.T.T.T.TataH.j#Xatat",
"at.Tat.j#Rat.Tat.Tat.T.T.T.T.T.Tat.T.Tat.Tat.Tat.Tat#X.j.O.i.5.T",
".Tat.T.j#R.Tat.T.T.T.Tat.Tat.T.T.T.Tat#I.j.i.T.T#V#X.J.jaHat.Tat",
"at.Tat.j.dat.Tat.Tat.T.T.T.Tat.Tat.T.TaH.j.Aat#Xaf.TaF.j.i.Tat.T",
".Tat.T.j#R.Tat.T.T.Tat.Tat.T.T.T.T.Tataf.j.T.TaFaF.T.O.jat.T.T.T",
"at.Tat.j.j.5.T.Tat.Tat.T.T.Tat.Tat.T.J.j#R.T.TaH.T.5.j#R.T.Tat.T",
".Tat.TaH.jaf.J.T.T.Tat.Tat.i.i#I.T.T.i.j.i.TaF.J.TaF.j.i.J.T.T.T",
"at.TatataH.j.j#R.i.iaFaHaH#I.Tat.Tat.q.jaJaF.i.TataH.jaHaH.Tat.T",
".Tat.Tatatat.5.i.i.iatat.Tat.T.T.T.T.T.5.i.T.Tat.Tat.i.5.Tat.Tat",
".Tat.Tat.T.T.T.T.Tat.T.Tat.Tatatatatat.Tat.Tat.Tat.Tat.Tat.Tat.T"
};
SIMPLE  =                    T                                                  BITPIX  =                    8                                                  NAXIS   =                    2                                                  NAXIS1  =                   32                                                  NAXIS2  =                   32                                                  HISTORY Written by XV 3.10a                                                     END                                                                                                                                                                                                                                                                                                                                                                                                                                                                                                                                                                                                                                                                                                                                                                                                                                                                                                                                                                                                                                                                                                                                                                                                                                                                                                                                                                                                                                                                                                                                                                                                                                                                                                                                                                                                                                                                                                                                                                                                                                                                                                                                                                                                                                                                                                                                                                                                                                                                                             ∫º∫º∫∫∫∫∫º∫∫º∫ººººº∫º∫º∫º∫º∫º∫º∫∫º∫ºººôáááºº∫º∫∫∫∫∫ôá∫∫º∫ºáô∫º∫ºº∫ººdTáávddÆ∫º∫º®Zvá∫ºddd∫º∫∫º∫d1™∫∫∫º∫ºááÆ∫∫áá∫v™∫vá™∫∫∫º∫ºô∫∫º∫º∫∫∫º∫º∫™T∫∫d∫ôT∫∫º∫∫º∫T∫º∫∫∫º∫º∫∫∫∫∫º1∫∫vv∫Bº∫∫∫º∫ºRº∫º∫º∫∫∫∫º∫º∫∫d†ºö1∫vá∫º∫∫º∫T∫º∫∫∫∫º∫º∫∫∫∫ºÆá∫∫)ö™dº∫ºº∫ºTº∫º∫º∫∫∫∫∫∫º∫∫º∫º∫º∫ºöBáô∫∫∫∫™º∫∫∫∫ºº∫º∫∫∫∫∫∫∫∫∫∫∫ºdöºº∏∫∫dº∫∫º∫∫∫∫∫∫∫∫∏∫∫∫º∫º∫∫ád∫∫∏∏∫d1∫∫º∫∫º∫º∫∫∫∏∂∂∏∏∫∫∫∫º∫1∫º∂∏∫™ô∫∫º∫∫∫∫∫∏∂≤∞∞¥∂∏∫º∫∫∫Tô∫∂∏∫∫v1º∫∫∫º∫º∫∂∞™¶¶™∞¥∏∫∫º∫∞vöº∂∏∫∫∫Td∫º∫∫∫Bt∞®ûòòú§Æ∂∏∫∫∫∫∫º∫∏∫∫∫∫∫Tá∫∫º∫tsêäàéò§∞∂∫∫º∫∫∫º∫∫º∫º∫™1á∫∫∏¥úZe~zÇåú®≤∫∫∫∫º∫º∫∫∫∫∫∫∫∫Tá∫∏∞¶ñeWrvÑí¢Æ∂∫∫º∫∫º∫º∫∫∫∫º∫ºdtÆ¨ûéÄS)lpzàò™¥∫∫∫º∫∫∫º∫∫º∫∫∫∫∫ôBPòñÜxp0jltÄí¢Æ∂∫∫∫∫ºº∫º∫∫∫º∫ºº∫∏†ZRav[8jlpxÜò¶≤∏∫º∫∫º∫∫∫ÆëëöÆëççêîs]S[ljjlr~åú™¥∏∫∫º∫x9íD:DPãDDCL--pljhjlntÇêû¨¥∏∫∫∫lSñyñùùùùùùùùå*cjjhjhjnxÑí†¨∂∏∫∫(i§ùùùùùù£âX!HdjhhjhjjpzÜñ¢¨∂∏∫*d1àù°ùùü°†C:dH9jjjhjhjlp|àî¢¨¥∫*ùÄ
XD81åZÉùH1jhhjhjhjnt|äî†™∫*ùùn8{RC64èùthhjhjhjhjnt|àîú∂(´w
eôûûâå_!Z|9jhjjhjhjhlnv|Üéö!`]{yyyyyi]=6\9hjhhhjhjhjlptzÄfDBC@?==99?JHHY9hjjjjjhhjhjlnrxåêêéåàÑÄ|srplljjeehhhhejhjhjjjnp                                                                                                                                                                                                                                                                                                                                                                                                                                                                                                                                                                                                                                                                                                                                                                                                                                                                                                                                                                                                                                                                                                                                                                                                                                                                                                                                                                                                                                                                                                                                                                                                                                                                                                                                                                                                                                                                                                                                