/* XPM */
static char * mini_kmailcvt_xpm[] = {
"16 18 194 2",
"  	c None",
". 	c #AB6015",
"+ 	c #8F7031",
"@ 	c #9C6424",
"# 	c #A5551D",
"$ 	c #A3471C",
"% 	c #A73D1E",
"& 	c #B33A21",
"* 	c #BB3721",
"= 	c #CF2B15",
"- 	c #EA2F16",
"; 	c #EB2F16",
"> 	c #EC2F16",
", 	c #EC3016",
"' 	c #EC3516",
") 	c #EC4116",
"! 	c #7B6813",
"~ 	c #287F60",
"{ 	c #0E8377",
"] 	c #20B7A0",
"^ 	c #26B099",
"/ 	c #199F92",
"( 	c #115852",
"_ 	c #2C7167",
": 	c #B12815",
"< 	c #ED3016",
"[ 	c #ED3416",
"} 	c #ED4416",
"| 	c #ED5E16",
"1 	c #8D8214",
"2 	c #17E4CD",
"3 	c #225A3F",
"4 	c #1B9983",
"5 	c #177262",
"6 	c #0F8176",
"7 	c #266659",
"8 	c #25B1A4",
"9 	c #9D2514",
"0 	c #EC3116",
"a 	c #EC4016",
"b 	c #EC6216",
"c 	c #EC8B16",
"d 	c #8D8414",
"e 	c #069C94",
"f 	c #21AD90",
"g 	c #15C1AC",
"h 	c #13B4A2",
"i 	c #38C9A1",
"j 	c #27624F",
"k 	c #198B81",
"l 	c #B02A15",
"m 	c #ED3816",
"n 	c #EC5C16",
"o 	c #EC8C16",
"p 	c #EDB616",
"q 	c #A19414",
"r 	c #148A77",
"s 	c #17E1CA",
"t 	c #09F1E5",
"u 	c #20EBD0",
"v 	c #26C3AA",
"w 	c #17665D",
"x 	c #DD3416",
"y 	c #ED2F16",
"z 	c #ED3316",
"A 	c #ED5016",
"B 	c #ED8416",
"C 	c #ECB516",
"D 	c #ECCD16",
"E 	c #D0BC16",
"F 	c #8FA12E",
"G 	c #66812E",
"H 	c #668634",
"I 	c #79A13F",
"J 	c #607D32",
"K 	c #838C3C",
"L 	c #6E3D1B",
"M 	c #DC3415",
"N 	c #EC3316",
"O 	c #ED7616",
"P 	c #EDAD16",
"Q 	c #EDCC16",
"R 	c #ECD216",
"S 	c #EDD316",
"T 	c #ECD316",
"U 	c #E6CD16",
"V 	c #E3CB16",
"W 	c #CFAD14",
"X 	c #BD7B12",
"Y 	c #BF5013",
"Z 	c #D73814",
"` 	c #C32413",
" .	c #EC3816",
"..	c #EC5E16",
"+.	c #ED9C16",
"@.	c #EDC616",
"#.	c #EDD216",
"$.	c #C69C13",
"%.	c #97580F",
"&.	c #DBA615",
"*.	c #EC8816",
"=.	c #D24014",
"-.	c #B32112",
";.	c #EC4716",
">.	c #EC7C16",
",.	c #ECB816",
"'.	c #ECD016",
").	c #C39813",
"!.	c #80380E",
"~.	c #E1C216",
"{.	c #EDC816",
"].	c #D08414",
"^.	c #8A250E",
"/.	c #E24916",
"(.	c #ED6316",
"_.	c #ED9A16",
":.	c #ECC616",
"<.	c #ECD215",
"[.	c #ECCE16",
"}.	c #D7B415",
"|.	c #762A0D",
"1.	c #DEBF15",
"2.	c #C19313",
"3.	c #8C440E",
"4.	c #DE8715",
"5.	c #ED7C16",
"6.	c #ED8F16",
"7.	c #EDB817",
"8.	c #EDCF16",
"9.	c #ECCC16",
"0.	c #E9CD16",
"a.	c #7D340D",
"b.	c #B48312",
"c.	c #E5C816",
"d.	c #E8C715",
"e.	c #ECB916",
"f.	c #ECAD16",
"g.	c #ECCB16",
"h.	c #AF7C11",
"i.	c #DEBE15",
"j.	c #C59A13",
"k.	c #65120B",
"l.	c #E8CD16",
"m.	c #ECC816",
"n.	c #E8CC16",
"o.	c #6B1A0C",
"p.	c #EDD116",
"q.	c #A36A10",
"r.	c #91510F",
"s.	c #C69D13",
"t.	c #8A470E",
"u.	c #EBD116",
"v.	c #A46B11",
"w.	c #BB8D13",
"x.	c #EBD316",
"y.	c #BC8D12",
"z.	c #C09312",
"A.	c #97590F",
"B.	c #E4C816",
"C.	c #A36B11",
"D.	c #BB8D12",
"E.	c #BD8E12",
"F.	c #995B10",
"G.	c #B68512",
"H.	c #7B310D",
"I.	c #DCBC15",
"J.	c #EDD416",
"K.	c #AC7711",
"L.	c #8E4D0E",
"M.	c #E9D016",
"N.	c #E6CA16",
"O.	c #E4C716",
"P.	c #9A5D0F",
"Q.	c #BD8F12",
"R.	c #C59B13",
"S.	c #D5B114",
"T.	c #772B0D",
"U.	c #EAD016",
"V.	c #E0C115",
"W.	c #813A0E",
"X.	c #A06610",
"Y.	c #CAA313",
"Z.	c #C9A013",
"`.	c #E2C415",
" +	c #9E6310",
".+	c #B48211",
"++	c #D2AD14",
"@+	c #CBA313",
"#+	c #89450E",
"$+	c #D3AE14",
"%+	c #DAB914",
"&+	c #D7B514",
"*+	c #E5C916",
"=+	c #DABA15",
". + @ # $ % & * = - ; ; > , ' ) ",
"! ~ { ] ^ / ( _ : < < > > [ } | ",
"1 2 3 4 5 6 7 8 9 > , , 0 a b c ",
"d e f g h i j k l > > < m n o p ",
"q r s t t u v w x > y z A B C D ",
"E F G H I J K L M 0 N } O P Q R ",
"S T U V U W X Y Z `  ...+.@.#.T ",
"T R R R $.%.&.*.=.-.;.>.,.'.R T ",
"R R #.).!.~.{.].^./.(._.:.<.<.T ",
"[.R }.|.1.T 2.3.4.5.6.7.8.S S T ",
"9.0.a.b.R R c.d.e.f.e.g.R R h.i.",
"[.j.k.l.T R R R D m.D R R n.o.l.",
"p.q.r.T R R T R R p.#.R R s.t.u.",
"S v.w.x.R R #.#.R l.y.#.z.A.h.B.",
"T C.D.T T R R R R E.F.}.G.H.I.T ",
"J.K.L.M.R T N.O.#.P.Q.R.S.T.U.R ",
"S V.W.X.Y.).Z.`.#. +.+++@+#+$+T ",
"T T T %+&+T T T T *+`.T T =+T T "};
