/* XPM */
static const char * fastsync_xpm[] = {
"16 16 3 1",
"      c None",
".     c #004000",
"+     c #FFFFFF",
"      ....      ",
"    ........    ",
"   ...++++...   ",
"  ..++++.+++..  ",
" ..+++++..+++.. ",
" ..+++.....++.. ",
"..+++......++.+.",
"..++...+..+++.+.",
"..+...++.+++..+.",
"..+..++++++...+.",
" .+..+++++...+. ",
" .+...++.....+. ",
"  .+...+....+.  ",
"   .++....++.   ",
"    ..++++..    ",
"      ....      "};
