/* XPM */
static char*kpilot_conduit[]={
"35 49 7 1",
"d c #bebebe",
"a c #727272",
"b c #7a8a74",
"e c #00ffff",
"# c #000000",
". c None",
"c c #ff0000",
"...................................",
"...................................",
"...................................",
"....############################...",
"....#aaaaaaaaaaaaaaaaaaaaaaaaaa#...",
"....#aaaaaaaaaaaaaaaaaaaaaaaaaa#...",
"....#aa######################aa#...",
"....#aa#bbbbbbbbbbbbbbbbbbbb#aa#...",
"....#aa#bbbbbbbbbbbbbbbbbbbb#aa#...",
"....#aa#bbbbbbbbbbbbbbbbbbbb#aa#...",
"....#aa#bbbbbbbbbbbbbbbbbbbb#aa#...",
"....#ac#bbbbbbbbbbbbbbbbbbbc#aa#...",
"....#accbbbbbbbbbbbbbbbbbbbccaa#...",
"....#acccbbbbbbbbbbbbbbbbbbccca#...",
"....#accccbbbbbbbbbbbbbbbbbcccc#...",
"cccccccccccbbbbbbbbbbbcccccccccc...",
"ccccccccccccbbbbbbbbbbccccccccccc..",
"cccccccccccccbbbbbbbbbcccccccccccc.",
"ccccccccccccccbbbbbbbbccccccccccccc",
"cccccccccccccbbbbbbbbbcccccccccccc.",
"ccccccccccccbbbbbbbbbbccccccccccc..",
"cccccccccccbbbbbbbbbbbcccccccccc...",
"....#accccbbbbbbbbbbbbbbbbbcccc#...",
"....#acccbbbbbbbbbbbbbbbbbbccca#...",
"....#accbbbbbbbbbbbbbbbbbbbccaa#...",
"....#ac#bbbbbbbbbbbbbbbbbbbc#aa#...",
"....#aa#bbbbbbbbbbbbbbbbbbbb#aa#...",
"....#aa#bbbbbbbbbbbbbbbbbbbb#aa#...",
"....#aa######################aa#...",
"....#aa#dddddddddddddddddddd#aa#...",
"....#aa#d##d#d#d#d#d#d#dd##d#aa#...",
"....#aa#d##dddddddddddd#d##d#aa#...",
"....#aa#dddd#ddddddddddddddd#aa#...",
"....#aa#d##dddddddddddd#d##d#aa#...",
"....#aa#d##d#d#d#d#d#d#dd##d#aa#...",
"....#aa#dddddddddddddddddddd#aa#...",
"....#aa######################aa#...",
"...##aaaaaaaaaaaaaaaaaaaaaaaaaa#...",
"...#eeaa##a##aaaaddaaaa##a##aaa#...",
"...#eea#da#da#aadaadaa#da#da#aa#...",
"...#eea#aa#aa#aaaaaaaa#aa#aa#aa#...",
"...##aaa##a##aaadaadaaa##a##aaa#...",
"....##aaaaaaaaaaaddaaaaaaaaaaa##...",
".....#aaaaaaaaaaaaaaaaaaaaaaaa#....",
".....#aaaaaaaaaaaaaaaaaaaaaaaa#....",
".....##########################....",
"...................................",
"...................................",
"..................................."};
