/* XPM */
static const char *kpilot[]={
"35 49 6 1",
"c c #bebebe",
"a c #727272",
"b c #7a8a74",
"d c #00ffff",
"# c #000000",
". c None",
"...................................",
"...................................",
"...................................",
"....############################...",
"....#aaaaaaaaaaaaaaaaaaaaaaaaaa#...",
"....#aaaaaaaaaaaaaaaaaaaaaaaaaa#...",
"....#aa######################aa#...",
"....#aa#bbbbbbbbbbbbbbbbbbbb#aa#...",
"....#aa#bbbbbbbbbbbbbbbbbbbb#aa#...",
"....#aa#bbbbbbbbbbbbbbbbbbbb#aa#...",
"....#aa#bbbbbbbbbbbbbbbbbbbb#aa#...",
"....#aa#bbbbbbbbbbbbbbbbbbbb#aa#...",
"....#aa#bbbbbbbbbbbbbbbbbbbb#aa#...",
"....#aa#bbbbbbbbbbbbbbbbbbbb#aa#...",
"....#aa#bbbbbbbbbbbbbbbbbbbb#aa#...",
"....#aa#bbbbbbbbbbbbbbbbbbbb#aa#...",
"....#aa#bbbbbbbbbbbbbbbbbbbb#aa#...",
"....#aa#bbbbbbbbbbbbbbbbbbbb#aa#...",
"....#aa#bbbbbbbbbbbbbbbbbbbb#aa#...",
"....#aa#bbbbbbbbbbbbbbbbbbbb#aa#...",
"....#aa#bbbbbbbbbbbbbbbbbbbb#aa#...",
"....#aa#bbbbbbbbbbbbbbbbbbbb#aa#...",
"....#aa#bbbbbbbbbbbbbbbbbbbb#aa#...",
"....#aa#bbbbbbbbbbbbbbbbbbbb#aa#...",
"....#aa#bbbbbbbbbbbbbbbbbbbb#aa#...",
"....#aa#bbbbbbbbbbbbbbbbbbbb#aa#...",
"....#aa#bbbbbbbbbbbbbbbbbbbb#aa#...",
"....#aa#bbbbbbbbbbbbbbbbbbbb#aa#...",
"....#aa######################aa#...",
"....#aa#cccccccccccccccccccc#aa#...",
"....#aa#c##c#c#c#c#c#c#cc##c#aa#...",
"....#aa#c##cccccccccccc#c##c#aa#...",
"....#aa#cccc#ccccccccccccccc#aa#...",
"....#aa#c##cccccccccccc#c##c#aa#...",
"....#aa#c##c#c#c#c#c#c#cc##c#aa#...",
"....#aa#cccccccccccccccccccc#aa#...",
"....#aa######################aa#...",
"...##aaaaaaaaaaaaaaaaaaaaaaaaaa#...",
"...#ddaa##a##aaaaccaaaa##a##aaa#...",
"...#dda#ca#ca#aacaacaa#ca#ca#aa#...",
"...#dda#aa#aa#aaaaaaaa#aa#aa#aa#...",
"...##aaa##a##aaacaacaaa##a##aaa#...",
"....##aaaaaaaaaaaccaaaaaaaaaaa##...",
".....#aaaaaaaaaaaaaaaaaaaaaaaa#....",
".....#aaaaaaaaaaaaaaaaaaaaaaaa#....",
".....##########################....",
"...................................",
"...................................",
"..................................."};
