/* XPM */
static const char * kpilot_xpm[] = {
"35 49 5 1",
" 	c #7A8A74",
".	c #BEBEBE",
"X	c #000000",
"o	c #727272",
"+	c #00FFFF",
"...................................",
"...................................",
"...................................",
"....XXXXXXXXXXXXXXXXXXXXXXXXXXXX...",
"....XooooooooooooooooooooooooooX...",
"....XooooooooooooooooooooooooooX...",
"....XooXXXXXXXXXXXXXXXXXXXXXXooX...",
"....XooX                    XooX...",
"....XooX                    XooX...",
"....XooX                    XooX...",
"....XooX                    XooX...",
"....XooX                    XooX...",
"....XooX                    XooX...",
"....XooX                    XooX...",
"....XooX                    XooX...",
"....XooX                    XooX...",
"....XooX                    XooX...",
"....XooX                    XooX...",
"....XooX                    XooX...",
"....XooX                    XooX...",
"....XooX                    XooX...",
"....XooX                    XooX...",
"....XooX                    XooX...",
"....XooX                    XooX...",
"....XooX                    XooX...",
"....XooX                    XooX...",
"....XooX                    XooX...",
"....XooX                    XooX...",
"....XooXXXXXXXXXXXXXXXXXXXXXXooX...",
"....XooX....................XooX...",
"....XooX.XX.X.X.X.X.X.X..XX.XooX...",
"....XooX.XX............X.XX.XooX...",
"....XooX....X...............XooX...",
"....XooX.XX............X.XX.XooX...",
"....XooX.XX.X.X.X.X.X.X..XX.XooX...",
"....XooX....................XooX...",
"....XooXXXXXXXXXXXXXXXXXXXXXXooX...",
"...XXooooooooooooooooooooooooooX...",
"...X++ooXXoXXoooo..ooooXXoXXoooX...",
"...X++oX.oX.oXoo.oo.ooX.oX.oXooX...",
"...X++oXooXooXooooooooXooXooXooX...",
"...XXoooXXoXXooo.oo.oooXXoXXoooX...",
"....XXooooooooooo..oooooooooooXX...",
".....XooooooooooooooooooooooooX....",
".....XooooooooooooooooooooooooX....",
".....XXXXXXXXXXXXXXXXXXXXXXXXXX....",
"...................................",
"...................................",
"..................................."};
