/* XPM */
static char*mini[]={
"17 24 6 1",
". c #808080",
"c c #bebebe",
"a c #727272",
"b c #7a8a74",
"d c #00ffff",
"# c #000000",
".................",
".................",
"..#aaaaaaaaaaaaa.",
"..#a###########a.",
"..#abbbbbbbbbb#a.",
"..#abbbbbbbbbb#a.",
"..#abbbbbbbbbb#a.",
"..#abbbbbbbbbb#a.",
"..#abbbbbbbbbb#a.",
"..#abbbbbbbbbb#a.",
"..#abbbbbbbbbb#a.",
"..#abbbbbbbbbb#a.",
"..#abbbbbbbbbb#a.",
"..#abbbbbbbbbb#a.",
"..#a###########a.",
"..#ac#######c##a.",
"..#acc#ccccccc#a.",
"..#ac#######c##a.",
"..#a###########a.",
"..da#a#aacaa##aa.",
"..daa#aaaaa#aa#a.",
"..#aaaaaacaaaaa#.",
"...aaaaaaaaaaaa#.",
"................."};
