/* XPM */
static const char *toolbar_backup[]={
"22 22 5 1",
"b c #808080",
"# c #000000",
". c None",
"a c #ffffff",
"d c #004000",
"......................",
"......................",
"......................",
"......................",
"....#############.....",
"....#d##aaaaaa..#b....",
"....#dd#####aa..#b....",
".####ddd##aaaa..#b....",
".#ddddddd##aaa..#b....",
".#dddddddd#aaa..#b....",
".#ddddddd##aaa..#b....",
".####ddd##......#b....",
"....#dd##bbbbbbb#b....",
"....#d##bbbbbbbb#b....",
"....###b.....bb.#b....",
"....#.bb..bb.bb.#b....",
"....#.bb..bb.bb.#b....",
"....#############b....",
".....bbbbbbbbbbbbb....",
"......................",
"......................",
"......................"};
