/* XPM */
static const char *toolbar_backup[]={
"22 22 4 1",
"b c #808080",
"# c #000000",
". c None",
"a c #ffffff",
"......................",
"......................",
"......................",
"....###...............",
"....#a###########.....",
"....#aa##aaaaa..#b....",
"....#aaa####aa..#b....",
".####aaaa##aaa..#b....",
".#aaaaaaaa##aa..#b....",
".#aaaaaaaaa#aa..#b....",
".#aaaaaaaa##aa..#b....",
".####aaaa##.....#b....",
"....#aaa##bbbbbb#b....",
"....#aa##bbbbbbb#b....",
"....#a##.....bb.#b....",
"....###b..bb.bb.#b....",
"....#.bb..bb.bb.#b....",
"....#############b....",
".....bbbbbbbbbbbbb....",
"......................",
"......................",
"......................"};
