/* XPM */
static const char *toolbar_restore[]={
"22 22 5 1",
"b c #808080",
"# c #000000",
". c None",
"a c #ffffff",
"d c #ff0000",
"......................",
"......................",
"......................",
"......................",
"....#############.....",
"....###aaaaaaa..#b....",
"...##d#aaaaaaa..#b....",
"..##dd#####aaa..#b....",
".##ddddddd#aaa..#b....",
".#dddddddd#aaa..#b....",
".##ddddddd#aaa..#b....",
"..##dd#####.....#b....",
"...##a#bbbbbbbbb#b....",
"....###bbbbbbbbb#b....",
"....###b.....bb.#b....",
"....#.bb..bb.bb.#b....",
"....#.bb..bb.bb.#b....",
"....#############b....",
".....bbbbbbbbbbbbb....",
"......................",
"......................",
"......................"};
