/* XPM */
static const char *toolbar_restore[]={
"22 22 5 1",
"b c #808080",
"# c #000000",
". c None",
"a c #ffffff",
"d c #ff0000",
"......................",
"......................",
"......................",
"......................",
"....#############.....",
"....#a###aaaaa..#b....",
"....##dd#aaaaa..#b....",
"..##dddd#####a..#b....",
"##dddddddddd#a..#b....",
"#ddddddddddd#a..#b....",
"##dddddddddd#a..#b....",
"..##dddd#####...#b....",
"....##dd#bbbbbbb#b....",
"....#.###bbbbbbb#b....",
"....#.bb.....bb.#b....",
"....#.bb..bb.bb.#b....",
"....#.bb..bb.bb.#b....",
"....#############b....",
".....bbbbbbbbbbbbb....",
"......................",
"......................",
"......................"};
