/* XPM */
static char*toolbar_backup[]={
"22 22 4 1",
"b c #808080",
"# c #000000",
". c None",
"a c #ffffff",
"......................",
"......................",
"......................",
"......................",
"....#############.....",
"....#a##aaaaaa..#b....",
"....#aa#####aa..#b....",
".####aaa##aaaa..#b....",
".#aaaaaaa##aaa..#b....",
".#aaaaaaaa#aaa..#b....",
".#aaaaaaa##aaa..#b....",
".####aaa##......#b....",
"....#aa##bbbbbbb#b....",
"....#a##bbbbbbbb#b....",
"....###b.....bb.#b....",
"....#.bb..bb.bb.#b....",
"....#.bb..bb.bb.#b....",
"....#############b....",
".....bbbbbbbbbbbbb....",
"......................",
"......................",
"......................"};
