<?xml version="1.0" encoding="UTF-8" standalone="no"?>
<!-- Created with Inkscape (http://www.inkscape.org/) -->
<svg
   xmlns:dc="http://purl.org/dc/elements/1.1/"
   xmlns:cc="http://creativecommons.org/ns#"
   xmlns:rdf="http://www.w3.org/1999/02/22-rdf-syntax-ns#"
   xmlns:svg="http://www.w3.org/2000/svg"
   xmlns="http://www.w3.org/2000/svg"
   xmlns:xlink="http://www.w3.org/1999/xlink"
   xmlns:sodipodi="http://sodipodi.sourceforge.net/DTD/sodipodi-0.dtd"
   xmlns:inkscape="http://www.inkscape.org/namespaces/inkscape"
   width="744.09448819"
   height="1052.3622047"
   id="svg2347"
   sodipodi:version="0.32"
   inkscape:version="0.46"
   sodipodi:docbase="/Users/thomasmoenicke/kdab/Thomas/kleopatra"
   sodipodi:docname="kleopatra_wizard.svg"
   inkscape:output_extension="org.inkscape.output.svg.inkscape"
   inkscape:export-filename="/Users/thomasmoenicke/kdab/Thomas/kleopatra/pyramide_kleo_2.png"
   inkscape:export-xdpi="90"
   inkscape:export-ydpi="90">
  <defs
     id="defs2349">
    <linearGradient
       id="linearGradient3623">
      <stop
         id="stop3625"
         offset="0"
         style="stop-color:#2d2d2d;stop-opacity:1;" />
      <stop
         style="stop-color:#636363;stop-opacity:0;"
         offset="0.62931228"
         id="stop3627" />
      <stop
         id="stop3629"
         offset="1"
         style="stop-color:#9a9a9a;stop-opacity:0.68531471;" />
    </linearGradient>
    <linearGradient
       id="linearGradient3366">
      <stop
         style="stop-color:#000000;stop-opacity:1;"
         offset="0"
         id="stop3368" />
      <stop
         style="stop-color:#000000;stop-opacity:1;"
         offset="1"
         id="stop3370" />
    </linearGradient>
    <inkscape:perspective
       sodipodi:type="inkscape:persp3d"
       inkscape:vp_x="0 : 526.18109 : 1"
       inkscape:vp_y="0 : 1000 : 0"
       inkscape:vp_z="744.09448 : 526.18109 : 1"
       inkscape:persp3d-origin="372.04724 : 350.78739 : 1"
       id="perspective3428" />
    <linearGradient
       id="linearGradient3966">
      <stop
         id="stop3968"
         offset="0"
         style="stop-color:#ffffff;stop-opacity:1;" />
      <stop
         id="stop3970"
         offset="1"
         style="stop-color:#ffffff;stop-opacity:0.5714286;" />
    </linearGradient>
    <linearGradient
       id="linearGradient3914">
      <stop
         id="stop3916"
         offset="0"
         style="stop-color:#ffffff;stop-opacity:1;" />
      <stop
         id="stop3918"
         offset="1"
         style="stop-color:#ebebeb;stop-opacity:1;" />
    </linearGradient>
    <linearGradient
       id="linearGradient3331">
      <stop
         id="stop3333"
         offset="0"
         style="stop-color:#760000;stop-opacity:1;" />
      <stop
         id="stop3335"
         offset="1"
         style="stop-color:#b90505;stop-opacity:1;" />
    </linearGradient>
    <filter
       inkscape:collect="always"
       id="filter3581">
      <feGaussianBlur
         inkscape:collect="always"
         stdDeviation="6.2940002"
         id="feGaussianBlur3583" />
    </filter>
    <linearGradient
       id="linearGradient3345">
      <stop
         style="stop-color:#e2e2e2;stop-opacity:0.82462686;"
         offset="0"
         id="stop3347" />
      <stop
         style="stop-color:#e2e2e2;stop-opacity:0.18283582;"
         offset="1"
         id="stop3349" />
    </linearGradient>
    <linearGradient
       id="linearGradient3248">
      <stop
         id="stop3250"
         offset="0"
         style="stop-color:#ffffff;stop-opacity:1;" />
      <stop
         id="stop3252"
         offset="1"
         style="stop-color:#000db1;stop-opacity:0;" />
    </linearGradient>
    <linearGradient
       id="linearGradient3419">
      <stop
         style="stop-color:#c8bfff;stop-opacity:1;"
         offset="0"
         id="stop3421" />
      <stop
         style="stop-color:#bababa;stop-opacity:0;"
         offset="1"
         id="stop3423" />
    </linearGradient>
    <linearGradient
       id="linearGradient3456">
      <stop
         style="stop-color:#9ba7e9;stop-opacity:1;"
         offset="0"
         id="stop3458" />
      <stop
         style="stop-color:#ffffff;stop-opacity:1;"
         offset="1"
         id="stop3460" />
    </linearGradient>
    <linearGradient
       id="linearGradient3450">
      <stop
         id="stop3452"
         offset="0"
         style="stop-color:#7676c4;stop-opacity:1;" />
      <stop
         id="stop3454"
         offset="1"
         style="stop-color:#ffffff;stop-opacity:1;" />
    </linearGradient>
    <linearGradient
       id="linearGradient3351"
       gradientTransform="matrix(1.2965262,0,0,0.7712918,-104.49033,87.927002)"
       x1="139.22264"
       y1="535.67197"
       x2="348.73408"
       y2="535.67197"
       gradientUnits="userSpaceOnUse">
      <stop
         style="stop-color:#ffffff;stop-opacity:1;"
         offset="0"
         id="stop3353" />
      <stop
         style="stop-color:#e3e3e3;stop-opacity:0;"
         offset="1"
         id="stop3355" />
    </linearGradient>
    <linearGradient
       inkscape:collect="always"
       xlink:href="#linearGradient3456"
       id="linearGradient3357"
       x1="11.701612"
       y1="327.79111"
       x2="107.70275"
       y2="530.94836"
       gradientUnits="userSpaceOnUse"
       gradientTransform="translate(204.78102,57.001083)" />
    <filter
       inkscape:collect="always"
       id="filter3436">
      <feGaussianBlur
         inkscape:collect="always"
         stdDeviation="3.6915"
         id="feGaussianBlur3438" />
    </filter>
    <linearGradient
       inkscape:collect="always"
       xlink:href="#linearGradient3450"
       id="linearGradient3448"
       x1="507.91718"
       y1="562.54816"
       x2="376.94458"
       y2="432.23849"
       gradientUnits="userSpaceOnUse" />
    <linearGradient
       inkscape:collect="always"
       xlink:href="#linearGradient3450"
       id="linearGradient3576"
       gradientUnits="userSpaceOnUse"
       x1="507.91718"
       y1="562.54816"
       x2="376.94458"
       y2="432.23849" />
    <linearGradient
       inkscape:collect="always"
       xlink:href="#linearGradient3456"
       id="linearGradient3578"
       gradientUnits="userSpaceOnUse"
       gradientTransform="translate(204.78102,57.001083)"
       x1="11.701612"
       y1="364.15659"
       x2="119.54982"
       y2="519.44879" />
    <linearGradient
       y2="443.07645"
       x2="89.999992"
       y1="443.07645"
       x1="599.28564"
       gradientTransform="matrix(0.3211781,0,0,10.899515,65.022534,-4228.3848)"
       gradientUnits="userSpaceOnUse"
       id="linearGradient3374"
       xlink:href="#linearGradient3376"
       inkscape:collect="always" />
    <linearGradient
       id="linearGradient3159">
      <stop
         id="stop3161"
         offset="0"
         style="stop-color:#484848;stop-opacity:1;" />
      <stop
         style="stop-color:#b3b3b3;stop-opacity:1;"
         offset="0.01"
         id="stop3171" />
      <stop
         style="stop-color:#eee9e9;stop-opacity:1;"
         offset="0.95999998"
         id="stop3167" />
      <stop
         id="stop3163"
         offset="1"
         style="stop-color:#ffffff;stop-opacity:1;" />
    </linearGradient>
    <linearGradient
       id="linearGradient3376">
      <stop
         id="stop3382"
         offset="0"
         style="stop-color:#ffffff;stop-opacity:0.75510204;" />
      <stop
         style="stop-color:#ffffff;stop-opacity:0.45918366;"
         offset="0.5151515"
         id="stop3395" />
      <stop
         style="stop-color:#ffffff;stop-opacity:0;"
         offset="1"
         id="stop3384" />
    </linearGradient>
    <filter
       inkscape:collect="always"
       x="-0.1625842"
       width="1.3251684"
       y="-0.57529796"
       height="2.1505959"
       id="filter3626">
      <feGaussianBlur
         inkscape:collect="always"
         stdDeviation="17.806841"
         id="feGaussianBlur3628" />
    </filter>
    <filter
       inkscape:collect="always"
       x="-0.036311873"
       width="1.0726237"
       y="-0.5031787"
       height="2.0063574"
       id="filter3696">
      <feGaussianBlur
         inkscape:collect="always"
         stdDeviation="33.416642"
         id="feGaussianBlur3698" />
    </filter>
    <linearGradient
       inkscape:collect="always"
       xlink:href="#linearGradient3914"
       id="linearGradient3912"
       x1="-737.14282"
       y1="902.36218"
       x2="-737.14282"
       y2="732.36218"
       gradientUnits="userSpaceOnUse"
       gradientTransform="matrix(1.0767758,0,0,0.6503563,1133.8467,280.48667)" />
    <linearGradient
       inkscape:collect="always"
       xlink:href="#linearGradient3159"
       id="linearGradient3988"
       gradientUnits="userSpaceOnUse"
       gradientTransform="matrix(0.5732306,0,0,20.176602,14.067287,-7538.0333)"
       x1="599.28564"
       y1="443.07645"
       x2="89.999992"
       y2="443.07645" />
    <linearGradient
       inkscape:collect="always"
       xlink:href="#linearGradient3966"
       id="linearGradient3990"
       gradientUnits="userSpaceOnUse"
       gradientTransform="matrix(1.0033833,0,0,1.0463677,-0.2105263,-43.61524)"
       x1="201.52544"
       y1="998.23566"
       x2="201.52545"
       y2="940.63928" />
    <linearGradient
       inkscape:collect="always"
       xlink:href="#linearGradient3159"
       id="linearGradient3992"
       gradientUnits="userSpaceOnUse"
       gradientTransform="matrix(0.3211781,0,0,10.899515,253.59397,-4243.1815)"
       x1="599.28564"
       y1="443.07645"
       x2="89.999992"
       y2="443.07645" />
    <linearGradient
       inkscape:collect="always"
       xlink:href="#linearGradient3376"
       id="linearGradient3994"
       gradientUnits="userSpaceOnUse"
       gradientTransform="translate(187.54708,-14.051665)"
       x1="100.65211"
       y1="410.45676"
       x2="284.03625"
       y2="614.11694" />
    <linearGradient
       inkscape:collect="always"
       xlink:href="#linearGradient3966"
       id="linearGradient3298"
       gradientUnits="userSpaceOnUse"
       gradientTransform="matrix(1.0078075,0,0,1.0463677,-0.2114546,-63.607227)"
       x1="201.52544"
       y1="998.23566"
       x2="201.52545"
       y2="940.63928" />
    <linearGradient
       inkscape:collect="always"
       xlink:href="#linearGradient3159"
       id="linearGradient3301"
       gradientUnits="userSpaceOnUse"
       gradientTransform="matrix(0.5732306,5.388979e-2,0,20.176602,14.067287,-7556.7028)"
       x1="599.28564"
       y1="443.07645"
       x2="89.999992"
       y2="443.07645" />
    <linearGradient
       inkscape:collect="always"
       xlink:href="#linearGradient3159"
       id="linearGradient3303"
       gradientUnits="userSpaceOnUse"
       gradientTransform="matrix(0.3211781,0,0,10.899515,253.59397,-4243.1815)"
       x1="599.28564"
       y1="443.07645"
       x2="89.999992"
       y2="443.07645" />
    <linearGradient
       inkscape:collect="always"
       xlink:href="#linearGradient3376"
       id="linearGradient3305"
       gradientUnits="userSpaceOnUse"
       gradientTransform="translate(187.54708,-14.051665)"
       x1="100.65211"
       y1="410.45676"
       x2="284.03625"
       y2="614.11694" />
    <linearGradient
       inkscape:collect="always"
       xlink:href="#linearGradient3376"
       id="linearGradient3308"
       gradientUnits="userSpaceOnUse"
       gradientTransform="matrix(1.7847748,0.1677879,0,1.8511468,-103.37509,-654.88147)"
       x1="100.65211"
       y1="410.45676"
       x2="284.03625"
       y2="614.11694" />
    <linearGradient
       inkscape:collect="always"
       xlink:href="#linearGradient3159"
       id="linearGradient3311"
       gradientUnits="userSpaceOnUse"
       gradientTransform="matrix(0.5732306,5.3889799e-2,0,20.176602,14.503737,-8472.5398)"
       x1="599.28564"
       y1="443.07645"
       x2="89.999992"
       y2="443.07645" />
    <linearGradient
       inkscape:collect="always"
       xlink:href="#linearGradient3331"
       id="linearGradient3494"
       gradientUnits="userSpaceOnUse"
       gradientTransform="translate(-104.49033,87.927002)"
       x1="188.9812"
       y1="369.99817"
       x2="265.72412"
       y2="447.36133" />
    <linearGradient
       inkscape:collect="always"
       xlink:href="#linearGradient3351"
       id="linearGradient3496"
       gradientUnits="userSpaceOnUse"
       gradientTransform="matrix(1.2965262,0,0,0.7712918,-104.49033,87.927002)"
       x1="139.22264"
       y1="535.67197"
       x2="348.73408"
       y2="535.67197" />
    <linearGradient
       inkscape:collect="always"
       xlink:href="#linearGradient3248"
       id="linearGradient3498"
       gradientUnits="userSpaceOnUse"
       gradientTransform="matrix(0.9663185,-0.2573489,0.1524628,0.5724822,-134.20077,328.13946)"
       x1="213.29019"
       y1="395.40402"
       x2="357.13394"
       y2="395.40402" />
    <linearGradient
       inkscape:collect="always"
       xlink:href="#linearGradient3248"
       id="linearGradient3500"
       gradientUnits="userSpaceOnUse"
       gradientTransform="matrix(1.16249,-0.3095931,0.2228451,0.8367603,-230.73689,237.24204)"
       x1="213.29019"
       y1="395.40402"
       x2="357.13394"
       y2="395.40402" />
    <linearGradient
       inkscape:collect="always"
       xlink:href="#linearGradient3419"
       id="linearGradient3502"
       gradientUnits="userSpaceOnUse"
       gradientTransform="translate(-104.49033,87.927002)"
       x1="375.38034"
       y1="517.2124"
       x2="224.40013"
       y2="473.27078" />
    <radialGradient
       inkscape:collect="always"
       xlink:href="#linearGradient3623"
       id="radialGradient3504"
       gradientUnits="userSpaceOnUse"
       gradientTransform="matrix(2.388274,-0.5306696,0.5159561,2.3220552,-1003.722,-989.8816)"
       cx="386.19394"
       cy="907.20697"
       fx="386.19394"
       fy="907.20697"
       r="29.000034" />
    <radialGradient
       inkscape:collect="always"
       xlink:href="#linearGradient3366"
       id="radialGradient3506"
       gradientUnits="userSpaceOnUse"
       gradientTransform="matrix(0.2174664,-5.3329899,-3.8738828,-0.1579676,2861.0138,7647.4811)"
       cx="1127.7542"
       cy="893.27466"
       fx="1127.7542"
       fy="893.27466"
       r="3.3387444" />
  </defs>
  <sodipodi:namedview
     id="base"
     pagecolor="#ffffff"
     bordercolor="#666666"
     borderopacity="1.0"
     gridtolerance="10000"
     guidetolerance="10"
     objecttolerance="10"
     inkscape:pageopacity="0.0"
     inkscape:pageshadow="2"
     inkscape:zoom="0.70710678"
     inkscape:cx="373.02741"
     inkscape:cy="104.67133"
     inkscape:document-units="px"
     inkscape:current-layer="layer1"
     showguides="true"
     inkscape:guide-bbox="true"
     inkscape:window-width="1280"
     inkscape:window-height="701"
     inkscape:window-x="20"
     inkscape:window-y="20"
     showgrid="false">
    <sodipodi:guide
       orientation="0,1"
       position="579,204"
       id="guide3430" />
    <sodipodi:guide
       orientation="1,0"
       position="392,39"
       id="guide3432" />
    <sodipodi:guide
       orientation="0,1"
       position="808.93016,43.840621"
       id="guide3508" />
  </sodipodi:namedview>
  <metadata
     id="metadata2352">
    <rdf:RDF>
      <cc:Work
         rdf:about="">
        <dc:format>image/svg+xml</dc:format>
        <dc:type
           rdf:resource="http://purl.org/dc/dcmitype/StillImage" />
      </cc:Work>
    </rdf:RDF>
  </metadata>
  <g
     inkscape:label="Layer 1"
     inkscape:groupmode="layer"
     id="layer1">
    <rect
       style="opacity:1;fill:#ffffff;fill-opacity:1;stroke:none;stroke-opacity:1"
       id="rect3664"
       width="746.70477"
       height="1052.1749"
       x="0"
       y="0.18729044"
       ry="2.7601874" />
    <rect
       style="opacity:1;fill:url(#linearGradient3912);fill-opacity:1;stroke:none;stroke-opacity:1"
       id="rect3904"
       width="738.36035"
       height="221.12114"
       x="4.770721"
       y="756.78302" />
    <rect
       style="opacity:0.16901407;fill:#000000;fill-opacity:1;stroke:none;stroke-opacity:1;filter:url(#filter3696)"
       id="rect3700"
       width="400"
       height="159.3866"
       x="2401.1514"
       y="3259.7598"
       ry="0"
       transform="matrix(0.4839276,0.1647233,-0.3018213,0.4087537,245.68019,-875.37898)" />
    <g
       id="g3560"
       style="opacity:0.80281695"
       transform="matrix(0.9213381,0,0,0.9213381,90.79845,352.57264)">
      <path
         id="path3359"
         d="M 371.54724,403.96234 L 177.26599,619.68109 L 453.67224,660.39984 L 453.32849,659.30609 L 562.82849,582.55609 L 371.57849,403.96234 L 374.67224,413.71234 L 371.54724,403.96234 z "
         style="fill:#8f8f8f;fill-opacity:1;filter:url(#filter3436)" />
      <path
         sodipodi:nodetypes="cccc"
         id="path2358"
         d="M 371.54657,400.65408 L 560.79236,577.35416 L 451.78098,653.73147 L 371.54657,400.65408 z "
         style="fill:url(#linearGradient3448);fill-opacity:1" />
      <path
         sodipodi:nodetypes="cccc"
         id="rect2355"
         d="M 371.51123,400.65407 L 452.79325,654.39541 L 179.26153,614.10778 L 371.51123,400.65407 z "
         style="fill:#ffffff;fill-opacity:1" />
      <path
         sodipodi:nodetypes="cczcc"
         id="path3349"
         d="M 371.56674,400.43469 L 419.41599,549.72304 C 419.41599,549.72304 377.63816,533.82755 317.9953,550.07755 C 258.35245,566.32755 177.28103,616.14898 177.28103,616.14898 L 371.56674,400.43469 z "
         style="fill:url(#linearGradient3357);fill-opacity:1" />
    </g>
    <path
       sodipodi:type="arc"
       style="opacity:0.30281689;fill:#000000;fill-opacity:1;stroke:none;stroke-opacity:1;filter:url(#filter3626)"
       id="path3500"
       sodipodi:cx="268.57144"
       sodipodi:cy="1166.6479"
       sodipodi:rx="131.42857"
       sodipodi:ry="37.142857"
       d="M 400.00002 1166.6479 A 131.42857 37.142857 0 1 1  137.14287,1166.6479 A 131.42857 37.142857 0 1 1  400.00002 1166.6479 z"
       transform="matrix(0.6008728,0,0,0.3189248,301.01369,648.90686)" />
    <rect
       style="opacity:0.16901407;fill:#000000;fill-opacity:1;stroke:none;stroke-opacity:1;filter:url(#filter3696)"
       id="rect2285"
       width="400"
       height="159.3866"
       x="2401.1514"
       y="3259.7598"
       ry="0"
       transform="matrix(0.7129928,8.9158557e-2,-0.4547061,0.5232096,123.86736,-1038.7864)" />
    <path
       style="fill:url(#linearGradient3301);fill-opacity:1"
       d="M 89.53125,928.98741 C 76.306157,927.74411 65.65625,937.39281 65.65625,950.6179 L 65.65625,1013.0866 L 357.59375,1040.5318 L 357.59375,978.06314 C 357.59375,964.83805 346.94384,953.18693 333.71875,951.94363 L 89.53125,928.98741 z "
       id="rect3922" />
    <rect
       style="fill:url(#linearGradient3298);fill-opacity:1;stroke:none;stroke-opacity:1"
       id="rect3956"
       width="297.87833"
       height="90.267029"
       x="62.499763"
       y="920.64728"
       ry="0"
       transform="matrix(0.9956101,9.3597966e-2,0,1,0,0)" />
    <path
       style="fill:url(#linearGradient3311);fill-opacity:1"
       d="M 104.61057,43.317913 L 335.01659,36.189524 C 347.76751,37.388246 358.03268,49.000189 358.03268,62.225282 L 358.03268,936.84029 C 358.03268,950.06539 347.76751,959.74728 335.01659,958.54856 L 89.110572,935.43076 C 76.359659,934.23204 66.094491,922.62008 66.094491,909.39499 L 68.094492,60.779979 C 68.094492,47.554886 91.859661,42.119191 104.61057,43.317913 z "
       id="rect2186"
       sodipodi:nodetypes="ccccccccc" />
    <g
       id="g3274"
       transform="matrix(0.7296046,0,0,0.8185218,583.98939,82.501039)">
      <g
         transform="translate(-1813.0218,189.50462)"
         id="g2285">
        <path
           style="fill:#000000;fill-opacity:1"
           d="M 1237.1382,255.04973 C 1228.2486,254.6959 1223.5379,256.4055 1220.469,261.36869 C 1208.7798,261.58917 1205.116,263.53296 1204.8643,268.91739 C 1205.1652,274.403 1206.2201,267.26111 1218.2024,269.08792 C 1219.1468,269.23192 1220.1317,269.43177 1221.1454,269.65403 C 1223.1419,273.74678 1225.6179,278.91423 1223.0739,283.64836 C 1222.9772,283.82839 1222.9291,283.97905 1222.8986,284.11401 C 1220.5889,288.60799 1217.3489,294.14452 1219.2419,299.83541 C 1222.5884,309.89791 1225.6523,322.05309 1226.5307,323.31759 C 1236.5241,337.70517 1254.2488,352.01254 1250.9396,358.31515 L 1248.222,383.71468 L 1245.3164,398.22553 L 1228.9103,397.57254 C 1228.3154,397.54887 1227.8331,397.98469 1227.8331,398.54571 L 1227.8331,400.57781 C 1227.8331,401.13886 1228.3154,401.60129 1228.9103,401.62496 L 1288.0227,403.97772 C 1288.6173,404.00138 1289.0871,403.57686 1289.0871,403.01581 L 1289.0871,400.98372 C 1289.0871,400.42269 1288.6173,399.94896 1288.0227,399.9253 L 1273.0065,399.32763 L 1273.8457,395.17868 C 1275.732,394.67012 1278.2091,394.18268 1280.596,394.27769 C 1285.4004,394.46891 1290.3771,398.94391 1290.3771,398.94391 L 1288.1228,380.38793 C 1291.7122,374.91558 1289.3799,374.82124 1292.1196,375.13763 C 1297.7032,375.78244 1300.5257,396.61431 1297.7913,406.87124 C 1296.1992,412.84333 1307.234,403.43744 1312.5443,403.68953 C 1317.8547,403.94165 1335.0032,408.929 1333.8723,407.37392 C 1326.4375,397.14896 1304.8438,373.33006 1309.3132,368.7197 C 1313.7824,364.10928 1341.0751,409.12773 1342.3886,403.97943 C 1343.7024,398.83125 1315.7989,361.71472 1313.4711,357.3305 C 1293.6574,320.68159 1287.893,308.92137 1269.6252,300.49391 C 1259.3412,295.7496 1259.2286,287.23352 1257.2265,280.29366 C 1257.2215,280.25437 1257.2226,280.21554 1257.2139,280.175 C 1256.6395,277.43821 1255.3103,273.00376 1255.3103,269.27709 C 1255.3103,261.82376 1251.1799,255.6086 1237.1382,255.04973 z M 1267.0328,379.78479 C 1268.7311,381.89782 1270.3383,383.79541 1271.7917,385.44438 L 1271.6541,386.69126 L 1269.1492,399.1741 L 1249.1736,398.37904 L 1252.2546,382.98912 C 1253.996,382.57372 1256.085,382.23181 1258.1158,382.31264 C 1262.9202,382.50385 1267.9092,386.97937 1267.9092,386.97937 L 1267.0328,379.78479 z "
           id="path2266"
           sodipodi:nodetypes="cccscscsscccccccccccccsccsssssscscsscccccccscc" />
        <path
           style="fill:#000000;fill-opacity:1"
           d="M 1228.7065,46.307125 C 1228.7065,46.307125 1254.5814,53.126005 1254.8875,87.506636 L 1255.9571,207.71466 C 1255.9571,208.12137 1249.5319,207.43842 1249.5319,207.03176 C 1249.5319,207.03176 1256.5602,162.93854 1244.7927,144.36054 C 1233.025,125.78252 1206.5804,132.88359 1206.5804,132.88359 C 1209.8755,132.81138 1215.7208,115.77223 1220.7915,100.03471 C 1225.862,84.297167 1228.5104,46.299325 1228.7065,46.307125 z "
           id="path2268"
           sodipodi:nodetypes="czcczcsc" />
        <rect
           style="fill:#000000;fill-opacity:1"
           id="rect2270"
           width="52.760262"
           height="54.679008"
           x="1332.886"
           y="230.55309"
           ry="5.1095119"
           transform="matrix(0.9992089,3.9769934e-2,0,1,0,0)" />
        <path
           style="fill:#000000;fill-opacity:1"
           d="M 1384.1661,-122.2924 L 1384.1661,-57.623962 L 1321.8164,-60.105572 L 1384.1661,-122.2924 z "
           id="path2272"
           sodipodi:nodetypes="cccc" />
        <path
           style="fill:#000000;fill-opacity:1"
           d="M 1358.1475,93.671492 C 1330.6702,92.627632 1327.7205,123.95695 1327.7205,123.95695 L 1327.9755,177.41817 C 1327.9755,177.44936 1327.9752,177.47899 1327.9755,177.51013 L 1321.6993,169.44493 C 1320.5499,167.96991 1318.7624,167.18132 1316.9754,167.18302 C 1315.9035,167.18407 1314.8346,167.4637 1313.9039,168.062 L 1311.8636,169.37017 C 1309.3814,170.96555 1308.8604,174.15591 1310.6994,176.51601 L 1322.2726,186.75014 C 1314.1221,191.76845 1308.2044,200.51676 1308.2044,211.22327 C 1308.2044,227.85126 1321.763,238.47465 1333.797,238.95363 C 1346.8448,239.47296 1358.8936,229.44306 1358.8936,212.81509 C 1358.8936,202.11476 1353.4863,193.77269 1345.3433,188.10433 L 1356.8723,178.60917 C 1358.7583,176.38424 1358.2393,173.14511 1355.7081,171.35019 L 1353.6345,169.87829 C 1351.1031,168.0834 1347.5367,168.42871 1345.6507,170.65362 L 1337.9664,179.72623 C 1338.0565,179.11489 1338.1104,178.48243 1338.1104,177.82154 L 1337.0902,123.62498 C 1337.0902,123.62498 1340.2987,102.3484 1357.9146,103.04066 C 1375.5237,103.73268 1376.2998,125.16513 1376.2998,125.16513 L 1375.2858,173.19047 C 1375.465,179.80594 1387.2837,186.90963 1390.748,187.04752 C 1392.1849,185.11659 1391.1549,183.52592 1387.5323,179.80907 C 1387.5323,179.80907 1383.9192,175.93319 1384.6161,163.82725 C 1385.3138,151.70676 1386.0132,125.61303 1386.0132,125.61303 C 1386.0132,125.61303 1385.8041,94.722462 1358.1475,93.671492 z "
           id="path2274"
           sodipodi:nodetypes="cccccsccccsssccccccccsccccscc" />
        <path
           style="fill:#000000;fill-opacity:1"
           d="M 1268.2875,602.92755 C 1259.3979,602.57365 1254.6874,604.28335 1251.6182,609.24645 C 1239.929,609.46695 1236.2653,612.31955 1236.0136,617.70405 C 1235.5978,622.55515 1237.3694,615.13885 1249.3516,616.96565 C 1250.296,617.10965 1251.281,617.30955 1252.2947,617.53185 C 1254.2911,621.62455 1256.7672,626.79205 1254.2232,631.52615 C 1254.1267,631.70615 1254.0783,631.85685 1254.0481,631.99175 C 1251.7382,636.48575 1250.8109,641.90175 1250.3911,647.71315 C 1249.6825,657.61425 1256.8016,669.93085 1257.68,671.19535 C 1267.6734,685.58285 1285.398,699.89025 1282.0889,706.19295 L 1279.3712,731.59245 L 1276.4656,746.10325 L 1260.0595,745.45035 C 1259.4647,745.42665 1258.9823,745.86245 1258.9823,746.42345 L 1258.9823,748.45555 C 1258.9823,749.01665 1259.4647,749.47905 1260.0595,749.50275 L 1319.172,751.85545 C 1319.7665,751.87915 1320.2363,751.45465 1320.2363,750.89355 L 1320.2363,748.86145 C 1320.2363,748.30045 1319.7665,747.82675 1319.172,747.80305 L 1304.1557,747.20535 L 1304.995,743.05645 C 1306.8813,742.54785 1309.3584,742.06045 1311.7452,742.15545 C 1316.5497,742.34665 1321.5264,746.82165 1321.5264,746.82165 L 1319.2721,728.26565 C 1322.8617,722.79335 1320.5291,722.69895 1323.2692,723.01535 C 1328.8524,723.66015 1331.675,744.49205 1328.9405,754.74895 C 1327.3485,760.72105 1338.3833,751.31525 1343.6936,751.56725 C 1349.0039,751.81945 1366.1525,756.80675 1365.0216,755.25165 C 1357.5868,745.02675 1335.9931,721.20785 1340.4625,716.59745 C 1344.9316,711.98705 1372.2243,757.00545 1373.5379,751.85725 C 1374.8517,746.70895 1346.9482,709.59245 1344.6204,705.20825 C 1324.8067,668.55935 1319.0422,656.79915 1300.7745,648.37165 C 1290.4905,643.62735 1290.3778,635.11125 1288.3758,628.17145 C 1288.371,628.13215 1288.3719,628.09335 1288.3632,628.05275 C 1287.7888,625.31595 1286.4596,620.88155 1286.4596,617.15485 C 1286.4596,609.70155 1282.3291,603.48635 1268.2875,602.92755 z M 1298.1821,727.66255 C 1299.8804,729.77555 1301.4876,731.67315 1302.9409,733.32215 L 1302.8033,734.56905 L 1300.2985,747.05185 L 1280.3229,746.25685 L 1283.4038,730.86685 C 1285.1452,730.45145 1287.2342,730.10955 1289.2651,730.19045 C 1294.0695,730.38165 1299.0588,734.85715 1299.0588,734.85715 L 1298.1821,727.66255 z "
           id="path2276"
           sodipodi:nodetypes="cccscscsscccccccccccccsccsssssscscsscccccccscc" />
        <path
           style="fill:#000000;fill-opacity:1"
           d="M 1304.9838,539.74495 C 1279.9487,538.74855 1240.3975,558.12445 1233.9089,558.61815 C 1227.2902,559.12185 1216.5537,557.92745 1216.5537,557.92745 C 1216.4209,557.92215 1216.3175,558.03375 1216.3175,558.17155 L 1216.3175,566.83385 C 1216.3175,566.97165 1216.4209,567.09145 1216.5537,567.09675 C 1216.5537,567.09675 1228.8858,566.81535 1233.5993,567.77515 C 1238.3349,568.73955 1278.9774,592.10225 1304.9838,593.23965 C 1332.6021,594.44755 1367.5602,574.11245 1376.8081,573.54275 C 1386.4246,572.95025 1395.7766,574.29765 1395.7766,574.29765 C 1395.9095,574.30295 1396.0209,574.20015 1396.0209,574.06235 L 1396.0209,565.27335 C 1396.0209,565.13545 1395.9095,565.01535 1395.7766,565.01005 C 1395.7766,565.01005 1383.8401,565.91515 1376.4089,564.23915 C 1369.158,562.60395 1331.3468,540.79425 1304.9838,539.74495 z M 1305.247,549.44495 C 1330.67,550.45675 1350.1318,561.86195 1362.8681,568.20185 C 1350.1321,573.48015 1330.4073,584.57055 1304.9838,583.55865 C 1279.6906,582.55195 1260.7868,570.35855 1247.9846,563.99545 C 1260.8517,558.53725 1280.161,548.44645 1305.247,549.44495 z "
           id="path2278"
           sodipodi:nodetypes="csccccsszcccczcccscc" />
        <path
           style="fill:#000000;fill-opacity:1"
           d="M 1320.1941,446.47634 C 1303.5577,445.81418 1261.238,452.67495 1252.0137,452.34921 C 1243.0123,452.0314 1232.576,448.72949 1229.8072,450.73859 C 1227.0954,452.70634 1228.3482,454.33922 1228.3482,454.33922 C 1228.3482,456.62298 1240.2856,465.11665 1253.445,466.02344 C 1266.6041,466.93023 1296.1377,458.74299 1311.0354,459.3497 C 1321.5186,459.77667 1321.8664,467.24526 1321.1535,470.84193 L 1219.4372,466.97783 C 1214.4858,466.78076 1210.4989,470.21285 1210.4989,474.67685 L 1213.0158,492.69462 C 1213.0158,497.15862 1214.4858,500.81146 1219.4372,501.00853 C 1219.4372,501.00853 1312.967,505.33646 1320.5676,505.03366 C 1328.1279,504.73245 1330.6037,497.23401 1341.732,495.54878 C 1352.7818,493.87542 1385.9557,495.6214 1385.9557,495.6214 L 1385.9557,469.4505 L 1362.1963,470.04345 C 1341.7667,461.36256 1336.9398,447.14285 1320.1941,446.47634 z "
           id="path2280" />
        <path
           style="fill:#000000;fill-opacity:1"
           d="M 1259.2996,-64.516802 C 1254.0888,-64.674072 1249.7324,-58.832282 1245.2571,-56.853122 C 1238.0511,-53.665942 1227.4152,-34.332463 1232.5929,-31.811163 C 1232.5929,-31.811163 1235.017,-30.882453 1238.9881,-26.991203 C 1242.4149,-23.633043 1242.6019,-21.325713 1246.6971,-21.588313 C 1250.2294,-21.814803 1250.2906,-23.335563 1250.3455,-26.527143 C 1250.3937,-29.311203 1258.4485,-33.670843 1259.5836,-33.205703 C 1261.8534,-32.275343 1259.6178,-22.253153 1259.6755,-18.985363 C 1258.2331,-16.106483 1254.3834,-9.3032628 1254.3834,-6.0498427 C 1254.3834,-0.34816252 1256.7777,5.0821677 1260.937,9.7977079 C 1251.4466,9.3837679 1238.2526,8.8589479 1236.2599,9.0314479 C 1233.2079,9.2955879 1232.4957,12.884358 1229.5048,12.899548 C 1226.6221,12.914138 1205.5411,10.834578 1201.2559,10.108458 C 1198.3873,9.6223479 1193.8958,13.895218 1193.8958,16.893688 C 1193.8958,19.892188 1196.2224,22.397768 1199.1134,22.512828 L 1275.2396,25.542758 C 1277.5132,25.633258 1279.4432,24.219588 1280.1616,22.151938 C 1286.154,24.308978 1292.8722,25.652598 1299.9704,25.935108 C 1322.8638,26.846298 1348.7734,-2.2241926 1363.7282,0.92091758 L 1367.1998,12.857098 L 1346.639,12.038728 C 1343.9285,11.930858 1339.0156,13.770678 1338.6022,16.440848 L 1335.7877,16.328828 C 1332.7815,16.209188 1330.3621,18.629178 1330.3621,21.747208 C 1330.3621,24.865228 1332.7815,27.470858 1335.7877,27.590508 L 1392.6559,29.853948 C 1395.5543,29.969328 1399.7517,23.022728 1401.2978,19.326248 C 1404.0234,15.497788 1401.8771,-1.1411725 1400.2435,-8.7969128 C 1393.4552,-23.187173 1388.3721,-33.130043 1371.598,-33.797673 C 1356.7003,-34.390613 1351.6745,-31.693823 1340.8371,-28.245493 C 1327.2637,-29.044523 1318.6102,-33.657103 1299.9704,-34.398993 C 1295.1663,-34.590193 1290.5347,-34.280673 1286.1848,-33.540863 C 1286.1517,-35.068153 1285.9226,-38.047183 1284.9628,-43.200603 C 1283.3546,-51.836832 1276.5587,-59.328592 1270.6171,-62.487362 C 1270.1618,-62.729452 1270.0421,-71.672802 1267.9342,-72.474192 C 1267.4356,-72.663772 1264.5727,-74.146872 1262.8434,-72.999712 C 1260.935,-71.733892 1259.8918,-64.498922 1259.2996,-64.516802 z "
           id="path2283"
           sodipodi:nodetypes="cscszszcscsssscccscccccsccccscscssszc" />
      </g>
      <path
         sodipodi:nodetypes="csssssssccscssssssc"
         id="path2297"
         d="M -509.04278,-11.771072 C -557.44719,-11.771072 -633.29383,-30.969516 -665.03659,57.006029 C -696.77935,144.98158 -673.45338,388.99969 -673.4534,523.1601 C -673.4534,657.32052 -699.33707,841.1365 -667.5943,929.12072 C -635.85154,1017.1049 -557.44717,1009.2574 -509.04278,1009.2574 C -460.63836,1009.2574 -390.36589,1043.8013 -358.62314,955.81716 C -326.88039,867.83293 -341.891,657.32052 -341.891,523.1601 C -341.891,388.99968 -328.27542,138.2188 -346.42532,47.232312 C -364.46202,-43.186665 -460.63836,-11.771072 -509.04278,-11.771072 z M -509.04278,12.562523 C -468.17671,12.562523 -376.79692,-32.667825 -363.70513,47.174282 C -350.18367,129.63682 -353.33958,409.89353 -353.33958,523.1601 C -353.33952,636.42668 -351.13807,867.95732 -377.93593,947.79942 C -404.73378,1027.6415 -468.17677,990.17891 -509.04278,990.17891 C -529.47578,990.17891 -557.58599,992.87046 -583.93769,985.58174 C -610.28939,978.29303 -634.88257,961.02405 -648.28149,921.103 C -675.07934,841.2609 -659.35991,636.42668 -659.35991,523.1601 C -659.35989,409.89353 -672.52162,134.56539 -645.72378,54.723299 C -618.92593,-25.118815 -549.9088,12.562523 -509.04278,12.562523 z "
         style="opacity:1;fill:#000000;fill-opacity:1;stroke:none;stroke-width:3;stroke-miterlimit:4;stroke-dasharray:none;stroke-opacity:1" />
      <path
         sodipodi:nodetypes="cszzzzzzcc"
         id="rect3271"
         d="M -649.23255,979.5224 C -649.23255,979.5224 -578.1397,1006.783 -506.15316,1006.3505 C -434.16663,1005.9181 -361.28641,992.6418 -357.71168,995.00664 C -350.07777,1000.0568 -361.94784,1011.3569 -361.33731,1017.7799 C -360.72677,1024.2029 -351.52151,1010.1826 -352.1253,1016.603 C -352.72909,1023.0234 -367.02469,1029.6998 -406.47782,1030.1636 C -445.93096,1030.6274 -652.88815,1008.3274 -656.9865,1005.487 C -661.57448,1002.3072 -655.6671,1001.2459 -656.18925,994.7345 C -656.71139,988.2232 -661.1586,989.54746 -661.1586,989.54746 C -661.15988,987.12176 -651.92349,979.5167 -649.23255,979.5224 z "
         style="fill:#000000;fill-opacity:1;stroke:none;stroke-width:3;stroke-miterlimit:4;stroke-opacity:1" />
    </g>
    <path
       style="fill:url(#linearGradient3308);fill-opacity:1;stroke:none;stroke-opacity:1"
       d="M 98.755549,42.535159 L 330.27942,36.076482 C 352.87276,38.200497 358.20446,42.159915 358.20446,65.593453 C 358.20446,65.593453 369.82736,175.63025 353.65478,300.56933 C 337.1499,428.07547 319.23085,441.77718 227.45835,490.99629 C 136.61508,539.71706 73.190131,879.42518 73.190131,855.99165 L 64.766262,74.904813 C 64.766262,51.471275 76.162227,40.411145 98.755549,42.535159 z "
       id="rect3372"
       sodipodi:nodetypes="ccczzccc" />
    <g
       id="g3566"
       transform="matrix(0.8067761,0,0,0.8067761,42.839874,432.80862)"
       style="opacity:0.84506998">
      <path
         id="path3568"
         d="M 371.54724,403.96234 L 177.26599,619.68109 L 453.67224,660.39984 L 453.32849,659.30609 L 562.82849,582.55609 L 371.57849,403.96234 L 374.67224,413.71234 L 371.54724,403.96234 z "
         style="fill:#8f8f8f;fill-opacity:1;filter:url(#filter3436)" />
      <path
         sodipodi:nodetypes="cccc"
         id="path3570"
         d="M 371.54657,400.65408 L 560.79236,577.35416 L 451.78098,653.73147 L 371.54657,400.65408 z "
         style="fill:url(#linearGradient3576);fill-opacity:1" />
      <path
         sodipodi:nodetypes="cccc"
         id="path3572"
         d="M 371.51123,400.65407 L 452.79325,654.39541 L 179.26153,614.10778 L 371.51123,400.65407 z "
         style="fill:#ffffff;fill-opacity:1" />
      <path
         sodipodi:nodetypes="cczcc"
         id="path3574"
         d="M 371.56674,400.43469 L 419.41599,549.72304 C 419.41599,549.72304 377.63816,533.82755 317.9953,550.07755 C 258.35245,566.32755 177.28103,616.14898 177.28103,616.14898 L 371.56674,400.43469 z "
         style="fill:url(#linearGradient3578);fill-opacity:1" />
    </g>
    <rect
       style="opacity:0.16901407;fill:#000000;fill-opacity:1;stroke:none;stroke-opacity:1;filter:url(#filter3696)"
       id="rect3630"
       width="400"
       height="159.3866"
       x="2401.1514"
       y="3259.7598"
       ry="0"
       transform="matrix(0.5418717,6.6673096e-2,-0.8952904,0.1654464,1908.5282,255.85538)" />
    <text
       xml:space="preserve"
       style="font-size:58.15625381px;font-style:normal;font-variant:normal;font-weight:bold;font-stretch:normal;text-align:start;line-height:80.00000119%;writing-mode:lr-tb;text-anchor:start;fill:#000000;fill-opacity:1;stroke:none;stroke-width:1px;stroke-linecap:butt;stroke-linejoin:miter;stroke-opacity:1;font-family:Papyrus"
       x="378.47943"
       y="182.34996"
       id="text3554"
       sodipodi:linespacing="80.000001%"><tspan
         sodipodi:role="line"
         id="tspan3556"
         x="378.47943"
         y="182.34996">Kleopatra</tspan></text>
    <g
       id="g3478"
       transform="matrix(0.5606245,0,0,0.5606245,636.13169,135.71286)">
      <g
         transform="matrix(1.0172756,0,0,1.0172756,-515.61002,863.82588)"
         id="g3443">
        <path
           style="fill:url(#linearGradient3494);fill-opacity:1;fill-rule:nonzero;stroke:none;stroke-width:1;stroke-linejoin:miter;stroke-miterlimit:4;stroke-opacity:1"
           d="M 211.54092,400.427 C 200.51554,400.37551 188.85896,401.81595 176.75967,405.33325 C 163.63404,409.13656 153.9707,413.33549 147.60342,416.927 C 115.24176,433.9014 87.505139,471.52709 80.384669,504.45825 C 67.521979,563.94636 86.759679,621.20826 86.759669,621.20825 L 87.853419,620.8645 L 129.07217,633.8645 C 129.07217,633.8645 105.92155,610.38808 102.97842,551.14575 C 104.14562,537.70012 106.11431,524.81474 108.97842,512.802 C 125.77147,515.6552 151.75786,519.39801 178.32217,520.64575 C 223.06437,522.74731 269.22842,517.70825 269.22842,517.70825 C 286.7623,586.39582 240.38467,642.3645 240.38467,642.3645 L 321.60609,624.4207 C 321.60609,624.42071 367.30865,573.92831 339.13467,486.64575 C 324.35002,440.84312 277.17981,410.66417 246.25967,405.427 C 235.71344,402.46928 224.03951,400.48537 211.54092,400.427 z"
           id="path3445"
           sodipodi:nodetypes="cccscccccscccscc" />
        <path
           style="fill:#9e9e9e;fill-opacity:1;fill-rule:nonzero;stroke:none;stroke-width:1;stroke-linejoin:miter;stroke-miterlimit:4;stroke-opacity:1;filter:url(#filter3581)"
           d="M 111.26194,516.55406 C 108.39783,528.5668 106.42914,541.45217 105.26194,554.89781 C 108.20507,614.14021 131.35569,637.61661 131.35569,637.61661 L 119.54319,633.89781 C 136.47836,660.39717 162.67856,681.82347 198.48069,682.02277 C 227.30992,682.18607 251.9094,669.32877 269.35569,646.11661 L 242.66819,646.11661 C 242.66819,646.11661 289.04587,590.14787 271.51194,521.46031 C 271.51194,521.46031 225.34788,526.49936 180.60569,524.39781 C 154.04136,523.15007 128.05499,519.40725 111.26194,516.55406 z"
           id="path3448" />
        <path
           style="opacity:0.725;fill:url(#linearGradient3496);fill-opacity:1;fill-rule:nonzero;stroke:none;stroke-width:10;stroke-linejoin:miter;stroke-miterlimit:4;stroke-opacity:1"
           d="M 76.512399,536.87747 C 76.512399,536.87747 88.723959,481.00346 201.93825,492.43203 C 313.73847,503.71786 286.22396,420.28917 286.22396,420.28917 C 286.22396,420.28917 313.72396,436.89632 329.08111,462.78918 C 344.43825,488.68203 347.65253,523.8606 347.65253,523.8606 L 77.818409,581.88362 C 77.818409,581.88362 76.637159,573.60646 76.162679,552.53356 C 75.688239,531.46213 76.512399,536.87747 76.512399,536.87747 z"
           id="path3450"
           sodipodi:nodetypes="czczcczc" />
        <path
           style="opacity:0.74500002;fill:url(#linearGradient3498);fill-opacity:1;fill-rule:nonzero;stroke:none;stroke-width:10;stroke-linejoin:miter;stroke-miterlimit:4;stroke-dasharray:none;stroke-opacity:1"
           d="M 190.35519,447.6517 C 229.96585,437.10264 267.01235,446.91101 273.03646,469.53092 C 275.80589,479.92984 271.52936,491.23106 262.26417,501.43902 C 263.98811,496.2087 264.2987,490.94686 262.9585,485.91454 C 256.93439,463.29463 219.89286,453.5049 180.2822,464.05397 C 158.89435,469.74996 141.10844,480.21895 130.21794,492.20661 C 136.26262,473.93976 159.57801,455.84825 190.35519,447.6517 z"
           id="path3452" />
        <path
           style="opacity:0.74500002;fill:url(#linearGradient3500);fill-opacity:1;fill-rule:nonzero;stroke:none;stroke-width:10;stroke-linejoin:miter;stroke-miterlimit:4;stroke-dasharray:none;stroke-opacity:1"
           d="M 172.95252,430.75229 C 220.6045,418.06166 266.43716,434.61258 275.24222,467.67465 C 279.29011,482.87408 274.799,498.92372 264.15072,513.0733 C 265.91777,505.62894 265.95832,498.04815 263.99943,490.69274 C 255.19438,457.63067 209.36898,441.107 161.71699,453.79763 C 135.98722,460.64995 114.95928,474.62856 102.44236,491.2444 C 108.64286,465.24658 135.92727,440.61281 172.95252,430.75229 z"
           id="path3454" />
        <path
           style="fill:#ffffff;fill-opacity:1;fill-rule:nonzero;stroke:none;stroke-width:1;stroke-linejoin:miter;stroke-miterlimit:4;stroke-opacity:1"
           d="M 109.09945,512.84475 C 106.23534,524.85749 104.26665,537.74286 103.09945,551.1885 C 106.04258,610.4309 129.1932,633.9073 129.1932,633.9073 L 117.3807,630.1885 C 134.31587,656.68786 160.51607,678.11416 196.3182,678.31346 C 225.14743,678.47676 249.74691,665.61946 267.1932,642.4073 L 240.5057,642.4073 C 240.5057,642.4073 286.88338,586.43856 269.34945,517.751 C 269.34945,517.751 223.18539,522.79005 178.4432,520.6885 C 151.87887,519.44076 125.8925,515.69794 109.09945,512.84475 z"
           id="path3456" />
        <path
           style="opacity:0.725;fill:url(#linearGradient3502);fill-opacity:1;fill-rule:nonzero;stroke:none;stroke-width:10;stroke-linejoin:miter;stroke-miterlimit:4;stroke-opacity:1"
           d="M 104.05263,539.15647 C 104.05263,539.15647 164.03217,561.71775 211.17503,561.71775 C 258.31789,561.71775 273.17863,560.87476 273.17863,560.87476 C 273.17863,560.87476 268.50668,588.56293 263.58219,601.09882 C 258.57164,613.85378 241.8639,641.57544 241.8639,641.57544 C 241.8639,641.57544 249.70732,594.57489 202.56446,594.57489 C 155.4216,594.57489 110.87116,598.8965 110.87116,598.8965 C 110.87116,598.8965 107.27929,587.03374 104.55771,570.28917 C 101.84292,553.5864 104.05263,539.15647 104.05263,539.15647 z"
           id="path3458"
           sodipodi:nodetypes="czczczczc" />
        <path
           style="opacity:0.45;fill:#ffffff;fill-opacity:1;fill-rule:nonzero;stroke:none;stroke-width:10;stroke-linejoin:miter;stroke-miterlimit:4;stroke-opacity:1"
           d="M 234.33175,562.69368 C 234.33175,585.55545 200.58645,606.25279 176.60947,606.25279 C 152.63249,606.25279 131.74435,556.26974 131.74435,533.40797 C 131.74435,510.54619 152.63249,503.42028 176.60947,503.42028 C 200.58645,503.42028 234.33175,539.8319 234.33175,562.69368 z"
           id="path3461"
           sodipodi:nodetypes="csssc" />
      </g>
      <g
         transform="matrix(1.4601771,0.1059171,-0.1059171,1.4601771,-818.02858,112.00474)"
         id="g14531">
        <path
           sodipodi:nodetypes="csssc"
           id="path3397"
           d="M 392.31129,905.70666 C 394.85096,891.19677 391.32804,875.20133 390.93508,877.6426 C 386.60591,904.53768 381.26368,901.13995 382.91075,910.16128 C 384.02224,916.24914 397.41089,918.82405 397.54653,918.39491 C 397.80193,917.58683 397.16192,913.87647 392.31129,905.70666 z"
           style="opacity:0.50273222;fill:#c8bfff;fill-opacity:1;fill-rule:evenodd;stroke:none;stroke-width:2;stroke-linecap:butt;stroke-linejoin:miter;stroke-miterlimit:4;stroke-dasharray:none;stroke-dashoffset:0;stroke-opacity:1" />
        <path
           style="opacity:1;fill:url(#radialGradient3504);fill-opacity:1;fill-rule:evenodd;stroke:none;stroke-width:2;stroke-linecap:butt;stroke-linejoin:miter;stroke-miterlimit:4;stroke-dasharray:none;stroke-dashoffset:0;stroke-opacity:1"
           d="M 388.62407,910.98935 C 388.79278,907.21059 396.10023,868.51411 395.82048,866.77978 C 395.36807,863.97503 390.30983,867.33517 389.67148,869.96729 C 387.32161,879.6566 384.47236,897.05527 382.17227,907.08168 C 379.88134,917.06816 388.45535,914.76811 388.62407,910.98935 z"
           id="path2478"
           sodipodi:nodetypes="csszz" />
      </g>
      <path
         sodipodi:nodetypes="csssssc"
         id="path14552"
         d="M -330.92255,1483.8995 C -335.59428,1483.3677 -337.91303,1482.6553 -344.44116,1484.6135 C -347.78852,1485.6176 -351.59799,1489.5967 -350.95904,1479.3767 C -350.76285,1476.2016 -360.18057,1480.7716 -357.01575,1488.3019 C -353.1181,1497.5759 -335.79829,1494.4512 -333.91511,1494.2173 C -311.11319,1491.3858 -308.22043,1483.5756 -309.21881,1481.448 C -311.64908,1476.2683 -312.2494,1487.804 -330.92255,1483.8995 z"
         style="opacity:0.7213115;fill:#c8bfff;fill-opacity:1;fill-rule:evenodd;stroke:none;stroke-width:2;stroke-linecap:butt;stroke-linejoin:miter;stroke-miterlimit:4;stroke-dasharray:none;stroke-dashoffset:0;stroke-opacity:1" />
      <path
         sodipodi:nodetypes="csssc"
         id="path14554"
         d="M -347.53498,1486.2587 C -346.76834,1476.2002 -352.13541,1476.8947 -353.56615,1476.1686 C -354.51182,1475.6886 -361.74982,1489.7411 -352.71586,1491.8139 C -345.53558,1493.4614 -327.2645,1487.2904 -325.40197,1485.9483 C -323.53946,1484.6063 -345.11337,1491.1052 -347.53498,1486.2587 z"
         style="fill:url(#radialGradient3506);fill-opacity:1;fill-rule:evenodd;stroke:none;stroke-width:2;stroke-linecap:butt;stroke-linejoin:miter;stroke-miterlimit:4;stroke-dasharray:none;stroke-dashoffset:0;stroke-opacity:1" />
    </g>
  </g>
</svg>
