/* XPM */
static char *kaddressbook-16[] = {
/* columns rows colors chars-per-pixel */
"16 16 112 2",
"   c black",
".  c #00004C",
"X  c #091A4F",
"o  c #1D3675",
"O  c #1F3879",
"+  c #243E72",
"@  c #36477A",
"#  c #52617F",
"$  c #244183",
"%  c #244184",
"&  c #264386",
"*  c #274489",
"=  c #28458A",
"-  c #2A498F",
";  c #2A4A8F",
":  c #2D4D94",
">  c #2D4E96",
",  c #39558A",
"<  c #30529B",
"1  c #32549D",
"2  c #33559C",
"3  c #3559A3",
"4  c #3A5DA0",
"5  c #3B5CA2",
"6  c #395EAB",
"7  c #3B62AF",
"8  c #3D63AB",
"9  c #3D63B2",
"0  c #3F66B3",
"q  c #52528B",
"w  c #466196",
"e  c #4663A0",
"r  c #4367AD",
"t  c #436DBE",
"y  c #5578BD",
"u  c #4773C6",
"i  c #4D77C6",
"p  c #4974C8",
"a  c #4975C9",
"s  c #4B77C9",
"d  c #4E78C5",
"f  c #4A78CB",
"g  c #4A78CC",
"h  c #4B79CD",
"j  c #4B79CE",
"k  c #4C79CC",
"l  c #4C7ACF",
"z  c #4D7BD0",
"x  c #4E7DD2",
"c  c #4F7FD6",
"v  c #507FD7",
"b  c #6680B2",
"n  c #5881CE",
"m  c #5B83CC",
"M  c #5A83CF",
"N  c #5281D7",
"B  c #5180D8",
"V  c #5284DB",
"C  c #5284DC",
"Z  c #5686DD",
"A  c #5587E0",
"S  c #5689E3",
"D  c #5789E3",
"F  c #578AE4",
"G  c #5886E3",
"H  c #5989E0",
"J  c #588BE5",
"K  c #5A90EB",
"L  c #5C91ED",
"P  c #5C92EE",
"I  c #5C92EF",
"U  c #5E94F1",
"Y  c #6381C0",
"T  c #6C8BCA",
"R  c #678ED6",
"E  c #708BC2",
"W  c #7595D4",
"Q  c #7B98D2",
"!  c #6090E5",
"~  c #6292E7",
"^  c #6594E7",
"/  c #6092EB",
"(  c #6596ED",
")  c #6096F3",
"_  c #639BFA",
"`  c #649DFD",
"'  c #659FFF",
"]  c #669FFF",
"[  c #709AE5",
"{  c #69A4FF",
"}  c #6FA4FE",
"|  c #6CA8FF",
" . c #6DA9FF",
".. c #71A1F3",
"X. c #74A1F0",
"o. c #7BAAFB",
"O. c #8B9EC1",
"+. c #87A0D2",
"@. c #8FA0DB",
"#. c #83ADF8",
"$. c #8BBBFF",
"%. c #8EBDFF",
"&. c #90B1EC",
"*. c #92B4EF",
"=. c #90BAFF",
"-. c #91BFFF",
";. c #92C0FF",
":. c #ACD0FF",
">. c #BDD9FF",
",. c #C1DAFF",
"<. c gray100",
"1. c None",
/* pixels */
"1.1.1.1.1.1.1.1.1.1.] >.>.:.$. .",
"1.1.1.1.1.1.1.1.1.1.&.O.# *.} _ ",
"1.1.1.1.1.1.1.1.1.] , b w R J V ",
"1.1.1.1.1.1.1.1.1.P 4 r + i s p ",
"1.1.1.1.1.1.1.1.1.x s 8 0 Y 9 p ",
"1.1.1.1.1.1.1.1.1.P d 1 e T : z ",
"1.1.1.1.1.1.1.1.P ~ v m W 5 < c ",
"1.1.1.1.1.1.1.1.( H z m y O t 1.",
"1.1.1.1.1.1.1.X.^ v p M o 3 s 1.",
"1.1.1.1.1.] o.X.Z z N $ ; f 1.1.",
"1.1.1. .-.=.#.K v D & * z 1.1.1.",
"1.-.Q E @ [ ( F D = : x 1.1.1.1.",
"1.%.+.X < s U u & 7 V 1.1.1.1.1.",
"1. .{ ] K u < 6 c F 1.1.1.1.1.1.",
"1.@.Z I Z c I ] 1.1.1.1.1.1.1.1.",
"1.q . 1.1.1.1.1.1.1.1.1.1.1.1.1."
};
