/* XPM */
static char *kaddressbook[] = {
/* columns rows colors chars-per-pixel */
"32 32 154 2",
"   c black",
".  c #00004E",
"X  c #060652",
"o  c #182655",
"O  c #192B5F",
"+  c #1A2C61",
"@  c #1D3066",
"#  c #1F336B",
"$  c #2B2B6B",
"%  c #20356D",
"&  c #273C6B",
"*  c #223972",
"=  c #263E79",
"-  c #303D60",
";  c #363673",
":  c #2C416A",
">  c #27407B",
",  c #28407C",
"<  c #2B4582",
"1  c #2D4886",
"2  c #2E4A88",
"3  c #354D86",
"4  c #324F8F",
"5  c #35528F",
"6  c #3B548C",
"7  c #345293",
"8  c #3D5792",
"9  c #3B5A94",
"0  c #3B5B9E",
"q  c #3B5DA1",
"w  c #3E5EB3",
"e  c #3F62A7",
"r  c #3F62A8",
"t  c #435480",
"y  c #466197",
"u  c #456199",
"i  c #4C6395",
"p  c #516697",
"a  c #506799",
"s  c #536898",
"d  c #4162A5",
"f  c #4164AB",
"g  c #4965A2",
"h  c #4E6DAC",
"j  c #456AB3",
"k  c #486FB8",
"l  c #4A72BC",
"z  c #5170AB",
"x  c #5F73A1",
"c  c #5B7BB9",
"v  c #6377A5",
"b  c #677DAD",
"n  c #6C7FAA",
"m  c #607CB5",
"M  c #4D76C2",
"N  c #4F78C6",
"B  c #527AC5",
"V  c #527DCB",
"C  c #597DC1",
"Z  c #6D86BA",
"A  c #7187B7",
"S  c #7C8DB2",
"D  c #788FBF",
"F  c #7C92BC",
"G  c #5C85CF",
"H  c #5582D2",
"J  c #5985D4",
"K  c #5986D8",
"L  c #5B88D6",
"P  c #5B8ADB",
"I  c #5D8DE1",
"U  c #5F90E4",
"Y  c #6385C5",
"T  c #6185C8",
"R  c #6B8AC6",
"E  c #6B8DCC",
"W  c #628DDC",
"Q  c #6491DE",
"!  c #6D91D4",
"~  c #6994DF",
"^  c #708DC6",
"/  c #7590C4",
"(  c #7492CB",
")  c #7C92C1",
"_  c #7B93CF",
"`  c #7394D0",
"'  c #7599DA",
"]  c #7B9AD2",
"[  c #7B9DDA",
"{  c #6091E5",
"}  c #6294EA",
"|  c #6598EF",
" . c #6996E4",
".. c #6D99E5",
"X. c #6E9BE8",
"o. c #669AF2",
"O. c #6A9EF6",
"+. c #6A9FF9",
"@. c #729BE3",
"#. c #729FEC",
"$. c #6CA3FE",
"%. c #7AA3EA",
"&. c #75A3F1",
"*. c #76A9FF",
"=. c #79ABFF",
"-. c #8191B7",
";. c #8495B9",
":. c #9393B3",
">. c #849CCC",
",. c #8A9CC2",
"<. c #80A1DE",
"1. c #88A5DA",
"2. c #8FAADC",
"3. c #94A6CB",
"4. c #94AAD3",
"5. c #99ADD3",
"6. c #9CB4DF",
"7. c #80A8EC",
"8. c #88AEEF",
"9. c #84ADF2",
"0. c #84B3FE",
"q. c #8BB2F3",
"w. c #8DB8FF",
"e. c #92AEE0",
"r. c #94B3E8",
"t. c #99B2E0",
"y. c #9AB6E9",
"u. c #94BCFE",
"i. c #9ABBF3",
"p. c #99BEFB",
"a. c #A3B6DB",
"s. c #BBBBD4",
"d. c #A8BFE8",
"f. c #A3BFF0",
"g. c #9BC1FF",
"h. c #A8C1EE",
"j. c #A7C8FF",
"k. c #A9C4F2",
"l. c #ADC8F7",
"z. c #AACBFF",
"x. c #B4C6E8",
"c. c #B9C7E3",
"v. c #BBCBEA",
"b. c #B5CDF5",
"n. c #BDD2F7",
"m. c #B9D4FF",
"M. c #CCCCDD",
"N. c #C0D1F0",
"B. c #C5DBFF",
"V. c #CCDBF5",
"C. c #D1E1FB",
"Z. c #DDEAFF",
"A. c #FEFEFF",
"S. c None",
/* pixels */
"S.S.S.S.S.S.S.S.S.S.S.S.S.S.S.S.S.S.S.S.S.S.*.0.g.w.*.S.S.S.S.S.",
"S.S.S.S.S.S.S.S.S.S.S.S.S.S.S.S.S.S.S.S.i.h.k.h.b.j.w.*.$.S.S.S.",
"S.S.S.S.S.S.S.S.S.S.S.S.S.S.S.S.S.S.S.q.n.V.c.N.[ r.=.&.$.S.S.S.",
"S.S.S.S.S.S.S.S.S.S.S.S.S.S.S.S.S.S.o.l.S F : 2.6.E &.} } $.S.S.",
"S.S.S.S.S.S.S.S.S.S.S.S.S.S.S.S.S.S...t 1.y.s a 2.B @.K V $.S.S.",
"S.S.S.S.S.S.S.S.S.S.S.S.S.S.S.S.S.o.W : ] y <.y ! l ! V l $.S.S.",
"S.S.S.S.S.S.S.S.S.S.S.S.S.S.S.S.S.o.P z @.y h & B l E l f +.S.S.",
"S.S.S.S.S.S.S.S.S.S.S.S.S.S.S.S.S.{ H 8 0 V q 9 l k R j r | S.S.",
"S.S.S.S.S.S.S.S.S.S.S.S.S.S.S.S.S.V P 0 : 5 j M j / c q r U S.S.",
"S.S.S.S.S.S.S.S.S.S.S.S.S.S.S.S.S.S.N H H V M f g 4.r 7 k P S.S.",
"S.S.S.S.S.S.S.S.S.S.S.S.S.S.S.S.S.I G l l j 7 7 D ) 7 1 N S.S.S.",
"S.S.S.S.S.S.S.S.S.S.S.S.S.S.S.S.S.P W l 9 < 8 A 4.a 1 1 H S.S.S.",
"S.S.S.S.S.S.S.S.S.S.S.S.S.S.S.S.I W L V V Y R >.) 2 = f V S.S.S.",
"S.S.S.S.S.S.S.S.S.S.S.S.S.S.S.S.I W H V V Y ^ 5.6 = = V S.S.S.S.",
"S.S.S.S.S.S.S.S.S.S.S.S.S.S.S.P Q K V V C Y >.b > # r B S.S.S.S.",
"S.S.S.S.S.S.S.S.S.S.S.S.S.S.U { W V V N C E ,., # < N S.S.S.S.S.",
"S.S.S.S.S.S.S.S.S.S.S.S.S.U  .~ J V V M C 5.3 # + M S.S.S.S.S.S.",
"S.S.S.S.S.S.S.S.S.S.S.S.} X.@.P V V N l 4.i % + q M S.S.S.S.S.S.",
"S.S.S.S.S.S.S.S.S.S.S.| #.%. .J V B M ( v % + 4 M S.S.S.S.S.S.S.",
"S.S.S.S.S.S.S.S.S.S.o.&.7. .P V V N ( S % + < N S.S.S.S.S.S.S.S.",
"S.S.S.S.S.S.S.S.$.$.9.8.@.~ J V N ` -.* + # N S.S.S.S.S.S.S.S.S.",
"S.S.S.S.S.$.=.w.u.i.q.%. .P V V ] ;.* + # k S.S.S.S.S.S.S.S.S.S.",
"S.S.S.$.p.g.k.x m q.%...P J J t.n * + , l S.S.S.S.S.S.S.S.S.S.S.",
"S.S.m.z.s 6 1 < < k } P J ' a.i * + 1 V S.S.S.S.S.S.S.S.S.S.S.S.",
"S.$.B.B.) o < < 2 k I  .d.,.3 * + q V S.S.S.S.S.S.S.S.S.S.S.S.S.",
"S.$.w.A.Z.Z B ..9.h.x.4.y , * = N K S.S.S.S.S.S.S.S.S.S.S.S.S.S.",
"S.$.$.p.C.V.V.c.5.c 0 7 < * r K P S.S.S.S.S.S.S.S.S.S.S.S.S.S.S.",
"S.S.$.$.} H V l f q 2 < r P } S.S.S.S.S.S.S.S.S.S.S.S.S.S.S.S.S.",
"S.S.s._ } U V N l j V O.+.S.S.S.S.S.S.S.S.S.S.S.S.S.S.S.S.S.S.S.",
"S.M.:.$ . w $.$.$.$.$.S.S.S.S.S.S.S.S.S.S.S.S.S.S.S.S.S.S.S.S.S.",
"S.:.; . . S.S.S.S.S.S.S.S.S.S.S.S.S.S.S.S.S.S.S.S.S.S.S.S.S.S.S.",
"S.S.X . S.S.S.S.S.S.S.S.S.S.S.S.S.S.S.S.S.S.S.S.S.S.S.S.S.S.S.S."
};
