/* XPM */
static char *kalarm-16[] = {
/* columns rows colors chars-per-pixel */
"16 16 169 2",
"   c black",
".  c gray20",
"X  c gray25",
"o  c gray35",
"O  c gray36",
"+  c #656565",
"@  c gray45",
"#  c #7B7B7B",
"$  c #8D3800",
"%  c #8E3900",
"&  c #974202",
"*  c #9B4400",
"=  c #9A4B08",
"-  c #984B10",
";  c #A34B00",
":  c #A44C00",
">  c #A74F00",
",  c #AA5100",
"<  c #AF5500",
"1  c #B05600",
"2  c #B05900",
"3  c #B25A01",
"4  c #B35C00",
"5  c #B45900",
"6  c #A76700",
"7  c #AD6100",
"8  c #AE6914",
"9  c #B36200",
"0  c #B66700",
"q  c #B16009",
"w  c #BB6707",
"e  c #BC6A00",
"r  c #BF6C10",
"t  c #B37A00",
"y  c #BC700E",
"u  c #BF710C",
"i  c #BC7820",
"p  c #B37836",
"a  c #AA744B",
"s  c #B37943",
"d  c #C26700",
"f  c #C36600",
"g  c #C66D00",
"h  c #C96C00",
"j  c #CD6E00",
"k  c #CF6E00",
"l  c #CC7700",
"z  c #C97408",
"x  c #CA7C0E",
"c  c #CD7910",
"v  c #D27300",
"b  c #D27400",
"n  c #D47500",
"m  c #D47600",
"M  c #D47A00",
"N  c #B78B05",
"B  c #BE9376",
"V  c #BF9472",
"C  c #C08805",
"Z  c #C98900",
"A  c #C98113",
"S  c #CD8A19",
"D  c #C49300",
"F  c #C79D00",
"G  c #CC901B",
"H  c #D68C0E",
"J  c #DB8304",
"K  c #DA8405",
"L  c #D79012",
"P  c #C98528",
"I  c #CA8A3F",
"U  c #CD9525",
"Y  c #D69D2D",
"T  c #D09B39",
"R  c #D4A500",
"E  c #D9B600",
"W  c #DFA423",
"Q  c #DAA62B",
"!  c #E28500",
"~  c #E38800",
"^  c #E58D02",
"/  c #E7950D",
"(  c #EA990C",
")  c #E49710",
"_  c #F89B00",
"`  c #EBA100",
"'  c #EBA500",
"]  c #EAA815",
"[  c #FFAB0A",
"{  c #FDB100",
"}  c #FFB502",
"|  c #FFB414",
" . c #FFBC1D",
".. c #E4AF2C",
"X. c #CC954D",
"o. c #CDA355",
"O. c #DBB744",
"+. c #CDA165",
"@. c #CEA56C",
"#. c #DDA761",
"$. c #E1A447",
"%. c #E5B859",
"&. c #DBC100",
"*. c #DAC300",
"=. c #DCC100",
"-. c #E0CF00",
";. c #FFC500",
":. c #FFD600",
">. c #FFDC00",
",. c #F5C02C",
"<. c #F8C32C",
"1. c #FFC729",
"2. c #FFC92B",
"3. c #F2C535",
"4. c #FFD539",
"5. c #FFD639",
"6. c #FFD93D",
"7. c #EBE500",
"8. c #FFE600",
"9. c #FFF300",
"0. c #FFF400",
"q. c #FFFE00",
"w. c yellow",
"e. c #EACD4C",
"r. c #EACE51",
"t. c #F1CD41",
"y. c #F3D258",
"u. c #EEC565",
"i. c #EAD166",
"p. c #FFE044",
"a. c #FFE247",
"s. c #FFE74C",
"d. c #FFE84E",
"f. c #FFEE57",
"g. c #FFEF59",
"h. c #FFF05F",
"j. c #FFF063",
"k. c gray65",
"l. c #ACACAC",
"z. c #B4B4B4",
"x. c gray",
"c. c #CDA280",
"v. c #DAB285",
"b. c #DAC8B5",
"n. c #E4C19D",
"m. c #E1C3A0",
"M. c #E2CDBF",
"N. c #FFF484",
"B. c #FFF699",
"V. c #C5C5C5",
"C. c gray80",
"Z. c #EADACF",
"A. c #E3DDDA",
"S. c #E1E1E1",
"D. c gray89",
"F. c #E6E6E6",
"G. c #EFE9E6",
"H. c gray91",
"J. c gray92",
"K. c #ECECEC",
"L. c #EEEEEE",
"P. c gray94",
"I. c gray95",
"U. c gray96",
"Y. c #F8F8F8",
"T. c gray98",
"R. c #FDFDFD",
"E. c gray100",
"W. c None",
/* pixels */
"W.W.$ 8 O.o.- W.W.W.W.W.W.W.W.W.",
"W.W.y 5.d.j.r.$ $ $ $ s p $ W.W.",
"W.> ) 1.p...C E &.6 i.B.N.e.= W.",
"W.1 J / K ' >.9.w.N g.g.g.d.U W.",
"W.$ 3 ^ M g m _ ;.-.G a.p.6.W W.",
"W.& ( a A.T.K.@.c { *.L <.2.x W.",
"W.y i O C.E.E.E.Z.r { 7.E R * W.",
"W.A @.o X I.E.k.l.M.! >.w.w.t W.",
"W.S +.E.# @ F.. z.Y.I } w.w.F W.",
"W.3 T E.E.@ . V.U.P.B [ w.w.D W.",
"W., Q v.E.x.+ K.L.H.V | 9.9.7 W.",
"W.W.w Y n.U.P.J.F.S.P  .8.Z > W.",
"W.W.2 z %.#.m.F.b.X.,.] e < W.W.",
"W.W.j ! f $.u.y.t.3.H 0 9 W.W.W.",
"W.W.f g W.b b b b 4 ` l * W.W.W.",
"W.W.W.W.W.W.W.W.W.3 b j ; W.W.W."
};
