/* XPM */
static char *karm-16[] = {
/* columns rows colors chars-per-pixel */
"16 16 137 2",
"   c black",
".  c gray3",
"X  c #090909",
"o  c gray5",
"O  c #191919",
"+  c gray23",
"@  c #414141",
"#  c gray28",
"$  c #484848",
"%  c #4B4B4B",
"&  c #4C4C4C",
"*  c gray30",
"=  c #4E4E4E",
"-  c #505050",
";  c gray32",
":  c #565656",
">  c #5A5A5A",
",  c #5B5B5B",
"<  c #5D5D5D",
"1  c #654D75",
"2  c #606060",
"3  c gray39",
"4  c #656565",
"5  c #686868",
"6  c #6C6C6C",
"7  c gray43",
"8  c #797979",
"9  c gray48",
"0  c #6170A3",
"q  c #6B78AC",
"w  c #697CB9",
"e  c #4469E0",
"r  c #496EE1",
"t  c #4E73E2",
"y  c #5177E4",
"u  c #567DE6",
"i  c #6079D6",
"p  c #788CBE",
"a  c #5C83E8",
"s  c #6189EB",
"d  c #6890ED",
"f  c #7297ED",
"g  c #7993E8",
"h  c #7BA6F5",
"j  c #AB534B",
"k  c #F8534B",
"l  c #E06864",
"z  c #848484",
"x  c #868686",
"c  c #898989",
"v  c #8B8B8B",
"b  c gray55",
"n  c #8D8D8D",
"m  c #8E8E8E",
"M  c gray56",
"N  c #909090",
"B  c #929292",
"V  c #959595",
"C  c gray59",
"Z  c #8B98BD",
"A  c #B58080",
"S  c #A0A0A0",
"D  c #A2A2A2",
"F  c #A7A7A7",
"G  c gray66",
"H  c #AAAAAA",
"J  c gray67",
"K  c #AEAEAE",
"L  c #B1B1B1",
"P  c #B0B5B9",
"I  c #B9B9B9",
"U  c #859CCA",
"Y  c #869AD5",
"T  c #9BACC8",
"R  c #93A8DA",
"E  c #8DA7EE",
"W  c #8BAEE2",
"Q  c #81ABF6",
"!  c #86A9F2",
"~  c #91B9F9",
"^  c #9BB5F2",
"/  c #A3BDE2",
"(  c #A7B9F1",
")  c #A4BFF6",
"_  c #A8BDF3",
"`  c #ABBEF2",
"'  c #B9C8D8",
"]  c #A7C3F7",
"[  c #B2C9F7",
"{  c #B6CCF8",
"}  c #BBCBF5",
"|  c #BBD1F9",
" . c #BED5FB",
".. c #FE8D8D",
"X. c #FEB1B1",
"o. c gray76",
"O. c gray77",
"+. c #C5C5C5",
"@. c gray79",
"#. c #CACACA",
"$. c gray80",
"%. c #D0D0D0",
"&. c LightGray",
"*. c gray84",
"=. c #D7D6D6",
"-. c #D7D7D7",
";. c #D8D8D8",
":. c #DDDDDD",
">. c #C8D2E0",
",. c #C8D3E3",
"<. c #CAD7F8",
"1. c #DBDDE0",
"2. c #D3E2FC",
"3. c #D1E4FE",
"4. c #D6E8FE",
"5. c #DBE7F7",
"6. c gray88",
"7. c gray89",
"8. c #E4E3E3",
"9. c gray92",
"0. c #E1EEFE",
"q. c #E4EDFC",
"w. c #E4F1FE",
"e. c #E7F2FE",
"r. c #EDF6FE",
"t. c #EEF6FE",
"y. c #FEEBEB",
"u. c #F1F1F1",
"i. c gray95",
"p. c #F5F9FE",
"a. c #FBFBFB",
"s. c #F9FCFE",
"d. c #FBFCFE",
"f. c #FDFDFE",
"g. c #FEFEFE",
"h. c gray100",
"j. c None",
/* pixels */
"j.j.j.g.) T  .| { [ f j.j.j.j.j.",
"j.j.s.r.R =.g.g.g.g.^ j.j.j.j.j.",
"j.g.e.0.Y 7.g.g.g.g._ j.j.j.j.j.",
"g.s.e.r.i #.g.g.g.g.E j.j.j.j.j.",
"W U p w q #.7.%.F %.Z o j.j.j.j.",
"/ 7.7.i.a.$.x 5 $ @ $ : ; j.j.j.",
"~ g.g.g.%.7 > O B . O.> > 4 j.j.",
"Q 2.g.i.S - 5 L -.g.g.& C < ; j.",
"h ] p.:.B $ & g.X.y.K D > 7 3 j.",
"j.! p.,.3 B g.g...l c g.g.F 9 j.",
"j.d q.,.9 . g.C 7 1 :.g.-.+ c j.",
"j.s <.5.z C O.g.g.X...g.9.-.B j.",
"j.a _ 4.P > v g.g.g.k g.> D c j.",
"j.u } 3.' F O.+ g.L X.j -.O.$ j.",
"j.y ` ( g 0 I v -.< :.A #.7 j.j.",
"j.t r e j.j.& F F -.I K & j.j.j."
};
