/* XPM */
static char *karm[] = {
/* columns rows colors chars-per-pixel */
"32 32 145 2",
"   c black",
".  c #0C0C0C",
"X  c #131313",
"o  c #1E1E1E",
"O  c gray13",
"+  c gray17",
"@  c #353535",
"#  c #3B3B3B",
"$  c #14387B",
"%  c #2C3966",
"&  c #492C6E",
"*  c #454545",
"=  c #4B4B4B",
"-  c #545454",
";  c #5C5C5C",
":  c #464E65",
">  c #656565",
",  c #626368",
"<  c #6C6C6C",
"1  c #6F7376",
"2  c #757575",
"3  c #777A7D",
"4  c #7C7C7C",
"5  c #3A5EDB",
"6  c #3E62DC",
"7  c #465EBE",
"8  c #5C7293",
"9  c #4F65BC",
"0  c #556DA1",
"q  c #576EBC",
"w  c #61799C",
"e  c #6E79A8",
"r  c #6274B6",
"t  c #687AB8",
"y  c #4B65C8",
"u  c #4266DD",
"i  c #4469DE",
"p  c #4A6EDB",
"a  c #506DDD",
"s  c #5570CB",
"d  c #476CE0",
"f  c #4A6FE1",
"g  c #4E74E2",
"h  c #5075E3",
"j  c #547AE4",
"k  c #587FE7",
"l  c #607CCF",
"z  c #7F8188",
"x  c #6E81BB",
"c  c #7487BD",
"v  c #7A8FBF",
"b  c #5A81E7",
"n  c #5C84E8",
"m  c #6A87D3",
"M  c #7492D7",
"N  c #6484E4",
"B  c #6087E9",
"V  c #638BEB",
"C  c #6B92EC",
"Z  c #6E98F0",
"A  c #7594E9",
"S  c #7995E8",
"D  c #7B9BEC",
"F  c #739BF1",
"G  c #76A0F2",
"H  c #79A4F4",
"J  c #7FA9F6",
"K  c #AB1913",
"L  c #8D6B6B",
"P  c #FB0A08",
"I  c #FE1F1F",
"U  c #FE4B4B",
"Y  c #F8746B",
"T  c #828282",
"R  c #8C8C8C",
"E  c #818D9A",
"W  c #939394",
"Q  c #989797",
"!  c #9B9B9B",
"~  c #A3A3A3",
"^  c #AAAAAA",
"/  c #B3B2B2",
"(  c #BBBBBB",
")  c #838DC2",
"_  c #809FED",
"`  c #81A0DB",
"'  c #83A1ED",
"]  c #8BAEE6",
"[  c #86A5F0",
"{  c #82AEF7",
"}  c #8EABF0",
"|  c #85B1F8",
" . c #88B3F9",
".. c #8CB8FB",
"X. c #94A9EC",
"o. c #98ACED",
"O. c #93AEF0",
"+. c #90BCFC",
"@. c #9EB2F0",
"#. c #9AB8F5",
"$. c #AAB5C0",
"%. c #AFBCDE",
"&. c #B2BCC8",
"*. c #A3B8F1",
"=. c #93C0FD",
"-. c #B6C2D0",
";. c #BCC8D7",
":. c #A3C2F7",
">. c #A3C2F8",
",. c #AEC4F5",
"<. c #ACCBFB",
"1. c #BBCAF5",
"2. c #B1D3FE",
"3. c #B8D6FE",
"4. c #FE8D8D",
"5. c #FEB1B1",
"6. c #F8BCB1",
"7. c #C2C2C2",
"8. c #CACACA",
"9. c #D4D4D4",
"0. c #DBDBDB",
"q. c #C5D6ED",
"w. c #C6DEFE",
"e. c #CBD6F6",
"r. c #C8D8F9",
"t. c #D1DBE7",
"y. c #D0DEF9",
"u. c #CBE1FE",
"i. c #D7E1ED",
"p. c #D4E3FB",
"a. c #D6E8FE",
"s. c #D8E4FB",
"d. c #DCEBFD",
"f. c #FED7D7",
"g. c #E3E3E3",
"h. c #ECECEC",
"j. c #E2EDFD",
"k. c #E4F0FE",
"l. c #EBF3FE",
"z. c #FBF0EB",
"x. c #F3F3F3",
"c. c #F1F5FD",
"v. c #F5F9FD",
"b. c #FEFEFE",
"n. c None",
/* pixels */
"n.n.n.n.n.n.n.n.n.:.Z 8 | { J H G F Z Z C V V n.n.n.n.n.n.n.n.n.",
"n.n.n.n.n.n.n.n.b.p.M ~ b.b.b.b.b.b.j.s.s.[ B n.n.n.n.n.n.n.n.n.",
"n.n.n.n.n.n.v.j.v.,.v / b.b.b.b.b.b.b.b.b.} n n.n.n.n.n.n.n.n.n.",
"n.n.n.n.n.b.l.d.v.X.c 8.b.b.b.b.b.b.b.b.b.' n.n.n.n.n.n.n.n.n.n.",
"n.n.n.n.b.v.d.w.b.S x 8.b.b.b.b.b.b.b.b.b.D n.n.n.n.n.n.n.n.n.n.",
"n.n.n.k.v.j.u.2.b.S t 8.b.b.b.b.b.b.b.b.b.D n.n.n.n.n.n.n.n.n.n.",
"n.n.w.v.v.k.d.a.b.X.r ^ b.b.b.b.b.b.b.b.b.' j n.n.n.n.n.n.n.n.n.",
"n.3.d.d.s.p.1.@.o.a 7 ^ b.b.b.b.b.b.b.b.b.*.g n.n.n.n.n.n.n.n.n.",
"n.=.] ` M m s s y 9 e Q b.b.h.0.9.7.7.8.9.%.p n.n.n.n.n.n.n.n.n.",
"n.w W Q Q Q ^ / / / / ( x.9.( 7.R T 2 < 3 , : # . n.n.n.n.n.n.n.",
"n...p.b.b.b.b.b.b.b.b.g.7.( R < < - ; = = - - ; ; = . n.n.n.n.n.",
"n...<.b.b.b.b.b.b.b.g.7./ < < - - 4 2 < # Q 4 - - ; ; @ n.n.n.n.",
"n. .| b.b.b.b.b.b.x.( / 2 < - + ~ 9.9.; O 9.b.( < = ; > @ n.n.n.",
"n.n.{ p.b.b.b.b.b.8.7.< < - 7.= R / b.R < 9.b.R ~ ~ - > - . n.n.",
"n.n.J >.b.b.b.b.x.7.R 2 = / 9./ 0.9.b.b.b.b.b.9.+ 8.9.; < = n.n.",
"n.n.J H c.b.b.b.0.7.< < + # # b.b.b.b.b.b.b.b.3 ! b.# 2 > < . n.",
"n.n.n.H r.b.v.b.9.R T ; ~ ; # b.b.b.5.z.b.b.R T b.b.o 7.< 4 * n.",
"n.n.n.F #.b.l.k.&.3 T 4 b.b.b.b.b.b.I Y b.^ > b.b.h./ h.^ T - n.",
"n.n.n.C F b.l.k./ 1 T ( b.b.b.b.b.b.4.P 9.- h.b.b.b.b.b.9.4 > n.",
"n.n.n.n.C p.v.j.-.1 4 ; + b.b.b.b.b.7.) 0 ( b.b.b.b.9.X 9.4 T . ",
"n.n.n.n.V ,.b.d.;.L R ;   b.b./ - @ ; $ & h.b.b.b.b.0.o 7.R R . ",
"n.n.n.n.V [ b.d.t.8 Q 8.b.b.b.9.9.b.b.b.U 6.b.b.b.b.b.b.g.Q < n.",
"n.n.n.n.n D b.j.k.4 / T 7.~ b.b.b.b.b.b.f.U b.b.b.b.b.b.7.^ < n.",
"n.n.n.n.n b b.j.d.~ / T < # b.b.b.b.b.b.b.U f.b.b.b.+ b.^ ( - n.",
"n.n.n.n.b k b.d.p.q.R ~ < 8 b.b.b.b.b.b.b.f.U b.b.7.X / / ~ o n.",
"n.n.n.n.k j b.d.u.u.z 9.W h.b.R < b.b.b.b.b.U L / b.v.^ 9.; n.n.",
"n.n.n.n.j C b.d.a.d.i.R g.T z.R / b.b.! 7.b.f.K R x.( 0.Q . n.n.",
"n.n.n.n.j S b.b.c.e.o.q T 9.W 4 b.b.b.X < b.b.Y Q ( g.! O n.n.n.",
"n.n.n.n.g j A N u u 6 5 % 3 0.8.^ 7.g.R 7.x.9.7.8.h.Q O n.n.n.n.",
"n.n.n.n.g f i u u n.n.n.n.. * ~ h.g.9./ / 9.g.h.( > . n.n.n.n.n.",
"n.n.n.n.n.n.n.n.n.n.n.n.n.n.n.. # 4 T / / Q T = o n.n.n.n.n.n.n.",
"n.n.n.n.n.n.n.n.n.n.n.n.n.n.n.n.n.n.n.n.n.n.n.n.n.n.n.n.n.n.n.n."
};
