/* XPM */
static char *kmailcvt[] = {
/* columns rows colors chars-per-pixel */
"32 32 257 2",
"   c #010000",
".  c #090000",
"X  c #0C0A02",
"o  c #160100",
"O  c #110C04",
"+  c #1C0000",
"@  c #161006",
"#  c #191106",
"$  c #1D1508",
"%  c #1A1900",
"&  c #260F00",
"*  c #2A0706",
"=  c #241000",
"-  c #241909",
";  c #281D0A",
":  c #320000",
">  c #3E0B00",
",  c #330A07",
"<  c #311B00",
"1  c #2E220C",
"2  c #3B290E",
"3  c #392B11",
"4  c gray15",
"5  c #490300",
"6  c #590300",
"7  c #511F00",
"8  c #422D10",
"9  c #45300F",
"0  c #463010",
"q  c #493917",
"w  c #4A3313",
"e  c #583C0E",
"r  c #50360B",
"t  c #5A3E15",
"y  c #600F00",
"u  c #651100",
"i  c #6E1200",
"p  c #750C00",
"a  c #7A0E00",
"s  c #721200",
"d  c #761E00",
"f  c #663B00",
"g  c #7C2100",
"h  c #7B2A00",
"j  c #773200",
"k  c #7F3F00",
"l  c #5D4018",
"z  c #634519",
"x  c #6D4A19",
"c  c #674512",
"v  c #734E19",
"b  c #7A531A",
"n  c #6E5221",
"m  c #7A5923",
"M  c #585858",
"N  c #726A5F",
"B  c #797979",
"V  c #862800",
"C  c #843A00",
"Z  c #922800",
"A  c #A83400",
"S  c #AA3C00",
"D  c #BC2D00",
"F  c #BA3301",
"G  c #B8352D",
"H  c #844200",
"J  c #884400",
"K  c #8C5807",
"L  c #805717",
"P  c #875B17",
"I  c #8A5D16",
"U  c #9C4300",
"Y  c #915403",
"T  c #8A5F21",
"R  c #835B21",
"E  c #9A6205",
"W  c #9C6A1E",
"Q  c #856225",
"!  c #926523",
"~  c #9C6B27",
"^  c #9B732E",
"/  c #AB4400",
"(  c #AC7106",
")  c #B36701",
"_  c #B27506",
"`  c #BB7A07",
"'  c #BC7C08",
"]  c #BB7706",
"[  c #B67C10",
"{  c #A66908",
"}  c #AF792A",
"|  c #A8742B",
" . c #A37E33",
".. c #AC7E32",
"X. c #B37B2B",
"o. c #BA7F29",
"O. c #B77C25",
"+. c #887F73",
"@. c #C70A00",
"#. c #CA0900",
"$. c #CB3600",
"%. c #D23600",
"&. c #DC3600",
"*. c #D3310D",
"=. c #E13700",
"-. c #E13800",
";. c #D5550D",
":. c #C07E08",
">. c #C57702",
",. c #D37C00",
"<. c #E44507",
"1. c #EE5325",
"2. c #E76701",
"3. c #F46530",
"4. c #D65442",
"5. c #A8893F",
"6. c #AB8238",
"7. c #B68132",
"8. c #BF8738",
"9. c #BA8635",
"0. c #BC943B",
"q. c #9D8854",
"w. c #9B8A63",
"e. c #90867A",
"r. c #90887A",
"t. c #988C77",
"y. c #968A76",
"u. c #A1844A",
"i. c #A28750",
"p. c #AA8B54",
"a. c #B78D41",
"s. c #B29244",
"d. c #A69168",
"f. c #AC9776",
"g. c #B59565",
"h. c #C7860A",
"j. c #C98303",
"k. c #C38414",
"l. c #CA8916",
"z. c #CE8B18",
"x. c #DF8D02",
"c. c #D28E19",
"v. c #DE930C",
"b. c #D49019",
"n. c #D89119",
"m. c #C38525",
"M. c #C48629",
"N. c #CD8B29",
"B. c #C18631",
"V. c #C38C3A",
"C. c #CB8B30",
"Z. c #C58D37",
"A. c #C4913E",
"S. c #C39B3F",
"D. c #D18E2B",
"F. c #D89220",
"G. c #DA942B",
"H. c #D2902D",
"J. c #DE9934",
"K. c #D59A3D",
"L. c #D2A03F",
"P. c #EA9605",
"I. c #EE9905",
"U. c #E79405",
"Y. c #E29717",
"T. c #E1971E",
"R. c #E89B1C",
"E. c #F19B05",
"W. c #F09011",
"Q. c #F99D1D",
"!. c #F49B1A",
"~. c #E49B2D",
"^. c #EB9C2B",
"/. c #E59D34",
"(. c #E99F30",
"). c #E29F3A",
"_. c #F49D21",
"`. c #F5A21E",
"'. c #FCA11B",
"]. c #EEA021",
"[. c #E3A23B",
"{. c #EBA135",
"}. c #EDA339",
"|. c #F5A427",
" X c #F1A63A",
".X c #F4A93C",
"XX c #F8AC3E",
"oX c #FEB03F",
"OX c #F8BA3F",
"+X c #CB9E42",
"@X c #C8A245",
"#X c #D9A445",
"$X c #DDB576",
"%X c #FF9647",
"&X c #E7A845",
"*X c #E1AF59",
"=X c #E7B046",
"-X c #E3B44A",
";X c #EBB648",
":X c #F3AB41",
">X c #FBAD40",
",X c #F7B648",
"<X c #FDB344",
"1X c #FEB846",
"2X c #FEBB4A",
"3X c #F1B94A",
"4X c #FEC14D",
"5X c #F5C04E",
"6X c #F3C250",
"7X c #FDC551",
"8X c #FECB54",
"9X c #FED37F",
"0X c gray53",
"qX c #8C8C8C",
"wX c #8F8F90",
"eX c #96928D",
"rX c #9C9C9C",
"tX c gray59",
"yX c #A89F8B",
"uX c #A49A81",
"iX c #A09B97",
"pX c #A68788",
"aX c #B8AA91",
"sX c #A4A4A3",
"dX c #ABABAB",
"fX c #ABA8A2",
"gX c #AEB0B2",
"hX c #B9B5AD",
"jX c #BAB5A7",
"kX c #B4B4B4",
"lX c #BBBCBC",
"zX c #BAB8B2",
"xX c #D9BF8E",
"cX c #C4BFB3",
"vX c #CBC1AF",
"bX c #DBCCAE",
"nX c #D2CABB",
"mX c #E5C08D",
"MX c #E8D5B8",
"NX c #C4C4C4",
"BX c #CBCBCB",
"VX c #DAD3C6",
"CX c #D4D4D4",
"ZX c #D8D7D6",
"AX c #DBDBDB",
"SX c #E2DACD",
"DX c #E3DDD2",
"FX c #EFDADA",
"GX c #E6E1D5",
"HX c #EEE4D5",
"JX c #E3E3E2",
"KX c #E6E7E8",
"LX c #EBEBEB",
"PX c #F4F4F4",
"IX c #FCFDFD",
"UX c #F6F8FA",
"YX c None",
/* pixels */
"YXYXYXYXYXYXYX. . . . . . . . . . . . . . . . . . . X YXYXYXYXYX",
"YXYXYXYX7 Z %.@.#.#.#.#.#.#.#.#.#.#.#.#.#.#.#.#.@.#.F p = YXYXYX",
"YXYXf F 3.%X|.'.'.'.|.|.{. X X X}. X{.^.^._._._.Q.Q.W.2.F s   YX",
"YXYXF 1.9XOX`.|.[.*XxXbXSXDXDXDXDXDXVXnXcXaXp.~.R.R.n.U.,.S o   ",
"YX% ;.XX].;XmXDXIXIXIXIXIXIXUXUXLXLXJXJXBXwXN ..}.{././.n.>.s . ",
"YX< <.!.$XHXUXIXIXIXIXIXIXIXUXPXLXKXLXCX0XrX+.X. X}.{./.J.h.V + ",
"YX, 4.MXUXUXUXIXIXIXIXIXIXIXUXPXLXPXlXqXgXNXe.8..X X}.{./.l.C + ",
"4 rXFXLXLXLXPXUXUXIXIXIXUXPXLXKXLXcXwXgXBXBXe.V.:X.X}.{./.z.J + ",
"sXAXCXCXAXJXKXKXLXLXLXLXKXJXGXJXsXtXNXZXCXBXe.V.>XXX X}./.z.J + ",
"rXrXrXrXfXkXNXCXAXGXAXAXCXCXBXrXrXBXAXZXCXBXe.V.>X>X.X}.{.c.J + ",
"B lXCXNXlXkXdXdXdXdXdXdXdXdXqX0XNXJXAXZXBXNXe.V.<X>X.X X{.c.J + ",
"M sXKXLXLXPXPXLXAXCXBXkXsXdXlXCXNXNXCXCXBXNXe.+X<X>XXX X}.c.J + ",
"  M NXKXPXPXUXIXIXIXIXJXUXPXIXIXUXZXlXNXNXcX0XV.1X>XXX.X}.b.J + ",
"YX* pXAXKXPXPXUXIXIXLXJXIXIXIXIXIXPXZXkXgXlXe.A.1X>XXX.X}.b.J + ",
"YX: G hXJXLXPXPXPXPXKXPXIXIXIXIXIXUXPXKXkXsXe.+X<X>XXX.X&Xb.J + ",
"YX: *.f.CXJXKXKXPXKXCXUXIXIXIXIXLXZXhXyXw.i.a.&X1X<XXX.X Xc.J + ",
"YX: =.c.dXZXAXJXAXCXPXUXUXJXcXuXq.s.a.#X;X3X,X2X1X>XXX X Xc.J + ",
"YX: =.E.f.lXAXAXCXCXPXKXjXd.s.@X-X6X7X8X7X4X4X2X1X<XXX X{.c.J + ",
"YX: =.E.#XrXNXBXBXKXzXw.0.-X8X8X8X8X8X7X7X4X2X1X<X<X.X X{.c.J + ",
"YX: =.E.:Xg.gXNXNXfXu.+X6X8X8X8X8X8X7X7X4X2X2X1X<XXX.X X{.c.J + ",
"YX: &.E.XX:XeXdXt.6.=X5X .q 1 3 Q -X7X4X4X2X1X1XB.R C.}.).z.J + ",
"YX: &.I.XX>Xg.y.6.=X5X6.X   ; $ @ 6.4X4X2X2X1X1Xm   I /./.z.H + ",
"YX: &.I.XX<X.XK.:X2XK.1 X n K.#X^ m 3 m 1X7.2 l $   # 2 C.l.H + ",
"YX: &.P..X>X>XXX1X1X9.@ - ..3X2X,XZ.  1 [.z X z -   ; 9 o.k.k + ",
"YX: &.P. X.XXX<X<X<Xo.O 1 Z.1X1X1X,X3 X ! - - } x   v M.D.k.C + ",
"YX: %.U.}. X.XXX>X<X8.# - 7.1X>X<X:X!   2 X 8 C.x   b D.G.k.k + ",
"YX= $.x.{.}.}. X.X.X[.w   2 } | t X.B.-     W G.v   t O.H.[ h o ",
"YXX A ,.n.{.}. X X X.XX.#   X X @ ~ J.0   O } ~.! X X ; O.{ u   ",
"YXYXs / j.n.~.~.~.^.{.~.M.b e c ~ M.~.m.b P m.G.N.I r e K C .   ",
"YXYX: 6 U ) ` ' ' ' ' h.:.] ( ( _ ` ` ] ( ( _ _ _ ( E Y j >     ",
"YXYXYX  + 6 a g g g g g g g g g g g g g g d d d d d i 5       YX",
"YXYXYXYX    . .   . . . . . . . .   . . . . .   . .         YXYX"
};
