/* XPM */
static char *kmailcvt-16[] = {
/* columns rows colors chars-per-pixel */
"16 16 220 2",
"   c black",
".  c #010000",
"X  c #020000",
"o  c #030000",
"O  c #000004",
"+  c #040000",
"@  c #070000",
"#  c #0A0700",
"$  c #0F0000",
"%  c #110000",
"&  c #130000",
"*  c #150000",
"=  c #180000",
"-  c #1B0000",
";  c #1C0100",
":  c #1E0000",
">  c #1F0300",
",  c #1F0500",
"<  c #1C1307",
"1  c #210400",
"2  c #230600",
"3  c #230700",
"4  c #240000",
"5  c #240600",
"6  c #240700",
"7  c #250800",
"8  c #260900",
"9  c #270900",
"0  c #2B0C00",
"q  c #2D0E00",
"w  c #231507",
"e  c #22180A",
"r  c #271C0B",
"t  c #291C0B",
"y  c #340900",
"u  c #2E200D",
"i  c #30210C",
"p  c #3C2B0F",
"a  c #3B2B11",
"s  c #3F393B",
"d  c #461500",
"f  c #442E12",
"g  c #483318",
"h  c #4D3A17",
"j  c #5D2300",
"k  c #6E2A05",
"l  c #7A2600",
"z  c #5D4019",
"x  c #784603",
"c  c #7C4C02",
"v  c #7A541E",
"b  c #6E5522",
"n  c #4D5252",
"m  c #880D00",
"M  c #8D0E00",
"N  c #871000",
"B  c #871100",
"V  c #981200",
"C  c #991400",
"Z  c #9D1800",
"A  c #9C2800",
"S  c #A31F00",
"D  c #A52401",
"F  c #895F28",
"G  c #94682A",
"H  c #9B6C28",
"J  c #B64A07",
"K  c #BD5800",
"L  c #AB6F0C",
"P  c #B5750E",
"I  c #A97B30",
"U  c #B17A29",
"Y  c #B67F2F",
"T  c #B47E31",
"R  c #967F56",
"E  c #CD7404",
"W  c #C17D10",
"Q  c #DD6700",
"!  c #C46A3F",
"~  c #F36A00",
"^  c #F87500",
"/  c #FC7800",
"(  c #FF7900",
")  c #FF7A00",
"_  c #9F845A",
"`  c #9F9170",
"'  c #A68452",
"]  c #A58655",
"[  c #A98656",
"{  c #C98212",
"}  c #D09332",
"|  c #DDA02D",
" . c #D6A835",
".. c #E39419",
"X. c #E4921D",
"o. c #E49519",
"O. c #E8961A",
"+. c #EB9A1A",
"@. c #F29F1B",
"#. c #E59720",
"$. c #EF9F26",
"%. c #FF8621",
"&. c #FCA41E",
"*. c #FFB01C",
"=. c #EAA43A",
"-. c #EBB336",
";. c #F1A024",
":. c #F4A127",
">. c #F5A126",
",. c #F4A227",
"<. c #F5A226",
"1. c #F6A327",
"2. c #FFAD27",
"3. c #FFA828",
"4. c #FFAB2D",
"5. c #FEAE33",
"6. c #FFAD3A",
"7. c #FFB523",
"8. c #F7BA30",
"9. c #FFB031",
"0. c #FFB535",
"q. c #FFB737",
"w. c #FFB93F",
"e. c #FFBD3D",
"r. c #C69644",
"t. c #C09F4B",
"y. c #C49B48",
"u. c #CA9B47",
"i. c #D6AD58",
"p. c #FAB543",
"a. c #FDB140",
"s. c #FFB341",
"d. c #FFB643",
"f. c #FFB544",
"g. c #FFB744",
"h. c #FFB745",
"j. c #FFB845",
"k. c #FFBB45",
"l. c #FFBB46",
"z. c #FFBE41",
"x. c #FFBC45",
"c. c #FFB948",
"v. c #FFC334",
"b. c #FFC03B",
"n. c #FFC13F",
"m. c #FFCC3F",
"M. c #FFC245",
"N. c #FFC540",
"B. c #FFC642",
"V. c #FFC64D",
"C. c #FFC94B",
"Z. c #FFCF48",
"A. c #FFCC4E",
"S. c #FFCE4E",
"D. c #FFCB52",
"F. c #FFCC52",
"G. c #FFD352",
"H. c #FFD556",
"J. c #FFDA55",
"K. c #FFDE55",
"L. c #FFD37C",
"P. c #FFEE5B",
"I. c #938A80",
"U. c #9B9B9B",
"Y. c #999B9F",
"T. c #849FBD",
"R. c #A5A5A5",
"E. c gray66",
"W. c #BFB9A9",
"Q. c #B2B4B5",
"!. c gray71",
"~. c #B5BBBC",
"^. c #B9B9B9",
"/. c #BABBBB",
"(. c #9EB0D2",
"). c #ADB4C0",
"_. c #A8BEE0",
"`. c #BCC1AB",
"'. c #B7C4D6",
"]. c #C3B697",
"[. c #D3BF9A",
"{. c #FFE7B1",
"}. c #C2C3C4",
"|. c gray77",
" X c #C3CACD",
".X c #C8C8C8",
"XX c #CBCBCB",
"oX c #C0CDDF",
"OX c #D4C8CE",
"+X c gray82",
"@X c #D5D6D6",
"#X c #D3D6DD",
"$X c #D4D7D9",
"%X c #C4D0E1",
"&X c #CCD3E1",
"*X c #CADAE6",
"=X c #DEE5EF",
"-X c #DAE3F2",
";X c #FFEBC7",
":X c #FAEACC",
">X c #FFF6C5",
",X c #FFF1CB",
"<X c #FFF0D2",
"1X c #E3E3E4",
"2X c #E5E6E8",
"3X c #EBECED",
"4X c #EDEEEE",
"5X c #E2E8F6",
"6X c #E2F6FE",
"7X c #F3F6FA",
"8X c #F3FAFF",
"9X c #F6F8FD",
"0X c #F8F8F9",
"qX c #F8F9FA",
"wX c #F9FFFF",
"eX c #FFF8FD",
"rX c #FDFFFF",
"tX c #FEFFFF",
"yX c gray100",
"uX c None",
/* pixels */
"uXuXk A M m N N V V Z D D l   uX",
"uXJ m.e.L.{.,X<X:X;X[.} 7.*.K   ",
"uX%.>XyXyXyXyXyXyX*XT._ 5.p.@.4 ",
"s eXyXyXyXyXyXqX}.Y.'.[ 4.a.$.8 ",
"~. XQ./.|.XX.XU.R.2X%X' 9.a.;.3 ",
"n wX4X1X+X!.R./.@X$X'.] q.f.,.6 ",
"uXOXyXyXyX0XyXyXyX&X(._ q.h.>.3 ",
"uX! 6X7X4X9XyX8X#XW.` r.z.f.>.6 ",
"uX~ `.-X-X5X].t. .-.b.M.k.f.>.3 ",
"uX) i._.~.y.8.B.K.H.F.V.k.k.1.6 ",
"uX) e.I.u.| #   b H.G.h.f Y 3.8 ",
"uX^ N.6.Z.a i F.I u H w   r #.q ",
"@ ) z.f.C.t z P.S.<   v e U 2.0 ",
"uXQ v.c.A.T O g G F   =.a h X.: ",
"uXy E o.o.&.P c { o.L +.W x j   ",
"uXuX  % $ % 3 8 : * , * : - uXuX"
};
