/* XPM */
static char *kmail[] = {
/* columns rows colors chars-per-pixel */
"32 32 257 2",
"   c #080707",
".  c #0C0A0B",
"X  c gray2",
"o  c #110F0F",
"O  c #131011",
"+  c #181516",
"@  c #1A1718",
"#  c #1C191A",
"$  c #1B1828",
"%  c #181727",
"&  c #121A3D",
"*  c #211D1E",
"=  c #231F20",
"-  c #31241E",
";  c #342926",
":  c #3C2B24",
">  c #141F51",
",  c #20265F",
"<  c #203055",
"1  c #323B4C",
"2  c #333C57",
"3  c #2A2C62",
"4  c #222B66",
"5  c #2C3860",
"6  c #354877",
"7  c #4A3630",
"8  c #6C3100",
"9  c #7B3E00",
"0  c #443F75",
"q  c #7D400B",
"w  c #604C3E",
"e  c #56585C",
"r  c #444B65",
"t  c #5B5D74",
"y  c #6D484D",
"u  c #6E574A",
"i  c #705147",
"p  c #7E604A",
"a  c #7A6255",
"s  c gray39",
"d  c #79797A",
"f  c #404E83",
"g  c #485185",
"h  c #6C6D82",
"j  c #747181",
"k  c #76758B",
"l  c #787587",
"z  c #767881",
"x  c #903200",
"c  c #A73500",
"v  c #8E4601",
"b  c #9D450C",
"n  c #9F4C10",
"m  c #974A1A",
"M  c #8D4826",
"N  c #835E2A",
"B  c #994C27",
"V  c #9C6602",
"C  c #996B18",
"Z  c #A95601",
"A  c #A25113",
"S  c #B15900",
"D  c #BE5F00",
"F  c #B05502",
"G  c #A3532C",
"H  c #AC5731",
"J  c #A26600",
"K  c #A66800",
"L  c #A76F0A",
"P  c #AB6800",
"I  c #A16E11",
"U  c #AE7003",
"Y  c #B26B00",
"T  c #BB6D00",
"R  c #BA7400",
"E  c #AB7C38",
"W  c #90745D",
"Q  c #A36F57",
"!  c #BE7D59",
"~  c #AF7962",
"^  c #B07C62",
"/  c #CF4F00",
"(  c #C56403",
")  c #C17100",
"_  c #CF7100",
"`  c #CA7B01",
"'  c #C27903",
"]  c #D16E01",
"[  c #DE7807",
"{  c #DB7913",
"}  c #C66622",
"|  c #C0643D",
" . c #DB743E",
".. c #E56A00",
"X. c #E96100",
"o. c #EC6F00",
"O. c #E37A00",
"+. c #EA7400",
"@. c #E87800",
"#. c #E47719",
"$. c #F46800",
"%. c #FB6900",
"&. c #F47300",
"*. c #F37C00",
"=. c #FF7600",
"-. c #FD7B00",
";. c #F9780F",
":. c #E37621",
">. c #E1773E",
",. c #C56840",
"<. c #C26F48",
"1. c #C37556",
"2. c #E17C42",
"3. c #BC8011",
"4. c #B58329",
"5. c #BF9537",
"6. c #B48A56",
"7. c #AB927B",
"8. c #BA8765",
"9. c #CC890C",
"0. c #C48511",
"q. c #DC8F07",
"w. c #DE9205",
"e. c #C0953A",
"r. c #D6952A",
"t. c #D19839",
"y. c #D9A638",
"u. c #E58615",
"i. c #F28800",
"p. c #FD8400",
"a. c #FE8E00",
"s. c #FF8F0F",
"d. c #FF840F",
"f. c #FE8A10",
"g. c #FD9300",
"h. c #FC940E",
"j. c #FD9B00",
"k. c #F39200",
"l. c #E08530",
"z. c #E18838",
"x. c #E0833C",
"c. c #E39221",
"v. c #E89B33",
"b. c #F38823",
"n. c #F2993F",
"m. c #EBA118",
"M. c #FEA300",
"N. c #FEAA00",
"B. c #FDAE0A",
"V. c #FEA40E",
"C. c #F2A519",
"Z. c #FEB30A",
"A. c #FDB211",
"S. c #FEB815",
"D. c #FFBD19",
"F. c #E3A439",
"G. c #F5AF22",
"H. c #FBAD32",
"J. c #FAB22D",
"K. c #FDBB22",
"L. c #FEB53B",
"P. c #FEBC35",
"I. c #FBBC3C",
"U. c #F7B234",
"Y. c #DE804A",
"T. c #DD9552",
"R. c #C08E6A",
"E. c #D89761",
"W. c #D1A748",
"Q. c #E28042",
"!. c #E48844",
"~. c #E7A855",
"^. c #EBB749",
"/. c #F6AF40",
"(. c #FDBD4A",
"). c #F5B74A",
"_. c #EAA546",
"`. c #E5AE67",
"'. c #E5B273",
"]. c #EEB773",
"[. c #D1AE6D",
"{. c #FEC52E",
"}. c #F7C338",
"|. c #FEC53B",
" X c #FDC93C",
".X c #DBC37B",
"XX c #FFC44F",
"oX c #FECF41",
"OX c #F9C64A",
"+X c #FFCA54",
"@X c #FDCC5B",
"#X c #FFC554",
"$X c #F9D15C",
"%X c #E9C868",
"&X c #E3CB78",
"*X c #FEC965",
"=X c #F4D069",
"-X c #FED466",
";X c #FED968",
":X c #FCDA74",
">X c #FDDC7C",
",X c #FED277",
"<X c #FFE17B",
"1X c #878787",
"2X c #948F98",
"3X c #939393",
"4X c #9C9C9C",
"5X c #9A95A0",
"6X c #9AA2B9",
"7X c gray64",
"8X c #AAAAAA",
"9X c #ADA0BA",
"0X c #B4B4B4",
"qX c #BABABA",
"wX c #D8A680",
"eX c #CCBFD7",
"rX c #DFC5BD",
"tX c #F3D980",
"yX c #EDDEAE",
"uX c #FFE484",
"iX c #FEE789",
"pX c #FCE590",
"aX c #FEE994",
"sX c #FEEBA1",
"dX c #F4E8B7",
"fX c #FFF0A3",
"gX c #FEF6BA",
"hX c #C4C4C4",
"jX c #CCCCCC",
"kX c #D3CCD8",
"lX c #D4D4D4",
"zX c #D7D7D9",
"xX c #DBDBDB",
"cX c #DEDBE3",
"vX c #DFD6E2",
"bX c #E1CBC5",
"nX c #E4D9D3",
"mX c #E0DCE3",
"MX c #F9EBC7",
"NX c #F3EED5",
"BX c #F7F2D7",
"VX c #FDFDD4",
"CX c #F9F0D8",
"ZX c #E3E3E3",
"AX c #E8E2E9",
"SX c #EAEAEA",
"DX c #E6E2E8",
"FX c #EEEBF2",
"GX c #ECF0F6",
"HX c #F9F0E4",
"JX c #FFFFEA",
"KX c #F3F3F3",
"LX c #F6FEFE",
"PX c #FCFAF3",
"IX c #FEFEFE",
"UX c #F2F7FA",
"YX c None",
/* pixels */
"YXYXYXYXYXYXYXYXYXYXYXYXYXYXYXYXYXYXYXYXYXYXYXYXYXYXYXYXYXYXYXYX",
"YXYXYXYXYXYXYXYXYXYXIXYXYXYXPXPXHXHXHXCXMXMXdX= = YXYXYXYXYXYXYX",
"YXYXYXYXYXYXYXYXYXIXFXAXKX= wXT.'.'.`.`.~.~.~.R.= = = YXYXYXYXYX",
"YXYXYXYXYXYXYXYXYXAXjXmXzXZXbX2.PXIXJXVXgXfX<XF.8.= = = YXYXYXYX",
"YXYXYXYXYXYXYXYXIXxXlXIXPXmXcXrXdXBXVXgXsXtX>X$Xv.8.= = = YXYXYX",
"YXYXYXYXYXYXYXeXkXSXxXIXIXIXPXZXlXnXNXdXpXtX;X+X Xc.~ = = = YXYX",
"YXYXYXYXYXYXYXFXZXLXzXIXIXIXIXIXIXUXmXvXyX=X@XOX{.S.u.~ = = = YX",
"YXYXYXYXYXYXIXmXIXPXzXIXIXIXIXIXIXIXIXjX9X%X).I.K.B.N.#.^ = = = ",
"YXYXYXYXYXYXSXSXIXLXzXIXIXIXIXIXIXKXxXhX7..X^.G.B.M.j.g.#.~ = = ",
"YXYXYXYXYXIXDXUXIXPXzXIXIXIXIXPXZXxXZX4X5.W..XtX:X-X@X#X(.E.= = ",
"YXYXYXYXIXGXSXZXPXUXzXPXIXKXSXxXSXKXlXW 5.t.&X$X}.D.A.V.h.!.= = ",
"YXYXYXYXIXmXKXZXIXLXnXUXZXZXSXKXKXSX3Xq 4.y.%X}.S.N.j.g.p.2.= = ",
"YXYXYXLXmXSXDXFXIXUXcXSXGXKXKXSXKXqXa 8 v r.=XK.N.M.g.p.-.2.= = ",
"YXYXYXUXzXSXmXIXPXUXnXPXKXSXSXSXZXl C N 9 Z ^.B.j.k.p.=.%.2.= = ",
"YXYXLXcXZXLXUXPXPXUXzXSXSXSXAXSXqXu I 4.E Z _ @.@.@.o.#.!.1.= = ",
"YXYXGXSXPXPXPXUXFXSXjXmXZXZXSXZXh C I 3.y.T._ O.i.g.j.#.6.= = = ",
"YXLXzXlXZXZXzXjXjXhXqXZXZXZXAX0Xu V L 0.m.(.~._.L.L.L.H.v.[.= = ",
"YX6X7X7X4X4X4X8X8X0XhXxXZXAXxXl V V U 9.C.J.iXiX;X+X|.P.H.~.= = ",
"YX6 s qXlXjXlXjXqXlXzXxXZXZX0Xy V K U S C.I.>X XS.N.M.g.-.2.= = ",
"YX= 1 3XzXxXxXzXqXxXZXxXZXxXk m J U R x ( I.<X{.Z.N.j.a.-.2.= = ",
"YXYX+ e hXxXzXlXqXxXxXxXxX8Xr m P Y R A c { ).C.k.i.@.=.$.2.= = ",
"YXYX= 2 3XxXzXlX0XlXxXxXjXk 7 b Y T ` r.} / ..+.&.&.o.x.! Q = = ",
"YXYX= # e qXzXlX8XlXlXlX8X3 : M F ) _ w.).:.X.%.-.p.*.z.u = = = ",
"YXYXYX= > 7.jXjX8XjXlXhXh $ O ; B D ` q.J.*Xb.;.d.f.f.h.l.w = = ",
"YXYXYX= @ r 8XhX8XhXjX4X3 O o . - B ( q.U.*XsXpX>X;X@X+X(.].= = ",
"YXYXYXYX= > d hX7XqXqXh O O o .   7 H @.(.,XaXoXD.B.M.g.p.Q.= = ",
"YXYXYXYX= # 2 2X7XqX2X, O o .   X   : | u.>XpX{.A.N.j.a.p.Q.= = ",
"YXYXYXYXYX$ & z 3X8Xt % o O o     o * i | _.uXD.N.M.g.p.=.2.= = ",
"YXYXYXYXYXYX# 4 1Xd 4 + + + + # YX= = = ; <.c c c c c c c 2.= = ",
"YXYXYXYXYXYX= + r h $ # * = = = YXYX= = = = = = = = = = = = = = ",
"YXYXYXYXYXYXYX= f g * = = = = YXYXYXYX= = = = = = = = = = = = = ",
"YXYXYXYXYXYXYX= = = = = = = = YXYXYXYXYX= = = = = = = = = = = = "
};
