/* XPM */
static char *knode-16[] = {
/* columns rows colors chars-per-pixel */
"16 16 93 2",
"   c #434343",
".  c #5A5A5A",
"X  c #5F5F5F",
"o  c gray38",
"O  c gray39",
"+  c #686868",
"@  c #6A6A6A",
"#  c gray44",
"$  c gray46",
"%  c #767676",
"&  c gray47",
"*  c #7B7B7B",
"=  c #7C7C7C",
"-  c gray49",
";  c #808080",
":  c #818181",
">  c gray51",
",  c #838383",
"<  c #848484",
"1  c gray52",
"2  c #888888",
"3  c #898989",
"4  c #8D8D8D",
"5  c #8E8E8E",
"6  c #909090",
"7  c gray57",
"8  c #929292",
"9  c #959595",
"0  c gray59",
"q  c #979797",
"w  c #989898",
"e  c #9A9A9A",
"r  c gray61",
"t  c gray63",
"y  c #A2A2A2",
"u  c gray64",
"i  c #A4A4A4",
"p  c gray68",
"a  c #AEAEAE",
"s  c #AFAFAF",
"d  c gray69",
"f  c #B1B1B1",
"g  c #B4B4B4",
"h  c #B6B6B6",
"j  c #B7B7B7",
"k  c gray72",
"l  c gray73",
"z  c #BBBBBB",
"x  c #BCBCBC",
"c  c gray74",
"v  c gray",
"b  c #C0C0C0",
"n  c #C1C1C1",
"m  c gray76",
"M  c gray77",
"N  c #C5C5C5",
"B  c gray78",
"V  c #C8C8C8",
"C  c gray79",
"Z  c #CACACA",
"A  c #CECECE",
"S  c gray81",
"D  c LightGray",
"F  c gray83",
"G  c #D5D5D5",
"H  c gray84",
"J  c #D7D7D7",
"K  c #D8D8D8",
"L  c gray86",
"P  c gainsboro",
"I  c #DDDDDD",
"U  c gray87",
"Y  c gray88",
"T  c #E1E1E1",
"R  c #E2E2E2",
"E  c gray89",
"W  c #E4E4E4",
"Q  c #E6E6E6",
"!  c #E7E7E7",
"~  c gray91",
"^  c #EAEAEA",
"/  c gray92",
"(  c gray93",
")  c #EFEFEF",
"_  c gray94",
"`  c #F3F3F3",
"'  c gray96",
"]  c gray97",
"[  c gray98",
"{  c #FBFBFB",
"}  c #FDFDFD",
"|  c gray100",
" . c None",
/* pixels */
" . . . . . . . . . . . . . . . .",
"X t t t t t t t q - - - - - $   ",
"q / / { | | | | | | | | | ` ` $ ",
"6 S k S S S m t a N S S S r k 1 ",
"q ( D | @ : e $ : @ $ 4 4 | ` 1 ",
"t L x S t t k k a t a a a m f * ",
"e / L L | { | | | ` E | / E / 3 ",
"3 L E N | ( R k t e e ( m x h q ",
"4 m L x / / / R k k q R V L L i ",
"i | | / ( / R E D r q S L x x r ",
"e V V x R D L L D x x S V m f 3 ",
"6 N S N R D L E L R L D V N h 4 ",
"6 x f f D f N R L x D R k S h 1 ",
"3 x x i D h h V L N x D f x m 1 ",
". + O * - - * : : * * : @ : 1 O ",
" . . . . . . . . . . . . . . . ."
};
