/* XPM */
static char *knode[] = {
/* columns rows colors chars-per-pixel */
"32 32 118 2",
"   c black",
".  c #464646",
"X  c gray31",
"o  c gray32",
"O  c #565656",
"+  c gray34",
"@  c gray35",
"#  c #5A5A5A",
"$  c #606060",
"%  c gray38",
"&  c #626262",
"*  c #656565",
"=  c gray40",
"-  c #6A6A6A",
";  c #6C6C6C",
":  c #6D6D6D",
">  c gray43",
",  c #6F6F6F",
"<  c gray44",
"1  c #717171",
"2  c #727272",
"3  c #747474",
"4  c gray46",
"5  c #767676",
"6  c gray48",
"7  c #7E7E7E",
"8  c #818181",
"9  c #848484",
"0  c gray53",
"q  c gray55",
"w  c #8D8D8D",
"e  c #939393",
"r  c gray58",
"t  c #959595",
"y  c gray59",
"u  c #979797",
"i  c #989898",
"p  c gray60",
"a  c #9B9B9B",
"s  c gray61",
"d  c #9D9D9D",
"f  c gray62",
"g  c #9F9F9F",
"h  c #A0A0A0",
"j  c #A4A4A4",
"k  c gray65",
"l  c #A7A7A7",
"z  c gray66",
"x  c #ACACAC",
"c  c gray68",
"v  c #AEAEAE",
"b  c gray69",
"n  c #B2B2B2",
"m  c gray71",
"M  c #B6B6B6",
"N  c #B7B7B7",
"B  c #B9B9B9",
"V  c gray73",
"C  c #BCBCBC",
"Z  c gray74",
"A  c gray",
"S  c gray75",
"D  c #C1C1C1",
"F  c gray76",
"G  c #C3C3C3",
"H  c gray77",
"J  c #C5C5C5",
"K  c #C6C6C6",
"L  c gray78",
"P  c gray79",
"I  c #CACACA",
"U  c #CBCBCB",
"Y  c gray80",
"T  c #CDCDCD",
"R  c #CECECE",
"E  c gray81",
"W  c gray82",
"Q  c #D2D2D2",
"!  c LightGray",
"~  c gray83",
"^  c #D5D5D5",
"/  c gray84",
"(  c #D8D8D8",
")  c gray85",
"_  c #DADADA",
"`  c gray86",
"'  c gainsboro",
"]  c #DDDDDD",
"[  c gray87",
"{  c gray88",
"}  c #E1E1E1",
"|  c #E2E2E2",
" . c gray89",
".. c #E4E4E4",
"X. c gray90",
"o. c #E6E6E6",
"O. c gray91",
"+. c #E9E9E9",
"@. c #EAEAEA",
"#. c gray92",
"$. c #ECECEC",
"%. c gray93",
"&. c #EFEFEF",
"*. c gray94",
"=. c #F1F1F1",
"-. c gray95",
";. c #F3F3F3",
":. c #F4F4F4",
">. c gray96",
",. c gray97",
"<. c #F8F8F8",
"1. c #F9F9F9",
"2. c gray98",
"3. c #FBFBFB",
"4. c gray99",
"5. c #FDFDFD",
"6. c gray100",
"7. c None",
/* pixels */
"7.7.7.7.7.7.7.7.7.7.7.7.7.7.7.7.7.7.7.7.7.7.7.7.7.7.7.7.7.7.7.7.",
"7.7.7.7.7.7.7.7.7.7.7.7.7.7.7.7.7.7.7.7.7.7.7.7.7.7.7.7.7.7.7.7.",
"7.. . . . . . . . . . . . . . . . . . . . . . . . . . . . 7.7.7.",
". & 7 7 7 7 7 7 7 7 7 7 7 7 7 0 x D D D D D D Z Z D Z p & . 7.7.",
"+ Q ] $.6.6.6.6. .] ] ] ] ] ] ] ` ` ] ` ` ` ] ] ] ]  .6.6 . 7.7.",
"+  .o.o.o.o.o.o.$.o.o.$.o.$.o.o.$.o.$.o.$.o.o.$.o.$.o.o.D . 7.7.",
"o $.6.$.-.6.6.6.6.6.6.6.6.-. .-.-.-.6.6.6.6.6.6.$.L ] ` T . 7.7.",
"- o.:.N Z L T T Q  .o.$.$.^ ^ ^  .` Q T T T T T T T V v D . 7.7.",
"2  .6.$.$.$.$.^ Z L  .T x x D T T T g N  .o.$.$.$.^ V ` 6.. 7.7.",
"2  .6.L ^ :.6.T p 8 v v V & w 8 8 8 w w e w w p -.6.6.6.6.. 7.7.",
"2  .6.^ ] 1.6.-.v p w Q V V v V v p e Q 5 8 v w $.$.$.$.6.. 7.7.",
"- ] o.e e e e e e e e e e e e e e l v v v v v v v v v v -.. 7.7.",
"2 T 6.6.6.6.6.6.6.6.6.6.6.6.6.6.6.6.6.6.6.6.6.6.6.6.6.6.6.. 7.7.",
"-  .1.$.-.] -.T 6.6.6.1.6.1.1.6.6.6.6.o.-.6.6.` 1.$.-.` o.. 7.7.",
"-  .` L ] o.] T 6.6.]  .]  .] D N N g u u 6.6.T  .` ` ] o.- 7.7.",
"2  .6.-.:.:.-.T 6.6. . .o.Q v j g u u u p 1.6.] o.` ] ] :.5 7.7.",
"- ` L T T ^ ] T 6.6. . .o.D Z v g g x u p o.6.o. .T Q T  .5 7.7.",
"-  .L T ` ` ] T 6.6.] ] $. .$. .v Z  .e p o.6.` 6.6.1.6.6.5 7.7.",
"- o.:.$.$.-.$.L 6.6.]  .$.] o.] ` v D u u L 6.L -.` ]  .] 5 7.7.",
"& -.6.6.6.6.6.L 6.6.] ] ] ] ] ] ^ p u u u T 6.L  .L ] ] ` 5 7.7.",
"# :.` T ` ` ` ^ 6.6.1.1.1.1.1.1. .^ L T T -.6.L Q D ^ ` ] 5 7.7.",
"# -.]  .^ T  .Q Z T L L L L ^ L L T Z D Z T D L ` ` T ` ] 2 7.7.",
"& o.Q T ^ ^ ] L D N v L  .D  .Z N Q v Z v N x D $.^ ^  .T 5 . 7.",
"2 $.^ Q ^ ] ` L  . . . .:.:.6.-.$.6.:.-. . .o.L  .T ^ ] Q 7 . 7.",
"2 o.^ Q L Q ] D o.^ L ^ ^ ` $.6.] ` ^ ] ^ ^ 1.D Q L ^ ^ ^ g . 7.",
"2  .Q ^ L ^ ` D  .^ L ^ ` `  .1.` ^ ^ ^ ^ ^ 1.D ` Q T ] ` g . 7.",
"- ` L L ` ` T Q ] T Q L L T  .-.T T T Q L ] -.T ` Q L L ` p . 7.",
"o ^ T Q ` ] D L Q L L L L L Q ] L D D L L L ] v T L ^ ] ` e . 7.",
". 0 p g g Z l Z D Z Z Z Z Z L T Z Z Z D Z D T j L D D L D q . 7.",
". . . . . . . . . * * * * * * * * * * * * * * # * * * * + . . 7.",
"7.7.7.7.7.7.7.7.7.7.7.7.7.7.7.7.7.7.7.7.7.7.7.7.7.7.7.7.7.7.7.7.",
"7.7.7.7.7.7.7.7.7.7.7.7.7.7.7.7.7.7.7.7.7.7.7.7.7.7.7.7.7.7.7.7."
};
