/* XPM */
static char *knotes[] = {
/* columns rows colors chars-per-pixel */
"32 32 198 2",
"   c #000000",
".  c #090906",
"X  c #0D0C08",
"o  c #100F0B",
"O  c #11100B",
"+  c #151411",
"@  c #1D1C13",
"#  c #24241A",
"$  c #28271B",
"%  c #29291C",
"&  c #2D2D20",
"*  c #322F21",
"=  c #343323",
"-  c #3B3B27",
";  c #3E3E28",
":  c #423F2B",
">  c #44432C",
",  c #4C4D2E",
"<  c #484731",
"1  c #4D4D32",
"2  c #4C4E3E",
"3  c #574823",
"4  c #584921",
"5  c #535335",
"6  c #55553B",
"7  c #585732",
"8  c #5B5A34",
"9  c #5C5C3B",
"0  c #6E4E14",
"q  c #7C5D1F",
"w  c #645C2F",
"e  c #635934",
"r  c #645D38",
"t  c #7A5F22",
"y  c #7F601F",
"u  c #6F652E",
"i  c #646136",
"p  c #61603E",
"a  c #6B6333",
"s  c #766127",
"d  c #74612B",
"f  c #7C6323",
"g  c #766739",
"h  c #605E40",
"j  c #666445",
"k  c #6D6B4A",
"l  c #707247",
"z  c #7D8180",
"x  c #875E16",
"c  c #815E1B",
"v  c #895F15",
"b  c #8E6003",
"n  c #8E610C",
"m  c #84601B",
"M  c #8C6115",
"N  c #936404",
"B  c #91640B",
"V  c #96680B",
"C  c #9D6C01",
"Z  c #996D0B",
"A  c #916512",
"S  c #916518",
"D  c #956A13",
"F  c #94691C",
"G  c #996E12",
"H  c #996F1D",
"J  c #9F7108",
"K  c #9F7210",
"L  c #9A701A",
"P  c #976E23",
"I  c #986F25",
"U  c #9B7323",
"Y  c #A57400",
"T  c #AC7C02",
"R  c #A17513",
"E  c #A17619",
"W  c #A77A17",
"Q  c #A2781C",
"!  c #A57B20",
"~  c #866C42",
"^  c #817044",
"/  c #8C764E",
"(  c #8C7950",
")  c #957749",
"_  c #B28001",
"`  c #B68708",
"'  c #B88500",
"]  c #BC8A00",
"[  c #8D8C5E",
"{  c #908057",
"}  c #979565",
"|  c #9A9868",
" . c #A6814F",
".. c #AF8848",
"X. c #B28C5A",
"o. c #B39158",
"O. c #AE8D62",
"+. c #BA9461",
"@. c #BC9A6D",
"#. c #A6A570",
"$. c #B5B47C",
"%. c #C69400",
"&. c #C99400",
"*. c #CC9900",
"=. c #C49A1E",
"-. c #C89B17",
";. c #D49F00",
":. c #CEA31E",
">. c #D8AB05",
",. c #D9AC1B",
"<. c #D8AC21",
"1. c #DCB225",
"2. c #E4AD00",
"3. c #E1B524",
"4. c #E3B928",
"5. c #C19B5D",
"6. c #DAB648",
"7. c #D4B159",
"8. c #C0A066",
"9. c #C7A772",
"0. c #CDAD72",
"q. c #D2BB7B",
"w. c #D5C67D",
"e. c #EACA4B",
"r. c #E5C956",
"t. c #E9CC59",
"y. c #E9CA67",
"u. c #EDDA70",
"i. c #F1D868",
"p. c #FAD765",
"a. c #FCD865",
"s. c #F3DF72",
"d. c #FFDD77",
"f. c #FFDE78",
"g. c #F1E17A",
"h. c #FEE17B",
"j. c #FFE87D",
"k. c #868982",
"l. c #898D82",
"z. c #939384",
"x. c #9B9D86",
"c. c #9EA186",
"v. c #A3A287",
"b. c #A4A488",
"n. c #AAA98F",
"m. c #B4B48B",
"M. c #BEBB85",
"N. c #BCBC8B",
"B. c #C7BF81",
"V. c #C1BE8D",
"C. c #C3C38D",
"Z. c #C8C58E",
"A. c #CAC88F",
"S. c #C5C292",
"D. c #CCCA90",
"F. c #DDC88E",
"G. c #D3CE90",
"H. c #D3D190",
"J. c #D8D793",
"K. c #DCDC94",
"L. c #E1CC82",
"P. c #E2DB8D",
"I. c #E3E294",
"U. c #E3E298",
"Y. c #E9E495",
"T. c #EBE098",
"R. c #EBEB96",
"E. c #EDEC9E",
"W. c #F6E58A",
"Q. c #FDE682",
"!. c #FEEB84",
"~. c #FAEB8A",
"^. c #F2EC95",
"/. c #F2EB9D",
"(. c #FEF28C",
"). c #F3F197",
"_. c #F3F298",
"`. c #FFF691",
"'. c #FEF59A",
"]. c #FEFB94",
"[. c #FEFC9A",
"{. c #EBE9A1",
"}. c #F3E8A0",
"|. c #F5F0A3",
" X c #FEF6A2",
".X c #FCF5AC",
"XX c #FEF8A5",
"oX c #FEFAAC",
"OX c #F5F6B3",
"+X c #F6FABC",
"@X c #FEFCB2",
"#X c #FEFDBA",
"$X c #FFFEC1",
"%X c #FFFECD",
"&X c #FFFFD7",
"*X c #FFFFE2",
"=X c gray100",
"-X c None",
/* pixels */
"-X-X-X-X-X-X-X-X-X-X-X-X-X-X-X-X-X-X-X-X-X-X-X-X-X-X-X-X-X-X-X-X",
"-X-X-X-X-X-X-X-X-X-X-X-X-X-X-X-X-X-X-X-X-X-X-X-X-X-X-X-X-X-X-X-X",
"-X-X-X-X-X-X-X-X-X-X-X-X-X-X-X-X-X-Xh.j.h.j.~.-X-X-X-X-X-X-X-X-X",
"-X-X-X-X-X-X-X-X-X-X-X-X-X-X-Xh.h.h.j.w.!.(.(.].-X-X-X-X-X-X-X-X",
"-X-X-X-X-X-X-X-X-X-X-X-Xh.h.h.j.j.!.(.M.N.].].].].-X-X-X-X-X-X-X",
"-X-X-X-X-X-X-X-X-X-Xh.h.h.Q.Q.(.(.`.].].C.C.[.[.[.`.-X-X-X-X-X-X",
"-X-X-X-X-X-Xf.f.h.h.Q.!.(.(.(.].].[.R.[.[.C.m.[.[.[.'.-X-X-X-X-X",
"-X-X-X-Xf.f.h.j.!.!.(.(.`.].R.N.K.I.l.C.[.[.R.Z.R.[.'.'.-X-X-X-X",
"a.f.f.h.j.Q.!.(.`.`.].].[.[.R.b.z R.C.l.K.D.[.I.^.'.'.'.'.-X-X-X",
"y.!.!.!.(.(.`.].].[.[.[.[.).b.m.I.A.U.m.z.J.'.[.'.'.'.'. XoX+X-X",
"@.~.(.`.].].[.R.R.[.).Y.C.I.K.Z.H.E.n.S.'.'.'.'.'.'.XXoX@X.XP.-X",
"q.q.[.].[.K.x.H.K.[.Y.N.V.D.V.Z.C.XX.X|.XXXXXXXX XoX@XoXu.4.>.-X",
"Z.o.U.[.[.c.x.c.k.I._.D.m.D.H.Y.'..X@X.X.XoXoX@X#X@Xi.3.>.%.T Z ",
"} I 9..X[.R.^.R.z.z.b.v.R.T.[.'. X+X#X#X#X#X#X@Xg.1.*._ V n n V ",
"#.9  .F.XX[.[.[.[.V.H.[.'.'. X XXX$X%X%X&X.Xi.,.' Y n n V V G Q ",
"J.k g +.}.[.'.'.'.'.E. XXXXXoXoX@X&X*X.Xt.-.Y V A D K K Z N G E ",
"{.[ 7 ) 0.XX'.'. X XXXXXoX@X#X#X@XW.6.` C n F W W E L V A A 0 4 ",
"-X| p r X.L.@XXXXXoX@X#X#X@X~.r.=.Y N M L Q Q U F S M M q 4 O 2 ",
"-X| j 5 / o.^.@X#X#X.X~.e.:.T N n S H L U U F S M m s w < @ . & ",
"-X-Xj j r +.7.'.W.e.,.] C n M F U U U U S M m f u 8 , ; = * @ -X",
"-X-X< h 7 ( @.1.*.T N n A F L U P F M v c d a 8 , ; % $ & -X-X-X",
"-X-X@ < 5 9 @...N n D D H P F S v q s a i 9 , ; & @ X -X-X-X-X-X",
"-X-X  # > 1 ( o.N Z D D D M m t w a 8 1 ; = % @ . -X-X-X-X-X-X-X",
"-X-X-X. $ > j o.V B M M m w i 5 1 > = % + O . -X-X-X-X-X-X-X-X-X",
"-X-X-X  X % > ^ S q d r 9 5 > = # @ X .     -X-X-X-X-X-X-X-X-X-X",
"-X-X-X-X  X $ > e h 6 < = $ @ X .       -X-X-X-X-X-X-X-X-X-X-X-X",
"-X-X-X-X    X @ & = % @ X .           -X-X-X-X-X-X-X-X-X-X-X-X-X",
"-X-X-X-X-X    . X o X           -X-X-X-X-X-X-X-X-X-X-X-X-X-X-X-X",
"-X-X-X-X-X                -X  -X-X-X-X-X-X-X-X-X-X-X-X-X-X-X-X-X",
"-X-X-X-X-X-X-X        -X-X-X-X-X-X-X-X-X-X-X-X-X-X-X-X-X-X-X-X-X",
"-X-X-X-X-X-X-X-X-X-X-X-X-X-X-X-X-X-X-X-X-X-X-X-X-X-X-X-X-X-X-X-X",
"-X-X-X-X-X-X-X-X-X-X-X-X-X-X-X-X-X-X-X-X-X-X-X-X-X-X-X-X-X-X-X-X"
};
