/* XPM */
static char *knotes-16[] = {
/* columns rows colors chars-per-pixel */
"16 16 159 2",
"   c black",
".  c #090806",
"X  c #090906",
"o  c #0D0E0A",
"O  c #10100B",
"+  c #161610",
"@  c #1C1B13",
"#  c #1E1D14",
"$  c #1E1E15",
"%  c #212116",
"&  c #25251B",
"*  c #2A2A1C",
"=  c #2E2E20",
"-  c #313121",
";  c #333322",
":  c #343523",
">  c #3C3D27",
",  c #533D13",
"<  c #44452C",
"1  c #48482F",
"2  c #49492E",
"3  c #555339",
"4  c #595731",
"5  c #5E5932",
"6  c #5D5D3D",
"7  c #61572B",
"8  c #625837",
"9  c #665B33",
"0  c #765E24",
"q  c #726129",
"w  c #7D6121",
"e  c #7F6023",
"r  c #79683F",
"t  c #716743",
"y  c #716F45",
"u  c #835E17",
"i  c #81611E",
"p  c #86621C",
"a  c #8A641C",
"s  c #8E651D",
"d  c #95670B",
"f  c #93680F",
"g  c #96690A",
"h  c #996C0D",
"j  c #996C0E",
"k  c #916614",
"l  c #916715",
"z  c #946B1A",
"x  c #966B1E",
"c  c #966C1A",
"v  c #966C1F",
"b  c #9A6D11",
"n  c #9A6E11",
"m  c #9D7009",
"M  c #9C7019",
"N  c #9F741C",
"B  c #9B7221",
"V  c #A57605",
"C  c #A0720A",
"Z  c #AC811A",
"A  c #B18105",
"S  c #B98F1E",
"D  c #939263",
"F  c #9A9968",
"G  c #A28555",
"H  c #A28556",
"J  c #A28855",
"K  c #B39662",
"L  c #C19824",
"P  c #D3A925",
"I  c #DCBD38",
"U  c #C19C52",
"Y  c #D7BC57",
"T  c #D7BF7D",
"R  c #DDC77C",
"E  c #E2C554",
"W  c #EAD67D",
"Q  c #ECD87C",
"!  c #F8DF78",
"~  c #FFDF79",
"^  c #F2E27D",
"/  c #FFE07A",
"(  c #FFE17B",
")  c #FFE27C",
"_  c #FFE47E",
"`  c #FFE57F",
"'  c #A4A688",
"]  c #B9BA8C",
"[  c #BABA8E",
"{  c #C2C18E",
"}  c #C5C48F",
"|  c #C5C68F",
" . c #C7C78F",
".. c #CBC88F",
"X. c #CCCB90",
"o. c #CDCF90",
"O. c #D0D18E",
"+. c #D7D392",
"@. c #D6D792",
"#. c #D7D49B",
"$. c #DADA93",
"%. c #E0DE93",
"&. c #E0DD98",
"*. c #EFEB8E",
"=. c #E2E294",
"-. c #EBE093",
";. c #E8E691",
":. c #EFE997",
">. c #EFF097",
",. c #F4E380",
"<. c #F2E28F",
"1. c #FFE680",
"2. c #FFE882",
"3. c #FFE982",
"4. c #FEEB84",
"5. c #FFEC86",
"6. c #FFEE88",
"7. c #FFEF89",
"8. c #F7EC97",
"9. c #F0EA98",
"0. c #F0EB9A",
"q. c #F8EC92",
"w. c #FFF28C",
"e. c #FFF48E",
"r. c #FFF68F",
"t. c #F0F096",
"y. c #F7F696",
"u. c #F1F198",
"i. c #F8F599",
"p. c #FBF798",
"a. c #FCF399",
"s. c #FFF49B",
"d. c #FFF699",
"f. c #FFF799",
"g. c #FCF79E",
"h. c #FFFA94",
"j. c #FFFD97",
"k. c #FCFC99",
"l. c #FEFD99",
"z. c #FFFC99",
"x. c #FEF7A0",
"c. c #FFF6A0",
"v. c #FFF6A2",
"b. c #FFF7A9",
"n. c #FFF8A1",
"m. c #FFF8A2",
"M. c #FFF8A3",
"N. c #FFF8A5",
"B. c #FFF8A6",
"V. c #FEFAAB",
"C. c #FFFCAE",
"Z. c #FFFAB6",
"A. c #FFFCB2",
"S. c #FFFCB4",
"D. c #FFFDB4",
"F. c #F8FABA",
"G. c #FFFCBC",
"H. c #FFFCCA",
"J. c None",
/* pixels */
"J.J.J.J.J.J.J.J.J.J.J.J.J.J.J.J.",
"J.J.J.J.J.J.J.J.) W 4.e.J.J.J.J.",
"J.J.J.J.J.) _ 3.5.*.O.k.k.J.J.J.",
"J.J.~ _ 3.5.r.;.u.o.>.$.f.f.J.J.",
"! 1.5.e.h.j.k.]  .]  .i.f.f.v.J.",
"R h.y.@.u.%.....$.#.v.n.v.V.Q I ",
"G -.=. .' { +.0.V.Z.D.D.,.P A m ",
"y K g.f.:.0.n.B.G.H.Q L m j h n ",
"D r T n.B.C.A.8.Y Z b N M l u , ",
"F 6 G <.q.E S j z B x a w 7 : o ",
"J.3 t U V f z x s i q 4 > * = J.",
"J.+ < G d l p 0 5 1 ; % X J.J.J.",
"J.J.$ 8 e 9 1 ; @ X   J.J.J.J.J.",
"J.J.  O & $ X   J.J.J.J.J.J.J.J.",
"J.J.J.      J.J.J.J.J.J.J.J.J.J.",
"J.J.J.J.J.J.J.J.J.J.J.J.J.J.J.J."
};
