/* XPM */
static char *kontact[] = {
/* columns rows colors chars-per-pixel */
"32 32 127 2",
"   c black",
".  c gray9",
"X  c gray14",
"o  c #2C2C2C",
"O  c #2A2C33",
"+  c #333333",
"@  c #3E3E3E",
"#  c #172C58",
"$  c #3A404B",
"%  c #404040",
"&  c #4A4B4B",
"*  c #545454",
"=  c #595959",
"-  c #555D6F",
";  c #5E656F",
":  c #5E6A7D",
">  c #646464",
",  c #6B6B6B",
"<  c #757575",
"1  c #7C7C7C",
"2  c #375192",
"3  c #385BAE",
"4  c #3460CD",
"5  c #3B66CD",
"6  c #476AB6",
"7  c #5E76AD",
"8  c #607293",
"9  c #416BCD",
"0  c #5279D8",
"q  c #6F87BF",
"w  c #7B92C2",
"e  c #7E96D3",
"r  c #7294E8",
"t  c #7A9BED",
"y  c #BDAF79",
"u  c #D1AC2C",
"i  c #C4BC52",
"p  c #E9AD4B",
"a  c #FFCB00",
"s  c #FFC429",
"d  c #EFD37D",
"f  c #858585",
"g  c #8C8C8C",
"h  c #949494",
"j  c #9C9C9C",
"k  c #9090A6",
"l  c #A5A5A5",
"z  c #A4A6AE",
"x  c #A6A8AC",
"c  c #AFA7AF",
"v  c #ACABAB",
"b  c #A2A2B6",
"n  c #A7A7BB",
"m  c #A6AFBF",
"M  c #AFB4BE",
"N  c #B5B5B5",
"B  c #B0B4BF",
"V  c #BDBDBD",
"C  c #879EDA",
"Z  c #99AFDC",
"A  c #91ADE6",
"S  c #9FB7E8",
"D  c #A6B0C4",
"F  c #A5B6D4",
"G  c #B3B3C4",
"H  c #BFBFC4",
"J  c #BCBCCA",
"K  c #BFBFD0",
"L  c #A3BAEE",
"P  c #ACBFE8",
"I  c #A5BEF1",
"U  c #AABFF7",
"Y  c #BAC2D0",
"T  c #AAC3EE",
"R  c #AFC9F7",
"E  c #BDC3E1",
"W  c #BFCDE7",
"Q  c #B5CBFF",
"!  c #BBD1FE",
"~  c #DACD93",
"^  c #DFD394",
"/  c #DEC9A6",
"(  c #E0D2BD",
")  c #E8D1B0",
"_  c #F5D5AA",
"`  c #C4C4C4",
"'  c #C4C4CB",
"]  c #C5C9CC",
"[  c #CBCBCB",
"{  c #C4C4D3",
"}  c #CACAD3",
"|  c #CCCCD8",
" . c #C6D0DE",
".. c #CDD2DB",
"X. c #D2D2D2",
"o. c #D2D2DC",
"O. c #D9D9D9",
"+. c #CCCCE4",
"@. c #C2D0E7",
"#. c #C3D3FE",
"$. c #C5D9FE",
"%. c #C9D5FF",
"&. c #CDDFFF",
"*. c #D2D2E4",
"=. c #D2D2ED",
"-. c #D3D8E1",
";. c #DEDEE4",
":. c #DBDBEF",
">. c #D1DAF4",
",. c #D3DEFF",
"<. c #DCDCF7",
"1. c #D9DBF9",
"2. c #D5E0FF",
"3. c #DAE8FF",
"4. c #E4E4E4",
"5. c #E3E3E9",
"6. c #ECECEC",
"7. c #E2E2F7",
"8. c #E5E5FF",
"9. c #EEEEF3",
"0. c #E8E8FF",
"q. c #EDF1FF",
"w. c #F4F4F4",
"e. c #F4F4F8",
"r. c #F7F9FF",
"t. c #FEFEFE",
"y. c None",
/* pixels */
"y.y.y.y.y.y.y.y.y.y.y.y.y.y.y.y.y.y.y.y.y.y.y.y.y.y.y.y.y.y.y.y.",
"y.y.y.y.y.y.y.y.y.y.y.y.y.y.y.y.y.y.y.y.y.y.y.y.y.y.y.y.y.y.y.y.",
"y.y.y.y.y.y.y.y.y.y.y.y.y.y.y.y.y.y.y.y.y.y.y.y.y.y.y.y.y.y.y.y.",
"o + % = = = * = = * = * = 1 1 < > > , > > - 8 ; o y.y.y.y.y.y.y.",
"= ` [ X.X.[ X.X.X.[ X.X.X.X.6.w.e.e.6.Y L &.! D o y.y.y.y.y.y.y.",
"* 4.4.t.t.t.4.4.4.4.4.4.4.4.4.4.4.;.Z ! r.t.t.A @ y.y.y.y.y.y.y.",
"* t.6.` 6.t.t.t.t.t.t.X.` X.X.t.$.! r.t.t.t.t.$.; [ 4.6.6.l y.y.",
"> 6.N j N V V V V ` V V l j F Q q.t.r.e.6.6.w.4.6.r.;.} t.V y.y.",
"> 4.6.X.6.t.g = N N y - W T >.9.9.9.t.t.t.t.r.9.t.| e.} t.V y.y.",
"> w.X.N 6.t.` f > 1 { G w.t.t.t.t.t.t.t.t.e.t.( t.| { t.t.` y.y.",
"> 4.N j j V O.w.t.t.r.t.t.t.f l > N t.t.t.t.) _ 9.{ | n 5.O.h y.",
"> w.t.t.w.w.t.` e.e.X.X + = l f N 6.t.t.t.9.p s ;.y c b ' 4.h y.",
"= 4.N N x ;.l X % = h h O.O.t.t.t.t.t.t.t.9./ a b i u k o.e.g y.",
"> 4.t.3.T ..w.f 6.h , . & f t.t.t.t.t.t.t.t.5.~ d ^ c G w.w.v y.",
"=  .R 2.=.o.t., > f O.w.t.t.t.t.t.t.t.t.t.t.;.w.J G t.;.w.w.N y.",
": #.0.0.=.K t.t.t.t.t.t.t.t.t.t.t.t.t.t.t.t.t.t.r.o.` l 1 > ` f ",
"& ! 8.0.1.{ w.t.t.t.t.t.t.t.t.t.t.t.t.t.t.4.N > % * 1 * N w.X.y ",
"& @.,.0.8.+.4.t.t.t.t.t.t.t.t.` O.f , = = h g 6.t.w.w.w.6.6.;.8 ",
", [ I 0.8.+.4.t.` N O.N < = = f < ` w.t.t.t.t.w.w.w.w.w.6.6.4.j ",
"< 4.m %.0.+.o.4.@ = h h O.` t.t.t.t.t.t.t.t.w.t.w.w.6.6.w.6.4.v ",
", O.V S 0.=.' t.l h N 1 = f t.t.t.t.t.t.e.t.w.w.w.w.w.6.6.4.[ h ",
"< O.O.D Q <.{ w.h , l 4.t.t.t.t.t.t.t.e.w.w.w.w.4.X.N j g , - y ",
"= V N V Z 1.| O.t.t.t.t.t.t.t.t.t.t.t.4.X.V N j h &       y.y.y.",
"* ] V V G U *.} t.t.t.t.t.t.6.X.V v j j N l l N l o y.y.y.y.y.y.",
"@ f h v v w @.' t.4.O.` H B q 7 z N ` g ` N V V j o y.y.y.y.y.y.",
"o o o o o O C { K } *.*.C 2 $ & & & & % & & & & @ o y.y.y.y.y.y.",
"y.y.y.y.y.  6 K :.7.L 0 4 y.y.y.y.y.y.y.y.y.y.y.y.y.y.y.y.y.y.y.",
"y.y.y.y.y.y.# t #.r 5   y.y.y.y.y.y.y.y.y.y.y.y.y.y.y.y.y.y.y.y.",
"y.y.y.y.y.y.  3 9   y.y.y.y.y.y.y.y.y.y.y.y.y.y.y.y.y.y.y.y.y.y.",
"y.y.y.y.y.y.y.y.y.y.y.y.y.y.y.y.y.y.y.y.y.y.y.y.y.y.y.y.y.y.y.y.",
"y.y.y.y.y.y.y.y.y.y.y.y.y.y.y.y.y.y.y.y.y.y.y.y.y.y.y.y.y.y.y.y.",
"y.y.y.y.y.y.y.y.y.y.y.y.y.y.y.y.y.y.y.y.y.y.y.y.y.y.y.y.y.y.y.y."
};
