/* XPM */
static char *kontact-16[] = {
/* columns rows colors chars-per-pixel */
"16 16 112 2",
"   c black",
".  c #343434",
"X  c #333845",
"o  c #393F49",
"O  c gray35",
"+  c gray40",
"@  c DimGray",
"#  c #727272",
"$  c #767676",
"%  c gray47",
"&  c #7C7C82",
"*  c #416FD2",
"=  c #4A71C6",
"-  c #5883DF",
";  c #749BF0",
":  c #FFD048",
">  c gray51",
",  c gray53",
"<  c #80848D",
"1  c #888888",
"2  c gray55",
"3  c #8D8D8D",
"4  c gray57",
"5  c #979797",
"6  c gray61",
"7  c #9D9D9D",
"8  c #9F9F9F",
"9  c #A19C8F",
"0  c #A2A2A2",
"q  c #A4A4A4",
"w  c gray65",
"e  c gray66",
"r  c #A9A9A9",
"t  c gray68",
"y  c #AEAEAE",
"u  c #A4A8B0",
"i  c #ACAEB2",
"p  c #AEACB6",
"a  c gray69",
"s  c #B2B2B2",
"d  c #B6B6B6",
"f  c #B7B7B7",
"g  c #B0B2BA",
"h  c #B9B9B9",
"j  c #BBBBBB",
"k  c gray75",
"l  c #889DC5",
"z  c #94A9CE",
"x  c #95A9CF",
"c  c #A5B1CB",
"v  c #A9B2C2",
"b  c #A1B2D7",
"n  c #B5B9C2",
"m  c #A1B4E3",
"M  c #AABDE2",
"N  c #A9BBED",
"B  c #BEC2C9",
"V  c #C5BB9F",
"C  c gray76",
"Z  c #C5C5C5",
"A  c gray79",
"S  c #CBCBCB",
"D  c #CDCDCD",
"F  c #CECECE",
"G  c #C2C2D3",
"H  c #C6C9D6",
"J  c #C9C9D8",
"K  c #D2D2D2",
"L  c gray83",
"P  c gray84",
"I  c #DADADE",
"U  c gainsboro",
"Y  c #C3D4FF",
"T  c #C9DBFE",
"R  c #D6D6E8",
"E  c #D7DAE2",
"W  c #D2DAEF",
"Q  c #DADAE4",
"!  c #DCDCE3",
"~  c #DBDBE8",
"^  c #CDE0FF",
"/  c #D7E8FF",
"(  c #DAE7FF",
")  c #DAEBFF",
"_  c #DCEDFF",
"`  c #E8E0DE",
"'  c #FCE4C1",
"]  c #FBF1D8",
"[  c gray88",
"{  c #E4E4E4",
"}  c #E7E7E7",
"|  c #E3E3ED",
" . c #E7E7EC",
".. c #E3E3FC",
"X. c #EBEDF1",
"o. c #E9E9FF",
"O. c gray94",
"+. c #F0F0F1",
"@. c #F1F1F1",
"#. c #F3F3F3",
"$. c #F4F4F4",
"%. c gray96",
"&. c #F1F4F8",
"*. c #F4F4FF",
"=. c #FBFBFB",
"-. c #FBFDFF",
";. c gray99",
":. c #FDFDFD",
">. c #FCFCFE",
",. c #FEFEFE",
"<. c gray100",
"1. c None",
/* pixels */
"1.1.1.1.1.1.1.1.1.1.1.1.1.1.1.1.",
"1.1.1.1.1.1.1.1.1.1.1.1.1.1.1.1.",
"O % % % % % 4 Z F i x l . 1.1.1.",
"r P <.<.<.#.[ &._ / <.^ < %.<.1.",
"P d S + 7 $ v T -.<.<.<.| J #.1.",
"S 7 U k P =.<.Z d <.<.' Q G #.0 ",
"K [ X.5 $ O O Z { <.<.: p 9  .7 ",
"B ) W 5 , + r <.<.<.<.] V ` <.w ",
"z *.R <.<.<.<.<.<.<.%.Z & # 2 d ",
"u ( ..<.P { q 5 $ , a S <.<.=.F ",
"y M o.I O , + <.<.<.<.<.<.<.#.C ",
"2 n Y ! d { <.<.<.<.{ P y q , > ",
"+ y b H <.#.E c g y j j + 1.1.1.",
". . o m ~ N = X . . . . . 1.1.1.",
"1.1.1.- ; * 1.1.1.1.1.1.1.1.1.1.",
"1.1.1.1.1.1.1.1.1.1.1.1.1.1.1.1."
};
