/* XPM */
static char *korganizer-16[] = {
/* columns rows colors chars-per-pixel */
"16 16 198 2",
"   c black",
".  c #000200",
"X  c #020300",
"o  c #000700",
"O  c #000800",
"+  c #000900",
"@  c #000B00",
"#  c #001003",
"$  c #001F04",
"%  c #032708",
"&  c #002903",
"*  c #002B04",
"=  c #002F06",
"-  c #042E04",
";  c #003106",
":  c #063108",
">  c #033E05",
",  c #003C0A",
"<  c #003E0B",
"1  c #273E0A",
"2  c #00400B",
"3  c #004716",
"4  c #01451A",
"5  c #005213",
"6  c #005915",
"7  c #005F1A",
"8  c #085018",
"9  c #006B19",
"0  c #006F18",
"q  c #006F1A",
"w  c #0F661E",
"e  c #0D7415",
"r  c #096430",
"t  c #146B25",
"y  c #4E617B",
"u  c #79737D",
"i  c #4E6380",
"p  c #5D7A97",
"a  c #637FA6",
"s  c #008C1D",
"d  c #008C1E",
"f  c #008425",
"g  c #008927",
"h  c #008B2C",
"j  c #008F2F",
"k  c #098922",
"l  c #02952F",
"z  c #009934",
"x  c #138D21",
"c  c #198220",
"v  c #0DA72F",
"b  c #0FA62F",
"n  c #0FA82F",
"m  c #0EA13D",
"M  c #0CA830",
"N  c #07B034",
"B  c #09B034",
"V  c #09B036",
"C  c #0DB337",
"Z  c #10A62F",
"A  c #279E22",
"S  c #08B841",
"D  c #24915F",
"F  c #2C9B66",
"G  c #35966C",
"H  c #09C04D",
"J  c #1CC056",
"K  c #34CB64",
"L  c #409E20",
"P  c #5B833F",
"I  c #6E9816",
"U  c #6D9920",
"Y  c #47B16A",
"T  c #53AA7D",
"R  c #5EDB44",
"E  c #3BAF8C",
"W  c #3DA49F",
"Q  c #6482A3",
"!  c #7091B8",
"~  c #78BF9A",
"^  c #6793CA",
"/  c #6699D7",
"(  c #6A9BD8",
")  c #709ED3",
"_  c #77A0D3",
"`  c #74A2D7",
"'  c #72A0DA",
"]  c #7DA8D8",
"[  c #6EA2E1",
"{  c #6ED792",
"}  c #60C5AA",
"|  c #B01702",
" . c #8D4B10",
".. c #8D6111",
"X. c #AC6F3E",
"o. c #896357",
"O. c #D57207",
"+. c #E94600",
"@. c #ED7500",
"#. c #F26500",
"$. c #F66400",
"%. c #F26800",
"&. c #F76A00",
"*. c #F96900",
"=. c #FD6F00",
"-. c #FE6D00",
";. c #F57300",
":. c #F57700",
">. c #F67800",
",. c #FD7200",
"<. c #FE7000",
"1. c #FE7300",
"2. c #FD7700",
"3. c #FE7400",
"4. c #FE7800",
"5. c #FE7900",
"6. c #FC7C00",
"7. c #FE7C00",
"8. c #D57C53",
"9. c #8C7D84",
"0. c #8D870D",
"q. c #83B354",
"w. c #AC9674",
"e. c #B2846D",
"r. c #FD8100",
"t. c #FE8400",
"y. c #F1922D",
"u. c #FCAA00",
"i. c #FDAA00",
"p. c #FEA800",
"a. c #FDA906",
"s. c #FEA212",
"d. c #FEBD08",
"f. c #F5B11B",
"g. c #FEA434",
"h. c #F5B73A",
"j. c #D79559",
"k. c #F1AC51",
"l. c #FDD000",
"z. c #FED200",
"x. c #FED007",
"c. c #FED704",
"v. c #FED62F",
"b. c #FEE219",
"n. c #FEE026",
"m. c #FECB40",
"M. c #E3D17B",
"N. c #FEEE47",
"B. c #95868B",
"V. c #81AADA",
"C. c #89ACD6",
"Z. c #8CACD3",
"A. c #81B3EC",
"S. c #90BDF0",
"D. c #89D1BB",
"F. c #99CCB9",
"G. c #90E3B3",
"H. c #A6C293",
"J. c #95C0EB",
"K. c #9EC4E8",
"L. c #A2D8DE",
"P. c #A1C8E9",
"I. c #A7C9E9",
"U. c #A9C2E1",
"Y. c #ACC3ED",
"T. c #A3CCF2",
"R. c #A4D2FD",
"E. c #A4D7FE",
"W. c #ABD8FD",
"Q. c #ABDBFE",
"!. c #B8C8E6",
"~. c #B8D8F0",
"^. c #BCDAF7",
"/. c #BEDCF5",
"(. c #AEE9ED",
"). c #B8E6FE",
"_. c #B9ECF2",
"`. c #D6AB85",
"'. c #E9C8A6",
"]. c #FEF891",
"[. c #F3F5BC",
"{. c #C3C2C6",
"}. c #CFD6ED",
"|. c #D5D7F6",
" X c #C9F3DE",
".X c #CEE6E0",
"XX c #C4F2E2",
"oX c #DEE4F6",
"OX c #DAEEFE",
"+X c #DCE9FE",
"@X c #D7F6FE",
"#X c #E7FCFE",
"$X c #EBF2FE",
"%X c #E9F9FE",
"&X c #FEE4E3",
"*X c #F1F3FE",
"=X c #F2F6FE",
"-X c None",
/* pixels */
"-X-X-X-X-X-X-X:.h.8.| -X-X-X-X-X",
"-X-X-X-X-X-X-Xu.x.g. .k q -X-X-X",
"-X-X-X-X-X-X2.z.u.+.P S d , -X-X",
"-X-X-X-X-X-Xu.z.t...XX.Xm q -X-X",
"-X-X-X-X-Xr.c.d.O.H.%X+XF.l g -X",
"-X-X-X-X-Xa.b.s.j.@X^./.$X~ f j ",
"-X-X-X-X6.n.v.y.{.E.T.I.U.}.T h ",
"-X-X-X-Xf.N.m.X.] A.V.Z.Z.|.D.3 ",
"-XC K { M.].k.u i ^ ' _ Y.L.r   ",
"x e.*XoX`.'.B.( a y / S.).F @ -X",
"> G _.~.o.9.` ) [ Q p W.E $ -X-X",
"  6 R [.!.P.K.J.R.W.! W 4 -X-X-X",
"-X@ e w.&XOX=X#X(.} F 8   -X-X-X",
"-X-X@ c q.XXG.Y t - @   -X-X-X-X",
"-X-X-X% k w : @   -X-X-X-X-X-X-X",
"-X-X-X      -X-X-X-X-X-X-X-X-X-X"
};
