/* XPM */
static char *korganizer[] = {
/* columns rows colors chars-per-pixel */
"32 32 257 2",
"   c #000000",
".  c #001C00",
"X  c #033708",
"o  c #0C4302",
"O  c #00450E",
"+  c #005E1B",
"@  c #1B5401",
"#  c #006B1F",
"$  c #19610E",
"%  c #0E680B",
"&  c #026321",
"*  c #0E7E31",
"=  c #1D722B",
"-  c #2A7A57",
";  c #4C7214",
":  c #4E5968",
">  c #505968",
",  c #576A75",
"<  c #577263",
"1  c #616972",
"2  c #61707F",
"3  c #637387",
"4  c #677A94",
"5  c #008129",
"6  c #008E35",
"7  c #008839",
"8  c #01943B",
"9  c #019C3B",
"0  c #049637",
"q  c #118636",
"w  c #129B32",
"e  c #03AA3C",
"r  c #00A73E",
"t  c #1CAE35",
"y  c #20851F",
"u  c #3C911F",
"i  c #219B2D",
"p  c #3B9725",
"a  c #299536",
"s  c #2AA43B",
"d  c #37B139",
"f  c #058F5E",
"g  c #009D43",
"h  c #029A46",
"j  c #07995A",
"k  c #118A4C",
"l  c #189943",
"z  c #0E9176",
"x  c #13976B",
"c  c #00A343",
"v  c #00AB43",
"b  c #0BA444",
"n  c #09BB43",
"m  c #04B644",
"M  c #1AAB4F",
"N  c #17B941",
"B  c #1CBB56",
"V  c #19B557",
"C  c #1AA36F",
"Z  c #35946B",
"A  c #29B444",
"S  c #2FBA50",
"D  c #31BB48",
"F  c #28AC7F",
"G  c #2DB37F",
"H  c #0CC445",
"J  c #20C859",
"K  c #38C14C",
"L  c #44A02A",
"P  c #5E9141",
"I  c #4FAC41",
"U  c #45D178",
"Y  c #50D97E",
"T  c #5EE56B",
"R  c #3CA08E",
"E  c #3CA497",
"W  c #409F9F",
"Q  c #50B3A9",
"!  c #43AAA9",
"~  c #6D8197",
"^  c #70839F",
"/  c #7B95B5",
"(  c #68AD97",
")  c #7EBCA9",
"_  c #7F9CC2",
"`  c #74A2D6",
"'  c #7CAADC",
"]  c #78A6D8",
"[  c #7AACE1",
"{  c #76ADE5",
"}  c #70C9B9",
"|  c #7BD0B9",
" . c #73E09C",
".. c #7FC6CD",
"X. c #7CC3E2",
"o. c #AE1F00",
"O. c #B93100",
"+. c #98542B",
"@. c #AD5300",
"#. c #A55E3E",
"$. c #B2703E",
"%. c #80574B",
"&. c #8A655D",
"*. c #B76541",
"=. c #AB6D4F",
"-. c #C23100",
";. c #D14100",
":. c #C96310",
">. c #D86A1B",
",. c #CF6024",
"<. c #C36331",
"1. c #D67035",
"2. c #EB5C00",
"3. c #F56F04",
"4. c #F77E00",
"5. c #FF4545",
"6. c #8D9A32",
"7. c #918550",
"8. c #AE8067",
"9. c #ACFF7B",
"0. c #FE8503",
"q. c #FD8A00",
"w. c #FA8A04",
"e. c #FF8A1C",
"r. c #FD9200",
"t. c #FF9A0E",
"y. c #FF961D",
"u. c #FF972F",
"i. c #EB8937",
"p. c #FEA200",
"a. c #FFAE02",
"s. c #FFAE09",
"d. c #FFB400",
"f. c #FFBA00",
"g. c #FFB70D",
"h. c #FFA923",
"j. c #FFA432",
"k. c #FFBA36",
"l. c #DC9852",
"z. c #C3896B",
"x. c #DAB243",
"c. c #EE9B4E",
"v. c #FFB24B",
"b. c #F9B259",
"n. c #FFB570",
"m. c #FFC200",
"M. c #FFCA00",
"N. c #FFC40B",
"B. c #FFCB14",
"V. c #FFC61F",
"C. c #FFD400",
"Z. c #FFCC27",
"A. c #FFD32B",
"S. c #FFD337",
"D. c #FFEC01",
"F. c #FFE009",
"G. c #FFE81C",
"H. c #FFF200",
"J. c #FFF714",
"K. c #FFE821",
"L. c #FFED38",
"P. c #FFF738",
"I. c #FFC749",
"U. c #FFD948",
"Y. c #FFDE50",
"T. c #FFC866",
"R. c #FFD763",
"E. c #FFD778",
"W. c #FFE244",
"Q. c #FFE15B",
"!. c #F7FF41",
"~. c #FFFE55",
"^. c #FFE867",
"/. c #FFFC63",
"(. c #FFFA73",
"). c #809BB9",
"_. c #9597A3",
"`. c #8BAACB",
"'. c #82AAD6",
"]. c #84ADDC",
"[. c #8AADD6",
"{. c #8CB2DA",
"}. c #9AB1CF",
"|. c #96B4D6",
" X c #95B6DB",
".X c #8CB4E3",
"XX c #85BBEE",
"oX c #95BBE4",
"OX c #9ABCE6",
"+X c #89BCF2",
"@X c #AABACF",
"#X c #A2BCD9",
"$X c #8EE8B1",
"%X c #82C6FF",
"&X c #9DC8EE",
"*X c #91C2EE",
"=X c #9BC9F5",
"-X c #97CCFC",
";X c #8DC8EB",
":X c #82E0D8",
">X c #A4CFC6",
",X c #A4C0DC",
"<X c #B5DDDA",
"1X c #A6C3E5",
"2X c #A3C8E7",
"3X c #ADCCE7",
"4X c #ACCCEA",
"5X c #A6C8EC",
"6X c #A2C8F2",
"7X c #ACD0EE",
"8X c #A5D4FF",
"9X c #A9D3FA",
"0X c #B5CBE6",
"qX c #B6D5EE",
"wX c #B5D4EB",
"eX c #B2DEFF",
"rX c #BBDAF7",
"tX c #B5D8FA",
"yX c #BAE5FF",
"uX c #D1A08A",
"iX c #FB8F97",
"pX c #FF9B94",
"aX c #FF9BAC",
"sX c #FFB4E0",
"dX c #FFD58A",
"fX c #E0CFBD",
"gX c #FFEC9E",
"hX c #FFFBA0",
"jX c #C5D9EE",
"kX c #C1DFFE",
"lX c #C6DBF3",
"zX c #D2DCEB",
"xX c #D3DFF2",
"cX c #C3FAD8",
"vX c #C2E6FF",
"bX c #CCE4F7",
"nX c #CAECFF",
"mX c #CBE6FE",
"MX c #D3ECFD",
"NX c #DBEEFE",
"BX c #D6E3F6",
"VX c #DCF3FD",
"CX c #D4F5F9",
"ZX c #FFE8C9",
"AX c #FFE5C2",
"SX c #FFF4C1",
"DX c #FFF9DB",
"FX c #E9FBE8",
"GX c #E1F3FD",
"HX c #ECFDFF",
"JX c #E7FCF9",
"KX c #F5FFFF",
"LX c #FEFEFF",
"PX c #FFFFF3",
"IX c #E4E6F2",
"UX c #D3CFCF",
"YX c None",
/* pixels */
"YXYXYXYXYXYXYXYXYXYXYXYXYXYXYXYXw.c.1.O.o.YXYXYXYXYXYXYXYXYXYXYX",
"YXYXYXYXYXYXYXYXYXYXYXYXYXYXYXw.C.(.DXZX,.o.YXYXYXYXYXYXYXYXYXYX",
"YXYXYXYXYXYXYXYXYXYXYXYXYXYXYXr.H.m.Z.dXn.o.YX# YXYXYXYXYXYXYXYX",
"YXYXYXYXYXYXYXYXYXYXYXYXYXYX0.M.D.d.a.0.2.o.H H 5 YXYXYXYXYXYXYX",
"YXYXYXYXYXYXYXYXYXYXYXYXYXYXr.H.M.d.t.0.-.H e n e * YXYXYXYXYXYX",
"YXYXYXYXYXYXYXYXYXYXYXYXYX0.m.H.d.d.q.2.o.Y JX0 H e # YXYXYXYXYX",
"YXYXYXYXYXYXYXYXYXYXYXYXYXw.H.C.f.p.w.;.J LXLX<Xr e 9 O YXYXYXYX",
"YXYXYXYXYXYXYXYXYXYXYXYXq.f.H.m.m.t.3.; cXLXKXKX} e m 0 YXYXYXYX",
"YXYXYXYXYXYXYXYXYXYXYXYXr.H.F.N.g.y.@. .LXLXqXGXPXZ v v 6 YXYXYX",
"YXYXYXYXYXYXYXYXYXYXYXYXm.J.B.B.h.e.P LXLXbXGXbXbXLXk v c 6 YXYX",
"YXYXYXYXYXYXYXYXYXYXYXq.G.G.V.Z.j.:.CXKXMXNXqXqXKXGXJX7 v 9 v YX",
"YXYXYXYXYXYXYXYXYXYXYXf.P.A.Z.k.u.uXHXVXrX4XNXNXqXbXLX>X7 c 8 YX",
"YXYXYXYXYXYXYXYXYXYXq.L.!.S.S.v.>.VXGX&XtXmXrXwXBXzX0XLX( h g g ",
"YXYXYXYXYXYXYXYXYXYXd.~.U.U.I.v.z.MX*XtXyX&X4X0X,X|.zX#XLXZ h b ",
"YXYXYXYXYXYXYXYXYXr.U.~.Y.Y.T.>.@X=XeX=X.X1X1X[.0X0X|.IXKX<Xh + ",
"YXYXYXYXYXYXYXYXYXs.(.^.Q.R.T.+., tX' ].oX{.'.0X X[.xXBXBXC q   ",
"YXYXYXYXYXYXn n Q x.hX^.^.E.i._.3 , OX].` ].5X'. X0XxXxXR 0     ",
"YXYXYXH H U $XJXPXb.DXSXgXdX*.' ).> 4 ] .X.X` OXOXlXbX..h X   YX",
"YXH s &.FXLXLXLXVXl.DXDXZX$.}.'..X^ > / ] ' .X].kXMXyXj +   YXYX",
"YXt = 5.iXLXqXqXGX$.fXZX=.`.'.] ] 6X4 > _ { { yXvXnXx l   YXYXYX",
"YXo N - %XMXLX2XwX8.&.$.{.[.'.{.` [ `.4 , XXeXyXvXW M     YXYXYX",
"YX  % m W :XFXGX,X#.%.|.,X[.'.OX] [ -X6X2 , 8XeXX.h O   YXYXYXYX",
"YXYX  i e T 9.PXqXUXwX3XjX4XoXoXmX+XXX8X`.~ ~ -Xj q   YXYXYXYXYX",
"YXYX    t w !./.LXqXGXqX7XMX5X&X6XMXnXyXyX/ X.z l   YXYXYXYXYXYX",
"YXYXYX  X N a aXsXKXbXqXqXlXKXHXGXCXMXvX;X! f S .   YXYXYXYXYXYX",
"YXYXYXYX  @ m < pXAXGXKXLXLXLXKXHXwXQ j V s p .   YXYXYXYXYXYXYX",
"YXYXYXYXYX  y b 6.I.DXLXLXLXVX} F B D u X       YXYXYXYXYXYXYXYX",
"YXYXYXYXYXYX  s b L Z VX| G B K L @         YXYXYXYXYXYXYXYXYXYX",
"YXYXYXYXYXYX    A v c B D L @         YXYXYXYXYXYXYXYXYXYXYXYXYX",
"YXYXYXYXYXYXYX  @ d p @         YXYXYXYXYXYXYXYXYXYXYXYXYXYXYXYX",
"YXYXYXYXYXYXYXYX            YXYXYXYXYXYXYXYXYXYXYXYXYXYXYXYXYXYX",
"YXYXYXYXYXYXYXYXYX    YXYXYXYXYXYXYXYXYXYXYXYXYXYXYXYXYXYXYXYXYX"
};
