/* XPM */
static char *korn-16[] = {
/* columns rows colors chars-per-pixel */
"16 16 9 1",
"  c black",
". c #585858",
"X c #C00000",
"o c red",
"O c #808080",
"+ c #A0A0A4",
"@ c #C0C0C0",
"# c gray100",
"$ c None",
/* pixels */
"$$$  $$$$$$$$$$$",
"$$ @@  $$$$$$$$$",
"$ ###@@  $$$$$$$",
"$ @####oo  $$$$$",
" @@@@##ooX@  $$$",
" @@@@@@#@X#@.  $",
" @@@@@@@@X#O+.. ",
" @@@@@@@+X#+@O# ",
" @@@@@@@+X@@@O# ",
"  @@@@@@@X@O@#  ",
"$$  @@@@@X@O##  ",
"$$$$  @@@X@+#.. ",
"$$$$$$  @+@O#  $",
"$$$$$$$$  @  $$$",
"$$$$$$$$$$ $$$$$",
"$$$$$$$$$$$$$$$$"
};
