/* XPM */
static char *korn[] = {
/* columns rows colors chars-per-pixel */
"32 32 81 1",
"  c #000000",
". c #0C0C0C",
"X c #131313",
"o c #1A1A1A",
"O c #242424",
"+ c #2D2D2D",
"@ c #333333",
"# c #3B3B3B",
"$ c #3D4040",
"% c #7D1919",
"& c #434444",
"* c #4B4B4B",
"= c #545454",
"- c #555959",
"; c #5B5B5B",
": c #646464",
"> c #6C6C6C",
", c #737373",
"< c #7B7B7C",
"1 c #821919",
"2 c #8B1D1D",
"3 c #932222",
"4 c #9C2525",
"5 c #954646",
"6 c #A54646",
"7 c #B27272",
"8 c #B67E7E",
"9 c #C12A2A",
"0 c #C93939",
"q c #DF3535",
"w c #DB3A3A",
"e c #C95B5B",
"r c #C77777",
"t c #E44141",
"y c #ED4D4D",
"u c #EC5757",
"i c #F05454",
"p c #EF7F7F",
"a c #F66363",
"s c #F07676",
"d c #828283",
"f c #8B8B8B",
"g c #8E8E90",
"h c #908E8E",
"j c #949394",
"k c #979799",
"l c #9A9A9B",
"z c #9E9EA2",
"x c #AF9393",
"c c #AF9A9A",
"v c #B29797",
"b c #A2A2A5",
"n c #A4A4A9",
"m c #ABABAB",
"M c #B3B3B3",
"N c #B6BBBB",
"B c #BEBEBE",
"V c #BFC0C0",
"C c #C2B7B7",
"Z c #C3B9B9",
"A c #CBBFBF",
"S c #D2A8A8",
"D c #DBA1A1",
"F c #EF8383",
"G c #C1C1C1",
"H c #C8C6C6",
"J c #CBCBCB",
"K c #C7D2D2",
"L c #D3D3D3",
"P c #DDD4D4",
"I c #DCDCDC",
"U c #D6E3E3",
"Y c #F3C6C6",
"T c #F3CCCC",
"R c #E4E4E4",
"E c #EAE2E2",
"W c #ECECEC",
"Q c #ECF3F3",
"! c #F4F4F4",
"~ c #FBFBFB",
"^ c None",
/* pixels */
"^^^^^^^^^^^^^^^^^^^^^^^^^^^^^^^^",
"^^^^^^^^^^^^^^^^^^^^^^^^^^^^^^^^",
"^^^^^^^     ^^^^^^^^^^^^^^^^^^^^",
"^^^^^  X+++.   ^^^^^^^^^^^^^^^^^",
"^^^^ o#<HGH;@@.  ^^^^^^^^^^^^^^^",
"^^^ Xj!IJGGHHV=$   ^^^^^^^^^^^^^",
"^^ Xj~WIILKHVS8v;&  ^^^^^^^^^^^^",
"^ Xk~~!!WUILKF0e7x;&  ^^^^^^^^^^",
"^ +!!!~~~!WIUpau96HM:&  ^^^^^^^^",
" XfIIRW!~~!!Qsyyt4VGHm,#  ^^^^^^",
" oJLLIIR!!~~~TDuq4JHGGJmd@  ^^^^",
" oGGHLLIIR!!~~!Yw4LLJHNj>&@.#^^^",
" oGVGGHJLIIR!!REt4IIIM,,-**&O#^^",
" oGVVGVGHJLIIRLPw3LWJ<djjd:-*o ^",
" oGGVVVVGGHJLIJCw3GIm,zbnzc<:X&^",
" oGGVVVVVVGGJJLCw2HLdzzbl,dGN=X ",
" oVVVVVVGVBVVVHAw2Mb,nnnd:fIL:. ",
" oGVVVVVVVVVVVHZw2mk<zznzjLI:*. ",
" oNGVVVVVVVVVVVCw1j,zlgmK~~N&*. ",
" X<lBGVVVBVVVVVCw1h>glkgV~W;#=. ",
"^  o,kGHVVVVVVVCw%j>jfkK!~B*&=. ",
"^^^  O>kGGVGVVVCw%h;hkbU~I,@&=. ",
"^^^^^  +:lGHBVGZw5l:bznQ~B=#;;. ",
"^^^^^^^  @;lHGBZrcm=7mVQW<*><&  ",
"^^^^^^^^^  @-bHGNMm**<BWB>>*#. ^",
"^^^^^^^^^^^  @*bGVm&;;<bj*+X  ^^",
"^^^^^^^^^^^^^  @*mm*:<f;OX  ^^^^",
"^^^^^^^^^^^^^^   +#*>:OX  ^^^^^^",
"^^^^^^^^^^^^^^^^   XoX  ^^^^^^^^",
"^^^^^^^^^^^^^^^^^^    ^^^^^^^^^^",
"^^^^^^^^^^^^^^^^^^^^^^^^^^^^^^^^",
"^^^^^^^^^^^^^^^^^^^^^^^^^^^^^^^^"
};
