/* XPM */
static char *kpalmdoc-16[] = {
/* columns rows colors chars-per-pixel */
"16 16 100 2",
"   c black",
".  c #090909",
"X  c #343634",
"o  c gray26",
"O  c #494949",
"+  c #4C4C4C",
"@  c gray30",
"#  c #4E4E4E",
"$  c #515151",
"%  c gray33",
"&  c gray35",
"*  c #526646",
"=  c #6A6A6A",
"-  c #6C6C6C",
";  c #717171",
":  c #727272",
">  c gray45",
",  c #767676",
"<  c #797979",
"1  c gray48",
"2  c #7E7E7E",
"3  c gray50",
"4  c #7AAA7A",
"5  c #838383",
"6  c #868688",
"7  c #898989",
"8  c gray54",
"9  c #8B8B8B",
"0  c gray57",
"q  c #929292",
"w  c #909790",
"e  c gray58",
"r  c #95959C",
"t  c #929F92",
"y  c #979997",
"u  c #979C97",
"i  c gray61",
"p  c #9D9D9D",
"a  c #9898A0",
"s  c #9C9CB6",
"d  c #82B282",
"f  c #8ABA86",
"g  c #96A796",
"h  c #9BBB9B",
"j  c gray65",
"k  c #A8A9A8",
"l  c #AAAAAA",
"z  c #A6B9A6",
"x  c #B0B0B3",
"c  c #B6B6B6",
"v  c #B0B0B8",
"b  c #B3B3BD",
"n  c #BBBBC0",
"m  c #B9B9C6",
"M  c #A7CAA6",
"N  c #B3DFB3",
"B  c #BEF2BE",
"V  c #C2C2CA",
"C  c #C4C4D2",
"Z  c #C6C6D5",
"A  c #D1D1D9",
"S  c #D0D0DF",
"D  c #D3D3E1",
"F  c #D6D6E1",
"G  c #D5D5E4",
"H  c #DADAE7",
"J  c #DEDEE6",
"K  c #C2F2C2",
"L  c #C6F6C6",
"P  c #CAFAC6",
"I  c #CEFECE",
"U  c #D0EFD0",
"Y  c #D1FED1",
"T  c #D6FED6",
"R  c #D9FED9",
"E  c #E0E0EC",
"W  c #E1E1ED",
"Q  c #E4E4EB",
"!  c #E5E5EF",
"~  c #E7E7ED",
"^  c #E9E9EF",
"/  c #EAEAEF",
"(  c #E6E6F0",
")  c #E7E7F0",
"_  c #E9E9F2",
"`  c #EAEAF3",
"'  c #EBEBF4",
"]  c #ECECF4",
"[  c #EEEEF5",
"{  c #EFEFF6",
"}  c #F1F1F8",
"|  c #F3F3F9",
" . c #F7F7F9",
".. c #F5F5FC",
"X. c #F6F6FD",
"o. c #F8F8FE",
"O. c #F9F9FE",
"+. c #FCFCFF",
"@. c gray100",
"#. c None",
/* pixels */
"  $ $ $ $ $ $ * $ m C S s #.#.#.",
"$ c k w w w w 4 w $ V J S s #.#.",
"o 7 y U R T K f d < $ A D D s #.",
"X # 5 z Y I S S S S S S s s s s ",
"  o 7 u P L S @.X.X.' ' S s Z s ",
"    # i M B S @.@.X.' ' S D s s ",
"#.  o ; g N D @.@.X.{ ' s s s s ",
"#.    # k h D @.3 3 3 3 H r ~ s ",
"#.    o 7 t S @.@.@.| ' G b F s ",
"    o # > 0 S @.3 2 3 2 3 r ^ s ",
"  o = = O - S @.X.[ ( ( J x  .s ",
"o = , 2 & + S @.3 3 3 3 3 v ~ s ",
"o ; 3 7 < = D @.{ { ' ' ( 6 @.s ",
"  o 9 e i j S @.3 3 3 3 3 n ^ s ",
"    o % 3 0 D X.} { { ' ( ( J s ",
"#.    . o o s s s s s s s s s s "
};
