/* XPM */
static char *kpalmdoc[] = {
/* columns rows colors chars-per-pixel */
"32 32 112 2",
"   c black",
".  c #3F3F3F",
"X  c #424242",
"o  c #4C4C4C",
"O  c #535353",
"+  c #595959",
"@  c #526646",
"#  c gray40",
"$  c #6B6B6B",
"%  c #737373",
"&  c #717C71",
"*  c #7A7A7A",
"=  c #6B9B6B",
"-  c #7E807E",
";  c #739E73",
":  c #72A272",
">  c #7AA67A",
",  c #7CAB7C",
"<  c #838383",
"1  c #8B8B8B",
"2  c #859385",
"3  c #849D85",
"4  c #8F978F",
"5  c #8B9C8B",
"6  c #929592",
"7  c #949894",
"8  c #9D9D9D",
"9  c #8D9CB5",
"0  c #84AE82",
"q  c #89A38A",
"w  c #8EAA8D",
"e  c #82B282",
"r  c #8AB686",
"t  c #8ABA86",
"y  c #8BBC8B",
"u  c #92B391",
"i  c #95BA96",
"p  c #9EACBE",
"a  c #A4A4A4",
"s  c #ABABAB",
"d  c #A4ADBE",
"f  c #B3B3B3",
"g  c #BBBBBB",
"h  c #A2AEC0",
"j  c #AAB4C4",
"k  c #AEB9CA",
"l  c #B2B9C4",
"z  c #B2BCCA",
"x  c #B9BFC9",
"c  c #92C28E",
"v  c #95C294",
"b  c #9AC69E",
"n  c #9ACA96",
"m  c #9CCC9C",
"M  c #A2D29E",
"N  c #A4D6A4",
"B  c #AAD7AA",
"V  c #AEDEAE",
"C  c #ACDCB0",
"Z  c #BCCABC",
"A  c #BCDFBC",
"S  c #AEE2AE",
"D  c #AEE2B2",
"F  c #B4E4B6",
"G  c #B4E4B8",
"H  c #BAEEBA",
"J  c #BEF1BD",
"K  c #B4C0CD",
"L  c #BAC0CA",
"P  c #B4C2D2",
"I  c #B5C3D9",
"U  c #BAC5D3",
"Y  c #B9C6DA",
"T  c #BDC8D5",
"R  c #BECADD",
"E  c #C0C0C0",
"W  c #C2C6CE",
"Q  c #C6C9CF",
"!  c #CDCECE",
"~  c #C0C6D1",
"^  c #C2C9D3",
"/  c #C0CBDB",
"(  c #C6D3C6",
")  c #C2CDE0",
"_  c #C5D0E1",
"`  c #CAD3E4",
"'  c #CED8EA",
"]  c #D3DCEA",
"[  c #D8DFEC",
"{  c #C1EBC1",
"}  c #C6F6C6",
"|  c #CAFAC6",
" . c #CCFDCC",
".. c #D8EBD8",
"X. c #D2F5D2",
"o. c #D6FED4",
"O. c #D9F4D9",
"+. c #DBFEDB",
"@. c #D7E0EF",
"#. c #DAE1EE",
"$. c #DDE4F1",
"%. c #E0E6F1",
"&. c #E4E9F3",
"*. c #E6EEFA",
"=. c #E9EDF6",
"-. c #EAEFF8",
";. c #ECF1F9",
":. c #F6F6F6",
">. c #F1F5FB",
",. c #F5F8FE",
"<. c #FEFEFE",
"1. c None",
/* pixels */
"1.1.1.1.1.1.1.1.1.1.1.1.1.1.1.1.1.1.1.1.1.1.1.1.1.1.1.1.1.1.1.1.",
"1.1.1.1.1.1.1.1.1.1.1.1.1.1.1.1.1.1.1.1.1.1.1.1.1.1.1.1.1.1.1.1.",
"1.1.1.1.1.1.1.1.1.+ + + + + + + + + + + + + + + + 1.1.1.1.1.1.1.",
"1.1.1.1.1.1.1.1.1.+ ,.<.<.<.<.<.<.<.,.,.;.&.&.[ + + 1.1.1.1.1.1.",
"1.1.1.1.1.1.1.1.1.+ ,.<.<.<.<.<.<.<.,.>.-.&.#.] + *.+ 1.1.1.1.1.",
"1.X X X X X X X X @ X X <.! ! ! ! ! Q >.;.-.&.[ + *.$.+ 1.1.1.1.",
"X f s 4 4 4 4 4 4 , 4 4 X <.<.<.<.<.,.,.>.-.&.#.+ ,.&.$.+ 1.1.1.",
"X * 6 ( ..O.X.{ N e > * O :.<.<.<.<.<.,.>.;.&.#.+ <.,.&.$.+ 1.1.",
"X f 6 Z +.+.o.| S t e ; a X ! ! ! ! ! Q W x =.%.+ =.=.%.] ] + 1.",
"1.O < * +.o. .| V t y y * O <.<.<.<.<.,.>.>.=.&.+ + + + + + + + ",
"1.X s 7 A  . .H M y c v 0 s X ! ! ! ! Q W L =.=.&.#.[ _ Y Y z + ",
"1.1.O 8 & | } F M y v n n * O :.<.<.<.<.,.>.;.=.&.[ ` / R R Y + ",
"1.1.X < 7 J H G m i m M N v f X ! ! ! ! ,.,.>.=.%.] ` _ ) ) ) + ",
"1.1.X a s i F F b e : = = ; * O <.<.<.<.,.,.;.&.[ ] ` ` ` ) _ + ",
"1.1.1.O 1 $ C B y ; = = = , 0 f X ! ! Q ^ L l h d h p p h ` ' + ",
"1.1.1.X 8 s q b v , , r c m M * O <.,.>.;.&.#.[ [ ] ] ' ' ' ' + ",
"1.1.1.1.O 1 % 2 i i u w 5 2 < f Z X W x l d l d j j k j j ' ] + ",
"1.1.1.X X 8 f % $ * * 1 7 s g ! s X =.&.&.&.%.%.%.#.[ [ [ ] [ + ",
"1.X . # o % a f f f g g E g g s < X x x z z z z z k k z k [ @.+ ",
"X # # * + o 7 s g g f f g g a * X o -.=.=.*.&.&.%.%.%.[ $.$.$.+ ",
"# $ % * % + $ 1 8 f s 8 1 % o O $ 1 X W x x x z K K K P z $.@.+ ",
"$ * - < 1 % o + % * O X X O # < 8 s s X -.-.*.&.%.&.$.#.$.$.$.+ ",
"% * < 1 6 7 6 - o + - 1 . 8 X s f f g . U U U x U P P I I @.$.+ ",
"X < 1 6 8 8 s f 8 8 a a 1 . 6 f g g . ;.-.-.=.=.&.&.%.$.$.$.$.+ ",
"1.X 6 8 8 s f f a s s f f f g Z X X U U T T U U U I P I P #.$.+ ",
"1.1.X X 8 s f s s f f g f X X X >.;.:.;.;.-.=.=.&.&.&.&.$.&.$.+ ",
"1.1.1.1.X X X X X X X X X ^ ^ ^ Q T T Q T T U T T U U Y Y $.$.+ ",
"1.1.1.1.1.1.1.1.1.+ ,.<.<.>.>.>.;.;.;.-.;.=.=.=.&.&.&.#.$.$.$.+ ",
"1.1.1.1.1.1.1.1.1.+ ,.<.,.>.;.:.>.;.;.;.;.;.=.=.&.&.&.$.$.$.$.+ ",
"1.1.1.1.1.1.1.1.1.+ ,.<.<.>.,.>.>.;.;.;.T T =.$.&.$.$.$.$.&.$.+ ",
"1.1.1.1.1.1.1.1.1.+ ;.<.,.>.>.>.>.;.;.;.;.-.-.&.&.&.$.&.$.$.$.+ ",
"1.1.1.1.1.1.1.1.1.+ + + + + + + + + + + + + + + + + + + + + + + "
};
