/* XPM */
static char *kpilot[] = {
/* columns rows colors chars-per-pixel */
"32 32 139 2",
"   c #000000",
".  c #0B0B0B",
"X  c gray7",
"o  c #1A1A1A",
"O  c #222222",
"+  c #2D2D2D",
"@  c #343434",
"#  c #3B3B3B",
"$  c #4D6434",
"%  c #506735",
"&  c #516936",
"*  c #546B3B",
"=  c #57703D",
"-  c #5A723F",
";  c #444444",
":  c #4A4A4A",
">  c #5C5C5C",
",  c #5B6E47",
"<  c #5C6D49",
"1  c #5B7345",
"2  c #5F7249",
"3  c #5E7942",
"4  c #617D45",
"5  c #637C4B",
"6  c #697E52",
"7  c #656565",
"8  c #6D6D6D",
"9  c #727272",
"0  c #797979",
"q  c #638044",
"w  c #65804B",
"e  c #68844A",
"r  c #698847",
"t  c #6C8C4A",
"y  c #668050",
"u  c #6A8352",
"i  c #6C8950",
"p  c #6F904B",
"a  c #71855B",
"s  c #708E53",
"d  c #75895F",
"f  c #71924D",
"g  c #769B4E",
"h  c #789D4F",
"j  c #729153",
"k  c #769559",
"l  c #779B50",
"z  c #78955B",
"x  c #799D50",
"c  c #79995C",
"v  c #7F9664",
"b  c #7DA254",
"n  c #7FA15A",
"m  c #839F65",
"M  c #849A6B",
"N  c #82A55C",
"B  c #83A85C",
"V  c #83A361",
"C  c #86A06A",
"Z  c #86AB60",
"A  c #8AA66C",
"S  c #88AD63",
"D  c #8BAC6B",
"F  c #8BB165",
"G  c #8EB36A",
"H  c #91AF6E",
"J  c #92AF70",
"K  c #90B36D",
"L  c #91B86D",
"P  c #94B174",
"I  c #95BC70",
"U  c #98B477",
"Y  c #99B47B",
"T  c #98BF75",
"R  c #9CB87D",
"E  c #96C070",
"W  c #98C074",
"Q  c #9DC47A",
"!  c #A0C87E",
"~  c #858585",
"^  c #8B8B8B",
"/  c #919191",
"(  c #9B9B9B",
")  c #9DB881",
"_  c #A4BD89",
"`  c #A8BF8E",
"'  c #A4A4A4",
"]  c #AAAAAA",
"[  c #AEACB0",
"{  c #B0ADB2",
"}  c #B3B2B3",
"|  c #B6B3B8",
" . c #B8B6BA",
".. c #BABABB",
"X. c #BEBDC0",
"o. c #A7C18C",
"O. c #A3CC81",
"+. c #A9C08F",
"@. c #ABC191",
"#. c #ADC993",
"$. c #A6D084",
"%. c #A8D286",
"&. c #B3C79B",
"*. c #B1CC96",
"=. c #B5C99E",
"-. c #B6D29D",
";. c #B7CAA0",
":. c #BAC5AC",
">. c #B8CBA1",
",. c #BBCBAD",
"<. c #BEC9B0",
"1. c #BED0AA",
"2. c #C0CDB3",
"3. c #C0D1AD",
"4. c #C3D4B3",
"5. c #C6D2BA",
"6. c #C9D5BC",
"7. c #CAD9BA",
"8. c #C3C3C3",
"9. c #C7C5C9",
"0. c #C9C7CB",
"q. c #CBCBCB",
"w. c #CFCDD1",
"e. c #C9D1C3",
"r. c #CFDCC4",
"t. c #D0CFD0",
"y. c #D5DFC9",
"u. c #D4D4D4",
"i. c #D6D4D8",
"p. c #DADADA",
"a. c #DFDDE1",
"s. c #E0DEE2",
"d. c #E3E3E2",
"f. c #E4E8E0",
"g. c #ECECEC",
"h. c #F0F0EF",
"j. c #F2F2F2",
"k. c #FBFBFB",
"l. c None",
/* pixels */
"l.l.l.l.l.  ( ' ' ' ' ' ' ' ' ' ' ' ' ' ' ' ' ' 9 . l.l.l.l.l.l.",
"l.l.l.l.l.> d.j.j.h.j.j.j.h.h.h.h.j.j.h.h.h.h.j.j.~   l.l.l.l.l.",
"l.l.l.l.  ( k.g.f.f.d.d.f.a.d.a.d.d.d.d.d.d.d.d.k.9.. l.l.l.l.l.",
"l.l.l.l.  | j.5.} 2.2.2.2.2.2.2.2.:.2.2.2.:.2.3.f.u.O l.l.l.l.l.",
"l.l.l.l.o 8.j.7.4.4.4.4.4.7.4.4.3.4.4.7.4.7.>.` y.p.# l.l.l.l.l.",
"l.l.l.l.O q.g.1.=.>.=.>.=.>.>.>.>.;.&.&.` J N g 6.a.: l.l.l.l.l.",
"l.l.l.l.+ p.g.=.` ` ` ` +.+.` ` ` _ _ R B N g g 6.s.7   l.l.l.l.",
"l.l.l.l.# p.d.@.R R R R _ R M d M R U r 4 p g g 6.s.8   l.l.l.l.",
"l.l.l.l.; p.f.+.U Y Y Y R R a < d G p $ $ * g x 6.s.0   l.l.l.l.",
"l.l.l.l.; p.p.+.J U A 6 M M 6 2 i p & $ $ p x h 6.s.~   l.l.l.l.",
"l.l.l.l.: i.p.` H J M 5 < 5 6 < - & $ & r b l h 5.p.^   l.l.l.l.",
"l.l.l.l.: p.p._ A H H 6 5 C 6 * % % $ - b b x h 5.p.^   l.l.l.l.",
"l.l.l.l.; u.p._ V V d 4 m D 4 % * & * - f t l b 5.i.^   l.l.l.l.",
"l.l.l.l.; t.p._ N 5 * 4 B N 4 * 4 4 & * 3 = f b 5.u./   l.l.l.l.",
"l.l.l.l.; q.p._ N j e 1 N S 4 * t V q - = e n N 5.w.^ . l.l.l.l.",
"l.l.l.l.; q.u._ N B B q s F 5 = i F s 3 * 3 B Z 5.q.^ . l.l.l.l.",
"l.l.l.l.; q.t.o.n F n q 1 k i i k i 3 i i n D S <.w.^ . l.l.l.l.",
"l.l.l.l.; 9.t.#.n L v , w y w u 5 u 5 1 n I G G e.0.~ . l.l.l.l.",
"l.l.l.l.; X.w.#.E E G c G W c 1 c Q K v L I L L 7.8.0   l.l.l.l.",
"l.l.l.l.# X.w.#.F E W Q Q Q D y D Q Q Q W W I E r...0   l.l.l.l.",
"l.l.l.l.# X.9.#.L W W Q Q Q $.Q Q $.Q O.O.Q W W 6. .9   l.l.l.l.",
"l.l.l.l.@ :.0.-.E W ! O.$.%.%.%.%.%.%.%.O.Q Q O.r.| 7   l.l.l.l.",
"l.l.l.l.+ } X.e.,.,.,.,.<.<.<.<.<.<.<.,.,.,.,.<.q.] >   l.l.l.l.",
"l.l.l.l.O ] } | | [ | ..| | ..}  . ...|  .} |  .} ' :   l.l.l.l.",
"l.l.l.l.o ' } ] / ] ' ' } ] ( ' ' } } } ' ] ( ( } ( ;   l.l.l.l.",
"l.l.l.l.o ( } ( ] h.a.] ] ~ 8.g.8.( ] ( 8.h.0.~ } / @   l.l.l.l.",
"l.l.l.l.X / } ] ( 8.p.[ ] / | p.2.' ] ' 9.u.] ' ] ^ + l.l.l.l.l.",
"l.l.l.l.  ~ [ ] ] ' ' ] ] ] ' ' ' ] ] ] ' ' ' ] ] 0 o l.l.l.l.l.",
"l.l.l.l.  0 ] ' ' ] ' ' ' ] ] ' ' ' ] ' ' ' ' ' ' 8 X l.l.l.l.l.",
"l.l.l.l.l.> ] ' ' ' ' ' ' ' ' ' ' ' ' ' ' ' ' ' ~ >   l.l.l.l.l.",
"l.l.l.l.l.X 7 0 0 0 9 0 9 9 9 9 9 9 8 8 9 8 8 7 > O   l.l.l.l.l.",
"l.l.l.l.l.l.                                        l.l.l.l.l.l."
};
