/* XPM */
static char *kpilot-16[] = {
/* columns rows colors chars-per-pixel */
"16 16 172 2",
"   c black",
".  c gray2",
"X  c #111111",
"o  c #131313",
"O  c gray12",
"+  c gray14",
"@  c #292629",
"#  c gray16",
"$  c gray18",
"%  c gray21",
"&  c gray22",
"*  c #3A3A3A",
"=  c gray23",
"-  c #3A383C",
";  c #3C393E",
":  c #3C3C3C",
">  c #3F3F3F",
",  c #4F6736",
"<  c #526B37",
"1  c #577139",
"2  c #577238",
"3  c #57703C",
"4  c #57703D",
"5  c #414141",
"6  c #444244",
"7  c #484648",
"8  c #4C4B4E",
"9  c #4D4B4F",
"0  c #4E4E4E",
"q  c #4F4F51",
"w  c #515051",
"e  c #5B5B5B",
"r  c #5C7641",
"t  c #5D7742",
"y  c #617D47",
"u  c #62794B",
"i  c #637F48",
"p  c #657C4B",
"a  c #697D54",
"s  c gray38",
"d  c gray44",
"f  c #797979",
"g  c #7C7A7D",
"h  c #668445",
"j  c #65804C",
"k  c #65814D",
"l  c #69864B",
"z  c #6A8153",
"x  c #6B8751",
"c  c #6D8952",
"v  c #6E904A",
"b  c #728D56",
"n  c #758E5A",
"m  c #73964C",
"M  c #719053",
"N  c #749355",
"B  c #75935A",
"V  c #7A9F52",
"C  c #799B58",
"Z  c #7B9A5A",
"A  c #7EA057",
"S  c #7EA257",
"D  c #7EA258",
"F  c #7DA05C",
"G  c #817E82",
"H  c #869F6B",
"J  c #80A458",
"K  c #82A260",
"L  c #86A961",
"P  c #8AA46E",
"I  c #88AB69",
"U  c #8EAA6F",
"Y  c #8CB464",
"T  c #8CB16A",
"R  c #93A97A",
"E  c #91B06D",
"W  c #92B76D",
"Q  c #90B96B",
"!  c #91B670",
"~  c #91B770",
"^  c #95B375",
"/  c #94BB70",
"(  c #9BB67C",
")  c #99BF75",
"_  c #9CC479",
"`  c #808080",
"'  c #8A878C",
"]  c #918D92",
"[  c gray57",
"{  c #919092",
"}  c #959297",
"|  c #99969A",
" . c #9A989C",
".. c #9B999D",
"X. c #9C9B9C",
"o. c #9CB481",
"O. c #A0BA83",
"+. c #A5BE89",
"@. c #A5BF8A",
"#. c gray63",
"$. c #A3A2A4",
"%. c #A7A7A7",
"&. c gray66",
"*. c #A9A9A9",
"=. c #A9A8AB",
"-. c gray67",
";. c gray68",
":. c #ADACAE",
">. c #B0AFB0",
",. c #B3BCAB",
"<. c #B3BDAC",
"1. c #B4BDAD",
"2. c #B4BEAD",
"3. c #B1B1B1",
"4. c #B1B0B2",
"5. c #B2B2B2",
"6. c #B3B3B2",
"7. c gray70",
"8. c #B3B1B4",
"9. c gray72",
"0. c #BBBBBB",
"q. c #BCBBBD",
"w. c #BCBBBE",
"e. c gray74",
"r. c #A2C980",
"t. c #A2CA80",
"y. c #A4CA83",
"u. c #A6CD85",
"i. c #A6CE85",
"p. c #A8CF86",
"a. c #A8CF87",
"s. c #ACC393",
"d. c #B7CAA0",
"f. c #B9CBA4",
"g. c #B9CBA5",
"h. c #B9CCA4",
"j. c #BACDA5",
"k. c #BBCEA7",
"l. c #B7C1B0",
"z. c #B9C1B1",
"x. c #BAC3B3",
"c. c #BFCDB0",
"v. c #BFCEB1",
"b. c #C0C7B9",
"n. c #C0CEB1",
"m. c #C4CCBD",
"M. c #C2D0B4",
"N. c #C4D1B4",
"B. c #C5D2B7",
"V. c #CAD6BC",
"C. c #C1C0C3",
"Z. c #C3C3C4",
"A. c #C3C6C1",
"S. c #C8CFC1",
"D. c #C9CFC2",
"F. c #CECED0",
"G. c #CBD2C3",
"H. c #CBD3C3",
"J. c #CDD4C5",
"K. c #CED5C6",
"L. c #CED6C6",
"P. c #D2DDC5",
"I. c #D2D0D3",
"U. c #D5D7D4",
"Y. c #D6D5D7",
"T. c #D8DED1",
"R. c #D8DED2",
"E. c #DAE0D4",
"W. c #DEE6D4",
"Q. c #DFE5D9",
"!. c #F0F2ED",
"~. c None",
/* pixels */
"~.~.# Z.I.F.F.F.F.F.F.Y.`   ~.~.",
"~.~.e !.T.T.T.T.T.T.R.Q.U.X ~.~.",
"~.~.g W.d.k.k.k.k.k.s.( D.@ ~.~.",
"~.~.{ P.o.+.+.R ( U v V H.; ~.~.",
"~.~...V.^ P H a b 2 2 J L.7 ~.~.",
"~.~...N.E n z u , < m J L.9 ~.~.",
"~.~.| N.Z p K t 3 3 h C L.q ~.~.",
"~.~.} n.D l Z i N y r L G.w ~.~.",
"~.~.] v.Y N j x c k F W G.8 ~.~.",
"~.~.' v.W T T B I ! / ) m.6 ~.~.",
"~.~.` M._ t.i.i.a.a.t.y.x.- ~.~.",
"~.~.d A.2.2.x.2.z.z.<.z.7.$ ~.~.",
"~.~.s >.6.q.$.q.8.=.C.;.X.+ ~.~.",
"~.~.0 6.6.9.#.0.6.%.e.6.} o ~.~.",
"~.~.% ;.=.%.-.%.=.-.%.-.f . ~.~.",
"~.~.  % 6 > : : : : = = O   ~.~."
};
