/* XPM */
static char *kmail-16[] = {
/* columns rows colors chars-per-pixel */
"16 16 235 2",
"   c #010101",
".  c #020202",
"X  c gray1",
"o  c #000004",
"O  c #000307",
"+  c #020105",
"@  c #040304",
"#  c #060505",
"$  c #070504",
"%  c #020208",
"&  c #05080F",
"*  c #080A0D",
"=  c #080A0E",
"-  c #0A090C",
";  c #0A090E",
":  c #0E0C0B",
">  c #0F0C0B",
",  c #0E0C0C",
"<  c #0F0D0D",
"1  c #070911",
"2  c #060B11",
"3  c #070C10",
"4  c #070C12",
"5  c #070D12",
"6  c #0B0C10",
"7  c #0B0D10",
"8  c #0E0E11",
"9  c #110F0D",
"0  c #100F0F",
"q  c #110F0F",
"w  c #121010",
"e  c #131111",
"r  c #131112",
"t  c #131212",
"y  c #141110",
"u  c #151211",
"i  c #141212",
"p  c #171313",
"a  c #151014",
"s  c #161315",
"d  c #171415",
"f  c #11131D",
"g  c #15161D",
"h  c #191316",
"j  c #181415",
"k  c #1A1416",
"l  c #1D1A1A",
"z  c #1D1A1B",
"x  c #171920",
"c  c #181925",
"v  c #1B1C2E",
"b  c #1C1F28",
"n  c #1D1E2F",
"m  c #211D1C",
"M  c #241F20",
"N  c #353847",
"B  c #442519",
"V  c #482512",
"C  c #4F2917",
"Z  c #582208",
"A  c #582308",
"S  c #5A2608",
"D  c #592B16",
"F  c #603420",
"G  c #664427",
"H  c #66412C",
"J  c #68492D",
"K  c #6D5231",
"L  c #7B5937",
"P  c #464957",
"I  c #58504C",
"U  c #505267",
"Y  c #5B5D62",
"T  c #786042",
"R  c #626271",
"E  c #6E6D7E",
"W  c #707073",
"Q  c #7D7F87",
"!  c #84400A",
"~  c #825213",
"^  c #975E01",
"/  c #814B2E",
"(  c #82562E",
")  c #85532B",
"_  c #85612C",
"`  c #AA5201",
"'  c #AF6B00",
"]  c #AC6515",
"[  c #BD6409",
"{  c #C47400",
"}  c #C37517",
"|  c #D16413",
" . c #DE6D1C",
".. c #DA741C",
"X. c #DF711C",
"o. c #DF7E12",
"O. c #C96427",
"+. c #EF7B04",
"@. c #E47316",
"#. c #F67800",
"$. c #F97B04",
"%. c #BE8618",
"&. c #968778",
"*. c #C98106",
"=. c #DD8116",
"-. c #CC9732",
";. c #D58F2D",
":. c #D28C38",
">. c #D58D3B",
",. c #DE8B33",
"<. c #E59A0D",
"1. c #FF8500",
"2. c #F88B00",
"3. c #FF8E00",
"4. c #FF9900",
"5. c #FF9A00",
"6. c #F49717",
"7. c #F89413",
"8. c #FF931F",
"9. c #F68527",
"0. c #F19322",
"q. c #F19A2A",
"w. c #FCA600",
"e. c #F3A118",
"r. c #FFB10A",
"t. c #FFB50E",
"y. c #E8A136",
"u. c #F3AE2E",
"i. c #FFB420",
"p. c #FFB82A",
"a. c #FFBC2C",
"s. c #F9BD37",
"d. c #CAA34A",
"f. c #D4B678",
"g. c #EEAB5D",
"h. c #F6A742",
"j. c #FFC530",
"k. c #FFC33D",
"l. c #FEC73E",
"z. c #FFC140",
"x. c #FEC741",
"c. c #F9CE4C",
"v. c #F3C25C",
"b. c #FFD245",
"n. c #FFD352",
"m. c #F0CD67",
"M. c #FBD770",
"N. c #FFDA70",
"B. c #FFE578",
"V. c #9B8F83",
"C. c #9A9AA0",
"Z. c #9AA0AA",
"A. c #B4A694",
"S. c #A4A5A9",
"D. c #AAABAA",
"F. c #B7B7B7",
"G. c #B3B4BA",
"H. c #BBBAB8",
"J. c gray73",
"K. c gray",
"L. c #BCBEC9",
"P. c #DBB295",
"I. c #CBBED6",
"U. c #F0CE91",
"Y. c #F9DB83",
"T. c #E9CDA2",
"R. c #EDCDAC",
"E. c #EAD0B0",
"W. c #FEE58E",
"Q. c #FDF1B8",
"!. c #C5C5C4",
"~. c #C4C5CC",
"^. c #CACAC9",
"/. c #CACACA",
"(. c #CBCBCB",
"). c #CDCDCC",
"_. c #CDC1D8",
"`. c #CCCAD7",
"'. c #D0C9C9",
"]. c #D2D2D2",
"[. c LightGray",
"{. c #D4D4DA",
"}. c #DADADA",
"|. c #DDDDDC",
" X c #DDDDDD",
".X c #DFDFDE",
"XX c #DAD2E1",
"oX c #DBD3E1",
"OX c #DDD5E4",
"+X c #EFE7CC",
"@X c #F7EDD2",
"#X c gray88",
"$X c #E1E2E1",
"%X c #E3E2E4",
"&X c #E4E4E4",
"*X c #E6E6E6",
"=X c #E7E7E8",
"-X c #E6E8EA",
";X c #E7E9ED",
":X c #E8E8E7",
">X c #ECE9E5",
",X c #EAEAEA",
"<X c #EBEAEA",
"1X c gray92",
"2X c #E9EBEF",
"3X c #ECECEC",
"4X c gray93",
"5X c #EEECEF",
"6X c #EFEFEF",
"7X c #EDEFF3",
"8X c #EFF5F6",
"9X c #F0F0EF",
"0X c gray94",
"qX c #F1F1F1",
"wX c #F0F0F2",
"eX c #F1F1F3",
"rX c #F2F1F3",
"tX c gray95",
"yX c #F3F2F2",
"uX c #F3F3F3",
"iX c #F3F6F7",
"pX c gray96",
"aX c #F6F5F6",
"sX c #F8F8F9",
"dX c #F8F9F8",
"fX c #F9FBF9",
"gX c gray98",
"hX c #FBFBFB",
"jX c #F8F9FC",
"kX c #F8FFFF",
"lX c #F9FEFF",
"zX c #FDFFFF",
"xX c #FEFFFF",
"cX c gray100",
"vX c None",
/* pixels */
"vXvXvXvXaXW I R.R.T.U.T vXvXvXvX",
"vXvXvXOX%XrX'.P.@XQ.W.v.J 2 vXvX",
"vXvXvXXX&XdXxXrX>X+XY.n.u.G & vX",
"vXvXyXrX9XpXxXxXjX`.f.s.t.6.H 7 ",
"vXvX4XaX6XaXsXrX3XA.d.m.x.a.>.a ",
"vXiX*XrXrX,X1X8X{.( -.c.r.5...h ",
"vX=X1XfX6X,X6X6XV.K ] e.2.$.O.h ",
"8X=XrX4X}.|.4X~._ *.;.@.6.0.L 8 ",
"Z.H.J.F.K.|.;X&.^ *.h.B.l.a.:.d ",
"b D.%X^.[.=XL.) ' ` y.b.w.3.X.h ",
"# Y .X^.[.$XE ! { } | 2.#.@./ t ",
"vXg S.^.).G.n V [ <.h.9.8.q.K < ",
"vXvXP F.!.R + + C =.N.B.j.i.,.s ",
"vXvXf Q C.v $ @ . F g.k.5.1. .h ",
"vXvXvXN U * : X . & B S A A D d ",
"vXvXvXg c 9 : . vXvX& 5 5 5 = 0 "
};
